G04 ================== begin FILE IDENTIFICATION RECORD ==================*
G04 Layout Name:  c:/Users/user/Desktop/exam/avrusb500/allegro/micro_usb.brd*
G04 Film Name:    AutoSilkT*
G04 File Format:  Gerber RS274X*
G04 File Origin:  Cadence Allegro 16.6-S034*
G04 Origin Date:  Fri Jul 19 12:19:21 2019*
G04 *
G04 Layer:  MANUFACTURING/AUTOSILK_TOP*
G04 Layer:  MANUFACTURING/AUTOSILK_BOTTOM*
G04 *
G04 Offset:    (0.0000 0.0000)*
G04 Mirror:    No*
G04 Mode:      Positive*
G04 Rotation:  0*
G04 FullContactRelief:  No*
G04 UndefLineWidth:     0.0000*
G04 ================== end FILE IDENTIFICATION RECORD ====================*
%FSLAX25Y25*MOMM*%
%IR0*IPPOS*OFA0.00000B0.00000*MIA0B0*SFA1.00000B1.00000*%
%ADD10C,.203*%
%ADD11C,.254*%
G75*
%LPD*%
G75*
G54D10*
G01X37592000Y22066300D02*
G03X37877700Y22352000I0J285700D01*
G01X37306300D02*
G03X37592000Y22066300I285700J0D01*
G01Y22637700D02*
G03X37306300Y22352000I0J-285700D01*
G01X37877700D02*
G03X37592000Y22637700I-285700J0D01*
G01X37719000Y23018800D02*
G03X38004700Y23304500I0J285700D01*
G01X37433300D02*
G03X37719000Y23018800I285700J0D01*
G01Y23590200D02*
G03X37433300Y23304500I0J-285700D01*
G01X37465000Y23990300D02*
X37211000D01*
G01X37465000Y25285700D02*
Y23990300D01*
G01X37211000Y24130000D02*
Y24384000D01*
G01Y23990300D02*
Y24130000D01*
G01X38004700Y23304500D02*
G03X37719000Y23590200I-285700J0D01*
G01X37211000Y24892000D02*
Y25146000D01*
G01Y24638000D02*
Y24892000D01*
G01Y24384000D02*
Y24638000D01*
G01X37452300Y25463500D02*
Y25717500D01*
G01X38747700Y25463500D02*
X37452300D01*
G01X37592000Y25717500D02*
X37846000D01*
G01X37452300D02*
X37592000D01*
G01X37211000Y25285700D02*
X37465000D01*
G01X37211000Y25146000D02*
Y25285700D01*
G01X38290500Y22066300D02*
G03X38576200Y22352000I0J285700D01*
G01X38004800D02*
G03X38290500Y22066300I285700J0D01*
G01Y22637700D02*
G03X38004800Y22352000I0J-285700D01*
G01X38576200D02*
G03X38290500Y22637700I-285700J0D01*
G01X38544500Y24193500D02*
X38481000D01*
G01X39179500Y24066500D02*
X38544500D01*
G01D02*
Y24193500D01*
G01D02*
Y24320500D01*
G01X39179500Y25019000D02*
X38544500D01*
G01D02*
Y25146000D01*
G01Y24320500D02*
X39179500D01*
G01X38544500Y24511000D02*
X38481000D01*
G01X39179500Y24384000D02*
X38544500D01*
G01D02*
Y24511000D01*
G01D02*
Y24638000D01*
G01D02*
X39179500D01*
G01X38544500Y24828500D02*
X38481000D01*
G01X39179500Y24701500D02*
X38544500D01*
G01D02*
Y24828500D01*
G01D02*
Y24955500D01*
G01D02*
X39179500D01*
G01X38354000Y25717500D02*
X38608000D01*
G01X38100000D02*
X38354000D01*
G01X37846000D02*
X38100000D01*
G01X38544500Y25146000D02*
X38481000D01*
G01X38544500D02*
Y25273000D01*
G01D02*
X39179500D01*
G01X38989000Y22066300D02*
G03X39274700Y22352000I0J285700D01*
G01X38703300D02*
G03X38989000Y22066300I285700J0D01*
G01Y22637700D02*
G03X38703300Y22352000I0J-285700D01*
G01X39274700D02*
G03X38989000Y22637700I-285700J0D01*
G01X39179500Y24193500D02*
X39243000D01*
G01X39179500Y24320500D02*
Y24193500D01*
G01D02*
Y24066500D01*
G01Y25146000D02*
Y25019000D01*
G01Y24511000D02*
X39243000D01*
G01X39179500Y24638000D02*
Y24511000D01*
G01D02*
Y24384000D01*
G01Y24828500D02*
X39243000D01*
G01X39179500Y24955500D02*
Y24828500D01*
G01D02*
Y24701500D01*
G01X38747700Y25717500D02*
Y25463500D01*
G01X38608000Y25717500D02*
X38747700D01*
G01X39179500Y25146000D02*
X39243000D01*
G01X39179500Y25273000D02*
Y25146000D01*
G01X40005000Y22066300D02*
G03X40290700Y22352000I0J285700D01*
G01X39719300D02*
G03X40005000Y22066300I285700J0D01*
G01Y22637700D02*
G03X39719300Y22352000I0J-285700D01*
G01X40290700D02*
G03X40005000Y22637700I-285700J0D01*
G01X40970500Y23386000D02*
X39827500D01*
G01D02*
Y23894000D01*
G01D02*
X40970500D01*
G01X40767000Y22066300D02*
G03X41052700Y22352000I0J285700D01*
G01X40481300D02*
G03X40767000Y22066300I285700J0D01*
G01Y22637700D02*
G03X40481300Y22352000I0J-285700D01*
G01X41052700D02*
G03X40767000Y22637700I-285700J0D01*
G01X41624300Y22352000D02*
G03X41910000Y22066300I285700J0D01*
G01Y22637700D02*
G03X41624300Y22352000I0J-285700D01*
G01Y23304500D02*
G03X41910000Y23018800I285700J0D01*
G01Y23590200D02*
G03X41624300Y23304500I0J-285700D01*
G01X40970500Y23894000D02*
Y23386000D01*
G01X41656000Y25463500D02*
X41592500D01*
G01X41910000Y22066300D02*
G03X42195700Y22352000I0J285700D01*
G01D02*
G03X41910000Y22637700I-285700J0D01*
G01Y23018800D02*
G03X42195700Y23304500I0J285700D01*
G01D02*
G03X41910000Y23590200I-285700J0D01*
G01X42291000Y25463500D02*
X42354500D01*
G01X41656000Y25336500D02*
Y25463500D01*
G01D02*
Y25590500D01*
G01D02*
X42291000D01*
G01D02*
Y25463500D01*
G01D02*
Y25336500D01*
G01D02*
X41656000D01*
G01X43053000Y22606000D02*
X42989500D01*
G01X43688000Y22479000D02*
X43053000D01*
G01D02*
Y22606000D01*
G01D02*
Y22733000D01*
G01D02*
X43688000D01*
G01X43053000Y22987000D02*
X42989500D01*
G01X43688000Y22860000D02*
X43053000D01*
G01D02*
Y22987000D01*
G01D02*
Y23114000D01*
G01D02*
X43688000D01*
G01X43040500Y23940000D02*
X42977000D01*
G01X43040500Y23813000D02*
Y23940000D01*
G01D02*
Y24067000D01*
G01D02*
X43675500D01*
G01Y23813000D02*
X43040500D01*
G01X43053000Y24193500D02*
Y24320500D01*
G01X43688000Y24193500D02*
X43053000D01*
G01Y24320500D02*
X42989500D01*
G01X43053000D02*
Y24447500D01*
G01D02*
X43688000D01*
G01X43053000Y25019000D02*
Y25146000D01*
G01X43688000Y25019000D02*
X43053000D01*
G01X43040500Y24750000D02*
X42977000D01*
G01X43040500Y24623000D02*
Y24750000D01*
G01D02*
Y24877000D01*
G01D02*
X43675500D01*
G01Y24623000D02*
X43040500D01*
G01X43053000Y25146000D02*
X42989500D01*
G01X43053000D02*
Y25273000D01*
G01D02*
X43688000D01*
G01X43053000Y25590500D02*
X42989500D01*
G01X43688000Y25463500D02*
X43053000D01*
G01D02*
Y25590500D01*
G01D02*
Y25717500D01*
G01D02*
X43688000D01*
G01Y22606000D02*
X43751500D01*
G01X43688000Y22733000D02*
Y22606000D01*
G01D02*
Y22479000D01*
G01Y22987000D02*
X43751500D01*
G01X43688000Y23114000D02*
Y22987000D01*
G01D02*
Y22860000D01*
G01X43675500Y23940000D02*
X43739000D01*
G01X43675500Y24067000D02*
Y23940000D01*
G01D02*
Y23813000D01*
G01X43688000Y24320500D02*
Y24193500D01*
G01Y24320500D02*
X43751500D01*
G01X43688000Y24447500D02*
Y24320500D01*
G01Y25146000D02*
Y25019000D01*
G01X43675500Y24750000D02*
X43739000D01*
G01X43675500Y24877000D02*
Y24750000D01*
G01D02*
Y24623000D01*
G01X43688000Y25146000D02*
X43751500D01*
G01X43688000Y25273000D02*
Y25146000D01*
G01Y25590500D02*
X43751500D01*
G01X43688000Y25717500D02*
Y25590500D01*
G01D02*
Y25463500D01*
G01X44547000Y23904300D02*
X44293000D01*
G01X44547000Y25199700D02*
Y23904300D01*
G01X44293000Y24298000D02*
Y24552000D01*
G01Y24044000D02*
Y24298000D01*
G01Y23904300D02*
Y24044000D01*
G01Y25060000D02*
Y25199700D01*
G01Y24806000D02*
Y25060000D01*
G01Y24552000D02*
Y24806000D01*
G01Y25199700D02*
X44547000D01*
G01X45402500Y22161500D02*
X45339000D01*
G01X46037500Y22034500D02*
X45402500D01*
G01D02*
Y22161500D01*
G01D02*
Y22288500D01*
G01D02*
X46037500D01*
G01X46019500Y22723000D02*
X45384500D01*
G01D02*
Y22850000D01*
G01D02*
X45321000D01*
G01X45384500D02*
Y22977000D01*
G01D02*
X46019500D01*
G01X45688300Y25590500D02*
G03Y24955500I0J-317500D01*
G01X46037500Y22161500D02*
X46101000D01*
G01X46037500Y22288500D02*
Y22161500D01*
G01D02*
Y22034500D01*
G01X46019500Y22850000D02*
Y22723000D01*
G01Y22850000D02*
X46083000D01*
G01X46019500Y22977000D02*
Y22850000D01*
G01X45910500Y23558500D02*
Y24701500D01*
G01X46418500Y23558500D02*
X45910500D01*
G01X45688300Y24955500D02*
G03X46005700Y25273000I0J317400D01*
G01X45910500Y24701500D02*
X46418500D01*
G01X46005700Y25273000D02*
G03X45688300Y25590500I-317400J100D01*
G01X46926500Y23590300D02*
G03X47212200Y23876000I0J285700D01*
G01X46640800D02*
G03X46926500Y23590300I285700J0D01*
G01Y24161700D02*
G03X46640800Y23876000I0J-285700D01*
G01X47212200D02*
G03X46926500Y24161700I-285700J0D01*
G01X46418500Y24701500D02*
Y23558500D01*
G01X46926500Y24479300D02*
G03X47212200Y24765000I0J285700D01*
G01X46640800D02*
G03X46926500Y24479300I285700J0D01*
G01Y25050700D02*
G03X46640800Y24765000I0J-285700D01*
G01X47212200D02*
G03X46926500Y25050700I-285700J0D01*
G01X46420500Y25450000D02*
X46357000D01*
G01X46420500Y25323000D02*
Y25450000D01*
G01D02*
Y25577000D01*
G01D02*
X47055500D01*
G01Y25323000D02*
X46420500D01*
G01X47055500Y25450000D02*
X47119000D01*
G01X47055500Y25577000D02*
Y25450000D01*
G01D02*
Y25323000D01*
G54D11*
G01X40977300Y24380700D02*
X40834600D01*
G01X44850700Y23792700D02*
Y23935400D01*
M02*
