G04 ================== begin FILE IDENTIFICATION RECORD ==================*
G04 Layout Name:  AVRUSB500_0729.brd*
G04 Film Name:    AutoSilkT*
G04 File Format:  Gerber RS274X*
G04 File Origin:  Cadence Allegro 17.2-P019*
G04 Origin Date:  Mon Jul 29 16:18:17 2019*
G04 *
G04 Layer:  MANUFACTURING/AUTOSILK_TOP*
G04 Layer:  MANUFACTURING/AUTOSILK_BOTTOM*
G04 *
G04 Offset:    (0.0000 0.0000)*
G04 Mirror:    No*
G04 Mode:      Positive*
G04 Rotation:  0*
G04 FullContactRelief:  No*
G04 UndefLineWidth:     0.0000*
G04 ================== end FILE IDENTIFICATION RECORD ====================*
%FSLAX55Y55*MOMM*%
%IR0*IPPOS*OFA0.00000B0.00000*MIA0B0*SFA1.00000B1.00000*%
%ADD10C,.203*%
%ADD11C,.254*%
%ADD12C,.1524*%
G75*
%LPD*%
G75*
G54D10*
G01X37687300Y22352000D02*
G03X37973000Y22066300I285700J0D01*
G01Y22637700D02*
G03X37687300Y22352000I0J-285700D01*
G01X37465000Y23926800D02*
X37211000D01*
G01X37465000Y25222200D02*
Y23926800D01*
G01X37211000Y24066500D02*
Y24320500D01*
G01Y23926800D02*
Y24066500D01*
G01Y24828500D02*
Y25082500D01*
G01Y24574500D02*
Y24828500D01*
G01Y24320500D02*
Y24574500D01*
G01X37706300Y25336500D02*
Y25590500D01*
G01X39001700Y25336500D02*
X37706300D01*
G01Y25590500D02*
X37846000D01*
G01X37211000Y25222200D02*
X37465000D01*
G01X37211000Y25082500D02*
Y25222200D01*
G01X38385800Y22352000D02*
G03X38671500Y22066300I285700J0D01*
G01Y22637700D02*
G03X38385800Y22352000I0J-285700D01*
G01X37973000Y22066300D02*
G03X38258700Y22352000I0J285700D01*
G01D02*
G03X37973000Y22637700I-285700J0D01*
G01X38354000Y25590500D02*
X38608000D01*
G01X38100000D02*
X38354000D01*
G01X37846000D02*
X38100000D01*
G01X38671500Y22066300D02*
G03X38957200Y22352000I0J285700D01*
G01D02*
G03X38671500Y22637700I-285700J0D01*
G01X39084300Y22352000D02*
G03X39370000Y22066300I285700J0D01*
G01Y22637700D02*
G03X39084300Y22352000I0J-285700D01*
G01X39001700Y25590500D02*
Y25336500D01*
G01X38862000Y25590500D02*
X39001700D01*
G01X38608000D02*
X38862000D01*
G01X39370000Y22066300D02*
G03X39655700Y22352000I0J285700D01*
G01D02*
G03X39370000Y22637700I-285700J0D01*
G01X39827500Y23386000D02*
Y23894000D01*
G01X40970500Y23386000D02*
X39827500D01*
G01Y23894000D02*
X40970500D01*
G01D02*
Y23386000D01*
G01X44547000Y23904300D02*
X44293000D01*
G01X44547000Y25199700D02*
Y23904300D01*
G01X44293000Y24298000D02*
Y24552000D01*
G01Y24044000D02*
Y24298000D01*
G01Y23904300D02*
Y24044000D01*
G01Y25060000D02*
Y25199700D01*
G01Y24806000D02*
Y25060000D01*
G01Y24552000D02*
Y24806000D01*
G01Y25199700D02*
X44547000D01*
G01X45910500Y23558500D02*
Y24701500D01*
G01X46418500Y23558500D02*
X45910500D01*
G01Y24701500D02*
X46418500D01*
G01X46118700Y25450000D02*
G03X45801300Y25767500I-317400J100D01*
G01D02*
G03Y25132500I0J-317500D01*
G01D02*
G03X46118700Y25450000I0J317400D01*
G01X46418500Y24701500D02*
Y23558500D01*
G54D11*
G01X40977300Y24380700D02*
X40834600D01*
G01X44850700Y23792700D02*
Y23935400D01*
G54D12*
G01X37245380Y23046800D02*
Y23453200D01*
G01D02*
X37941340D01*
G01Y23046800D02*
X37245380D01*
G01X37941340Y23453200D02*
Y23046800D01*
G01X39187120Y23101300D02*
X38491160D01*
G01D02*
Y23507700D01*
G01D02*
X39187120D01*
G01Y24117300D02*
X38491160D01*
G01D02*
Y24523700D01*
G01X39187120Y23609300D02*
X38491160D01*
G01D02*
Y24015700D01*
G01D02*
X39187120D01*
G01X38491160Y24523700D02*
X39187120D01*
G01Y24625300D02*
X38491160D01*
G01D02*
Y25031700D01*
G01D02*
X39187120D01*
G01Y23507700D02*
Y23101300D01*
G01Y24523700D02*
Y24117300D01*
G01Y24015700D02*
Y23609300D01*
G01Y25031700D02*
Y24625300D01*
G01X39746800Y22741340D02*
X40153200D01*
G01X39746800Y22045380D02*
Y22741340D01*
G01X40153200Y22045380D02*
X39746800D01*
G01X40153200Y22741340D02*
Y22045380D01*
G01X40833200Y22751340D02*
Y22055380D01*
G01X40426800Y22751340D02*
X40833200D01*
G01X40426800Y22055380D02*
Y22751340D01*
G01X40833200Y22055380D02*
X40426800D01*
G01X41584880Y24688800D02*
Y25095200D01*
G01X42280840Y24688800D02*
X41584880D01*
G01Y25095200D02*
X42280840D01*
G01X41686800Y22098660D02*
Y22794620D01*
G01X42093200Y22098660D02*
X41686800D01*
G01X42093200Y22794620D02*
Y22098660D01*
G01Y23005380D02*
X41686800D01*
G01D02*
Y23701340D01*
G01X42093200D02*
Y23005380D01*
G01X41686800Y22794620D02*
X42093200D01*
G01X41686800Y23701340D02*
X42093200D01*
G01X42280840Y25095200D02*
Y24688800D01*
G01X43695620Y22593300D02*
X42999660D01*
G01D02*
Y22999700D01*
G01X43695620Y22085300D02*
X42999660D01*
G01D02*
Y22491700D01*
G01D02*
X43695620D01*
G01X42999660Y22999700D02*
X43695620D01*
G01X42981880Y23228300D02*
Y23634700D01*
G01X43677840Y23228300D02*
X42981880D01*
G01Y23634700D02*
X43677840D01*
G01X42981880Y24244300D02*
Y24650700D01*
G01X43677840Y24244300D02*
X42981880D01*
G01Y23736300D02*
Y24142700D01*
G01D02*
X43677840D01*
G01Y23736300D02*
X42981880D01*
G01Y24650700D02*
X43677840D01*
G01X42981880Y24752300D02*
Y25158700D01*
G01X43677840Y24752300D02*
X42981880D01*
G01X43695620Y25260300D02*
X42999660D01*
G01D02*
Y25666700D01*
G01D02*
X43695620D01*
G01X42981880Y25158700D02*
X43677840D01*
G01X43695620Y22999700D02*
Y22593300D01*
G01Y22491700D02*
Y22085300D01*
G01X43677840Y23634700D02*
Y23228300D01*
G01Y24650700D02*
Y24244300D01*
G01Y24142700D02*
Y23736300D01*
G01Y25158700D02*
Y24752300D01*
G01X43695620Y25666700D02*
Y25260300D01*
G01X46094620Y22226800D02*
X45398660D01*
G01D02*
Y22633200D01*
G01D02*
X46094620D01*
G01Y22776800D02*
X45398660D01*
G01D02*
Y23183200D01*
G01D02*
X46094620D01*
G01Y22441420D02*
Y22226800D01*
G01Y22633200D02*
Y22516580D01*
G01Y23183200D02*
Y22776800D01*
G01X47283200Y23458660D02*
X46876800D01*
G01D02*
Y24154620D01*
G01D02*
X47283200D01*
G01X47378620Y24307800D02*
X46682660D01*
G01D02*
Y24714200D01*
G01D02*
X47378620D01*
G01X46220380Y25260300D02*
Y25666700D01*
G01D02*
X46916340D01*
G01D02*
Y25260300D01*
G01D02*
X46220380D01*
G01X47283200Y24154620D02*
Y23458660D01*
G01X47378620Y24714200D02*
Y24307800D01*
M02*
