G04 ================== begin FILE IDENTIFICATION RECORD ==================*
G04 Layout Name:  c:/Users/user/Desktop/exam/avrusb500/allegro/micro_usb.brd*
G04 Film Name:    BOTTOM*
G04 File Format:  Gerber RS274X*
G04 File Origin:  Cadence Allegro 16.6-S034*
G04 Origin Date:  Fri Jul 19 12:19:21 2019*
G04 *
G04 Layer:  ETCH/BOTTOM*
G04 Layer:  PIN/BOTTOM*
G04 Layer:  VIA CLASS/BOTTOM*
G04 *
G04 Offset:    (0.0000 0.0000)*
G04 Mirror:    No*
G04 Mode:      Positive*
G04 Rotation:  0*
G04 FullContactRelief:  No*
G04 UndefLineWidth:     0.0000*
G04 ================== end FILE IDENTIFICATION RECORD ====================*
%FSLAX25Y25*MOMM*%
%IR0*IPPOS*OFA0.00000B0.00000*MIA0B0*SFA1.00000B1.00000*%
%ADD15O,1.8999X1.1999*%
%ADD14C,.6101*%
%ADD11C,1.3211*%
%ADD10R,1.3211X1.3211*%
%ADD12C,1.5751*%
%ADD13R,1.5751X1.5751*%
%ADD16C,.254*%
%ADD17C,.381*%
%ADD18C,.508*%
%ADD21O,2.4084X1.7084*%
%ADD20C,1.5756*%
%ADD19C,1.8296*%
G75*
%LPD*%
G75*
G36*
G01X37130010Y21890010D02*
Y25789990D01*
X47529990D01*
Y21890010D01*
X37130010D01*
G37*
%LPC*%
G75*
G36*
G01X42773620Y22399710D02*
X42560790Y22186880D01*
X41993160D01*
G02Y22263120I-83160J38120D01*
G01X42529210D01*
X42697380Y22431290D01*
Y23023100D01*
X42811880Y23137600D01*
Y23856840D01*
G02X42888120I38120J83160D01*
G01Y23106020D01*
X42875830Y23093730D01*
G03X42880960Y23076600I7186J-7181D01*
G02X42791650Y22929130I-18461J-89599D01*
G03X42773620Y22922710I-7870J-6424D01*
G01Y22670290D01*
G03X42791650Y22663870I10160J4D01*
G02Y22548130I70850J-57870D01*
G03X42773620Y22541710I-7870J-6424D01*
G01Y22399710D01*
G37*
G36*
G01X37683480Y22174180D02*
Y22133520D01*
X37500520D01*
Y22316480D01*
X37683480D01*
Y22275820D01*
X38199020D01*
Y22316480D01*
X38381980D01*
Y22275820D01*
X38897520D01*
Y22316480D01*
X39080480D01*
Y22133520D01*
X38897520D01*
Y22174180D01*
X38381980D01*
Y22133520D01*
X38199020D01*
Y22174180D01*
X37683480D01*
G37*
G36*
G01X46843340Y23710880D02*
X46247660D01*
G02Y23787120I-83160J38120D01*
G01X46843340D01*
G02Y23710880I83160J-38120D01*
G37*
G36*
G01X40838070Y24195520D02*
X40766510Y24267080D01*
X40061230D01*
G02Y24343320I-40930J38120D01*
G01X40798090D01*
X40891980Y24249430D01*
X40894080D01*
G02X40838070Y24193420I-80J-55930D01*
G01Y24195520D01*
G37*
G36*
G01X45938480Y25234880D02*
Y25181520D01*
X45755520D01*
Y25364480D01*
X45938480D01*
Y25311120D01*
X46191880D01*
Y25366840D01*
G02X46268120I38120J83160D01*
G01Y25234880D01*
X45938480D01*
G37*
G36*
G01X40784600Y25284030D02*
X40731550Y25230980D01*
X40483150D01*
X40430100Y25284030D01*
X40429110Y25284420D01*
G02X40501580Y25356890I20390J52080D01*
G01X40501970Y25355900D01*
X40525250Y25332620D01*
X40689450D01*
X40712730Y25355900D01*
X40713120Y25356890D01*
G02X40785590Y25284420I52080J-20390D01*
G01X40784600Y25284030D01*
G37*
G36*
G01X40611960Y24434390D02*
X40577670Y24400100D01*
X40577280Y24399110D01*
G02X40504810Y24471580I-52080J20390D01*
G01X40505800Y24471970D01*
X40595650Y24561820D01*
X40714380D01*
Y24933940D01*
G02X40816020I50820J23360D01*
G01Y24589770D01*
X40817820Y24587970D01*
Y24534360D01*
G02X40787390Y24458920I-50819J-23358D01*
G01X40786400Y24458530D01*
X40737670Y24409800D01*
X40737280Y24408810D01*
G02X40629300Y24427510I-52077J20394D01*
G03X40611960Y24434390I-10157J-307D01*
G37*
G36*
G01X45288070Y22110680D02*
G02Y22212320I-76070J50820D01*
G01X45500450D01*
X46120250Y22832120D01*
X46119810Y22834700D01*
G02Y22865300I90190J15300D01*
G01X46120250Y22867880D01*
X45670950Y23317180D01*
X45298860D01*
G02X45252140I-23360J50820D01*
G01X44790860D01*
G02X44787890Y23315920I-23319J50837D01*
G01X44786900Y23315530D01*
X44725050Y23253680D01*
X44480450D01*
X43883880Y23850250D01*
X43881300Y23849810D01*
G02X43774530Y23938750I-15300J90191D01*
G03X43757190Y23945800I-10159J-138D01*
G01X43478470Y23667080D01*
Y23338420D01*
G02X43389530I-44470J-33920D01*
G01Y23703920D01*
X43860080Y24174470D01*
X44352420D01*
X44384790Y24142100D01*
X44387750Y24143060D01*
G02X44510940Y24094820I32249J-99061D01*
G01X44782450D01*
X45027530Y24339900D01*
X45027920Y24340890D01*
G02X45103360Y24371320I52082J-20389D01*
G01X45379140D01*
G02X45382110Y24372580I23319J-50837D01*
G01X45383100Y24372970D01*
X45451510Y24441380D01*
G03X45447660Y24458160I-7184J7183D01*
G02X45410070Y24510920I18341J52838D01*
G01Y24513020D01*
X45392000Y24531090D01*
G03X45374850Y24521920I-7185J-7185D01*
G02X45282890Y24469150I-54853J-10922D01*
G01X45279310Y24472320D01*
X45204010Y24397020D01*
X44491950D01*
G03X44485560Y24378960I2J-10161D01*
G02X44354440I-65560J-80960D01*
G03X44348050Y24397020I-6392J7899D01*
G01X43955490D01*
G03X43947790Y24380230I-3J-10159D01*
G02X43809210I-69290J-59730D01*
G03X43801510Y24397020I-7697J6631D01*
G01X42939490D01*
G03X42931790Y24380230I-3J-10159D01*
G02X42775710Y24349410I-69288J-59730D01*
G01X42776700Y24352390D01*
X42148210Y24980880D01*
X41195710D01*
X41147880Y25028710D01*
G03X41130690Y25019770I-7184J-7183D01*
G02X41113720Y24969170I-55089J-9670D01*
G01Y24243330D01*
G02X41037480I-38120J-40930D01*
G01Y24969170D01*
G02X41097170Y25061700I38119J40927D01*
G03X41110960Y25073480I3919J9374D01*
G02X41109880Y25082500I37041J9010D01*
G01Y25168570D01*
G02X41159740Y25264180I38120J40927D01*
G03X41171800Y25276250I2127J9935D01*
G02X41282420Y25288060I54689J11724D01*
G01Y25285960D01*
X41325870Y25242510D01*
X41354050D01*
G03X41361240Y25259850I2J10160D01*
G01X41340520Y25280570D01*
X41338420D01*
G02X41394430Y25336580I80J55930D01*
G01Y25334480D01*
X41417790Y25311120D01*
X42751290D01*
X42830610Y25231800D01*
X42833590Y25232790D01*
G02X42949290Y25117090I28910J-86790D01*
G01X42948300Y25114110D01*
X43081150Y24981260D01*
X44315820D01*
Y25021880D01*
X44266210D01*
X43926210Y25361880D01*
X43037210D01*
X42894390Y25504700D01*
X42891410Y25503710D01*
G02X42949290Y25561590I-28910J86790D01*
G01X42948300Y25558610D01*
X43068790Y25438120D01*
X43957790D01*
X44297790Y25098120D01*
X44315820D01*
Y25164180D01*
X44524180D01*
Y24993620D01*
X45354790D01*
X45400480Y24947930D01*
X45402580D01*
G02X45407190Y24947730I-117J-55929D01*
G01X45409540Y24947540D01*
X45414790Y24952800D01*
X45259710Y25107880D01*
X44942210D01*
X44833020Y25217070D01*
X44830920D01*
G02X44775070Y25272920I80J55930D01*
G01Y25275020D01*
X44497710Y25552380D01*
X43961660D01*
G02Y25628620I-83160J38120D01*
G01X44529290D01*
X44828980Y25328930D01*
X44831080D01*
G02X44886930Y25273080I-80J-55930D01*
G01Y25270980D01*
X44973790Y25184120D01*
X45291290D01*
X45545290Y24930120D01*
X45552020D01*
X45553510Y24931600D01*
G02X45552070Y24853880I39491J-39605D01*
G01X45513710D01*
X45475400Y24892190D01*
G03X45458120Y24886080I-7179J-7187D01*
G02X45346570Y24891920I-55619J5907D01*
G01Y24894020D01*
X45323210Y24917380D01*
X44542690D01*
X44530330Y24905020D01*
X44491950D01*
G03X44485560Y24886960I2J-10161D01*
G02X44503360Y24743510I-65560J-80964D01*
G03X44511490Y24727260I8131J-6091D01*
G01X45303650D01*
X45463980Y24566930D01*
X45466080D01*
G02X45518840Y24529340I-78J-55931D01*
G03X45535620Y24525490I9597J3334D01*
G01X45712730Y24702600D01*
X45854270D01*
X46055710Y24501160D01*
G03X46073050Y24508610I7184J7183D01*
G02X46126380Y24594160I91449J2390D01*
G01Y24803120D01*
X46716340D01*
G02Y24726880I83160J-38120D01*
G01X46202620D01*
Y24594160D01*
G02X46162110Y24419550I-38118J-83161D01*
G03X46154660Y24402210I-267J-10156D01*
G01X46503050Y24053820D01*
X46835020D01*
Y24094480D01*
X46875680D01*
Y24244320D01*
X47002680D01*
Y24673520D01*
X46962020D01*
Y24856480D01*
X47144980D01*
Y24673520D01*
X47104320D01*
Y24142680D01*
X46977320D01*
Y24094480D01*
X47017980D01*
Y23983400D01*
X47167820Y23833550D01*
Y23169200D01*
G03X47184040Y23161050I10159J3D01*
G02X47235000Y23177920I50965J-68548D01*
G01X47305000D01*
G02Y23007080I0J-85420D01*
G01X47235000D01*
G02X47184040Y23023950I5J85418D01*
G03X47167820Y23015800I-6061J-8153D01*
G01Y22428180D01*
X47076860D01*
G02X47055630Y22534890I-23358J50820D01*
G03X47066180Y22545040I391J10152D01*
G01Y23791450D01*
X46946100Y23911520D01*
X46835020D01*
Y23952180D01*
X46460950D01*
X45812170Y24600960D01*
X45754830D01*
X45454970Y24301100D01*
X45454580Y24300110D01*
G02X45453320Y24297140I-52097J20349D01*
G01Y24216860D01*
G02X45351680I-50820J-23360D01*
G01Y24269680D01*
X45103360D01*
G02X45100390Y24268420I-23319J50837D01*
G01X45099400Y24268030D01*
X44824550Y23993180D01*
X44510940D01*
G02X44320940Y24076250I-90936J50830D01*
G01X44321900Y24079210D01*
X44315580Y24085530D01*
X43896920D01*
X43860200Y24048810D01*
G03X43867250Y24031470I7188J-7181D01*
G02X43956190Y23924700I-1251J-91470D01*
G01X43955750Y23922120D01*
X44522550Y23355320D01*
X44682950D01*
X44703670Y23376040D01*
G03X44696480Y23393380I-7188J7180D01*
G01X44617930D01*
G02Y23469620I-40930J38120D01*
G01X44718180D01*
X44733740Y23485180D01*
X45021270D01*
X45033790Y23497700D01*
X45028540Y23502960D01*
X45026190Y23502770D01*
G02X44980570Y23520380I-4695J55732D01*
G01X44808430D01*
G02Y23596620I-40930J38120D01*
G01X44980570D01*
G02X45077230Y23553810I40927J-38119D01*
G01X45077040Y23551460D01*
X45082300Y23546210D01*
X45092570Y23556480D01*
Y23558580D01*
G02X45148580Y23502570I55930J-80D01*
G01X45146480D01*
X45080070Y23436160D01*
G03X45087260Y23418820I7188J-7180D01*
G01X45252140D01*
G02X45298860I23360J-50820D01*
G01X45713050D01*
X46192120Y22939750D01*
X46194700Y22940190D01*
G02Y22759810I15300J-90190D01*
G01X46192120Y22760250D01*
X45542550Y22110680D01*
X45288070D01*
G37*
G36*
G01X42179790Y23660120D02*
X42281600Y23558310D01*
G03X42298880Y23564420I7179J7187D01*
G02X42316380Y23599430I55618J-5922D01*
G01Y23733210D01*
X42300400Y23749190D01*
G03X42283120Y23743080I-7179J-7187D01*
G02X42171570Y23748920I-55619J5907D01*
G01Y23751020D01*
X41957710Y23964880D01*
X40595330D01*
G02X40499970Y24015880I-40932J38117D01*
G03X40490090Y24028380I-9885J2341D01*
G01X39855430D01*
G02Y24104620I-40930J38120D01*
G01X40505080D01*
X40510190Y24109730D01*
X40598610D01*
X40603720Y24104620D01*
X42052790D01*
X42392620Y23764790D01*
Y23599430D01*
G02X42360420Y23502880I-38118J-40932D01*
G03X42354310Y23485600I1077J-10101D01*
G01X42369090Y23470820D01*
X42395060D01*
X42506880Y23582640D01*
Y23669710D01*
X41340520Y24836070D01*
X41338420D01*
G02X41394430Y24892080I80J55930D01*
G01Y24889980D01*
X42561710Y23722700D01*
G03X42570380Y23726290I3590J3594D01*
G01Y23733210D01*
X41871880Y24431710D01*
Y24851070D01*
G02X41948120I38120J40930D01*
G01Y24463290D01*
X42646620Y23764790D01*
Y23542710D01*
X42456120Y23352210D01*
Y23027930D01*
G02X42379880I-38120J-40930D01*
G01Y23383790D01*
X42382000Y23385910D01*
G03X42378410Y23394580I-3594J3590D01*
G01X42337510D01*
X42148210Y23583880D01*
X41824190D01*
X41821120Y23580810D01*
Y23495790D01*
G03X41839150Y23489370I10160J4D01*
G02X41986070Y23482320I70852J-57869D01*
G01X42037000D01*
G02X42085490Y23446710I0J-50819D01*
G01X42085870Y23445520D01*
X42298430Y23232960D01*
X42300050Y23232690D01*
G02Y23122310I-9050J-55190D01*
G01X42298430Y23122040D01*
X41954470Y22778080D01*
Y22570480D01*
X42001480D01*
Y22387520D01*
X41818520D01*
Y22428180D01*
X41423050D01*
X41169050Y22174180D01*
X40858480D01*
Y22133520D01*
X40675520D01*
Y22174180D01*
X40096480D01*
Y22133520D01*
X39913520D01*
Y22174180D01*
X39602950D01*
X39348950Y22428180D01*
X39065070D01*
G02X38912930I-76070J50820D01*
G01X38366570D01*
G02X38214430I-76070J50820D01*
G01X37668070D01*
G02X37541180Y22555070I-76070J50820D01*
G01Y23213020D01*
X37500520D01*
Y23395980D01*
X37541180D01*
Y23854950D01*
X37366400Y24029730D01*
X37363600Y24029020D01*
G02X37237020Y24155600I-25600J100980D01*
G01X37237730Y24158400D01*
X37157620Y24238510D01*
Y25494690D01*
X37304250Y25641320D01*
X37501060D01*
G02X37617600Y25691480I90939J-50822D01*
G01X37620400Y25690770D01*
X37700510Y25770880D01*
X38728850D01*
X38731410Y25768320D01*
X39200550D01*
X39706920Y25261950D01*
G02X39739950Y25228920I-19420J-52450D01*
G01X39906320Y25062550D01*
G02X39834450Y24990680I-19420J-52450D01*
G01X39668080Y25157050D01*
G02X39635050Y25190080I19420J52450D01*
G01X39158450Y25666680D01*
X38712180D01*
Y25486320D01*
X38503820D01*
Y25669240D01*
X38445490D01*
G03X38437360Y25652990I1J-10159D01*
G02X38270640I-83360J-62490D01*
G03X38262510Y25669240I-8131J6091D01*
G01X38191490D01*
G03X38183360Y25652990I1J-10159D01*
G02X38016640I-83360J-62490D01*
G03X38008510Y25669240I-8131J6091D01*
G01X37937490D01*
G03X37929360Y25652990I1J-10159D01*
G02X37762640I-83360J-62490D01*
G03X37754510Y25669240I-8131J6091D01*
G01X37742610D01*
X37692270Y25618900D01*
X37692980Y25616100D01*
G02X37501060Y25539680I-100985J-25590D01*
G01X37346350D01*
X37259260Y25452590D01*
Y25250180D01*
X37442180D01*
Y25041820D01*
X37259260D01*
Y24983490D01*
G03X37275510Y24975360I10159J1D01*
G02Y24808640I62490J-83360D01*
G03X37259260Y24800510I-6091J-8131D01*
G01Y24729490D01*
G03X37275510Y24721360I10159J1D01*
G02Y24554640I62490J-83360D01*
G03X37259260Y24546510I-6091J-8131D01*
G01Y24475490D01*
G03X37275510Y24467360I10159J1D01*
G02Y24300640I62490J-83360D01*
G03X37259260Y24292510I-6091J-8131D01*
G01Y24280610D01*
X37309600Y24230270D01*
X37312400Y24230980D01*
G02X37438980Y24104400I25600J-100980D01*
G01X37438270Y24101600D01*
X37642820Y23897050D01*
Y23395980D01*
X37683480D01*
Y23213020D01*
X37642820D01*
Y22555070D01*
G02X37668070Y22529820I-50820J-76070D01*
G01X38214430D01*
G02X38366570I76070J-50820D01*
G01X38912930D01*
G02X39065070I76070J-50820D01*
G01X39391050D01*
X39645050Y22275820D01*
X39913520D01*
Y22316480D01*
X40096480D01*
Y22275820D01*
X40675520D01*
Y22316480D01*
X40858480D01*
Y22275820D01*
X41126950D01*
X41380950Y22529820D01*
X41818520D01*
Y22570480D01*
X41865530D01*
Y22814920D01*
X42228110Y23177500D01*
X42024930Y23380680D01*
X41986070D01*
G02X41839150Y23373630I-76068J50819D01*
G03X41821120Y23367210I-7870J-6424D01*
G01Y23268980D01*
X42001480D01*
Y23086020D01*
X41818520D01*
Y23139380D01*
X41744880D01*
Y23612390D01*
X41762530Y23630040D01*
G03X41755340Y23647380I-7188J7180D01*
G01X41442930D01*
G02Y23723620I-40930J38120D01*
G01X41894210D01*
X41957710Y23787120D01*
X41996070D01*
G02X41996080Y23710880I40931J-38115D01*
G01X41989290D01*
X41955870Y23677460D01*
G03X41963060Y23660120I7188J-7180D01*
G01X42179790D01*
G37*
G54D21*
X46900000Y22067500D03*
Y23092500D03*
X47270000Y22067500D03*
G54D20*
X46228000Y22161500D03*
G54D19*
X47246000Y25450000D03*
X45529500Y25273000D03*
X45194000Y22850000D03*
X43878500Y25146000D03*
Y22987000D03*
Y22606000D03*
X42481500Y25463500D03*
X41465500D03*
X40780000Y23640000D03*
X40767000Y22479000D03*
X40018000Y23640000D03*
X40005000Y22479000D03*
X39370000Y25146000D03*
Y24828500D03*
Y24511000D03*
Y24193500D03*
X38354000Y25146000D03*
Y24828500D03*
Y24511000D03*
Y24193500D03*
X37846000Y23304500D03*
%LPD*%
G75*
G54D10*
X37592000Y22225000D03*
Y23304500D03*
X38290500Y22225000D03*
X38989000D03*
X40005000D03*
X40767000D03*
X41910000Y22479000D03*
Y23177500D03*
X45847000Y25273000D03*
X46926500Y24003000D03*
X47053500Y24765000D03*
G54D11*
X37592000Y22479000D03*
X37846000Y23304500D03*
X38290500Y22479000D03*
X38354000Y24193500D03*
Y24511000D03*
Y24828500D03*
Y25146000D03*
X38989000Y22479000D03*
X39370000Y24193500D03*
Y24511000D03*
Y24828500D03*
Y25146000D03*
X40005000Y22479000D03*
X40018000Y23640000D03*
X40767000Y22479000D03*
X40780000Y23640000D03*
X41465500Y25463500D03*
X41910000Y22225000D03*
Y23431500D03*
X42862500Y22606000D03*
Y22987000D03*
X42850000Y23940000D03*
X42862500Y24320500D03*
X42850000Y24750000D03*
X42862500Y25146000D03*
Y25590500D03*
X42481500Y25463500D03*
X43878500Y22606000D03*
Y22987000D03*
X43866000Y23940000D03*
X43878500Y24320500D03*
X43866000Y24750000D03*
X43878500Y25146000D03*
Y25590500D03*
X45212000Y22161500D03*
X45194000Y22850000D03*
X46228000Y22161500D03*
X46210000Y22850000D03*
X46164500Y23749000D03*
Y24511000D03*
X45529500Y25273000D03*
X46230000Y25450000D03*
X46926500Y23749000D03*
X46799500Y24765000D03*
X47246000Y25450000D03*
G54D12*
X37338000Y24130000D03*
Y24384000D03*
Y24638000D03*
Y24892000D03*
X37592000Y25590500D03*
X37846000D03*
X38100000D03*
X38354000D03*
X44420000Y24044000D03*
Y24298000D03*
Y24552000D03*
Y24806000D03*
G54D13*
X37338000Y25146000D03*
X38608000Y25590500D03*
X44420000Y25060000D03*
G54D14*
X38989000Y22225000D03*
X40020300Y24305200D03*
X39814500Y24066500D03*
X39886900Y25010100D03*
X39687500Y25209500D03*
X40554400Y24003000D03*
X40894000Y24193500D03*
X40685200Y24429200D03*
X40525200Y24419500D03*
X40767000Y24511000D03*
X40765200Y24957300D03*
X40449500Y25336500D03*
X40765200D03*
X41402000Y23685500D03*
X41075600Y24202400D03*
Y25010100D03*
X41338500Y24892000D03*
X41148000Y25209500D03*
X41226490Y25287980D03*
X41338500Y25336500D03*
X42291000Y23177500D03*
X42354500Y23558500D03*
X42418000Y22987000D03*
X42037000Y23749000D03*
X42227500D03*
X41910000Y24892000D03*
X43434000Y23304500D03*
X44577000Y23431500D03*
X45148500Y23558500D03*
X45021500D03*
X44767500D03*
Y23368000D03*
D03*
X45275500D03*
X45402500Y24193500D03*
Y24320500D03*
X45080000D03*
X45402500Y24892000D03*
X45466000Y24511000D03*
X45320000D03*
X44831000Y25273000D03*
X45593000Y24892000D03*
X46482000Y22606000D03*
Y22415500D03*
X47053500Y22479000D03*
G54D15*
X46900000Y22067500D03*
Y23092500D03*
X47270000Y22067500D03*
Y23092500D03*
G54D16*
G01X39814500Y24066500D02*
X40520870D01*
X40525980Y24071610D01*
X40582820D01*
X40587930Y24066500D01*
X42037000D01*
X42354500Y23749000D01*
Y23558500D01*
G01X40020300Y24305200D02*
X40782300D01*
X40894000Y24193500D01*
G01X40554400Y24003000D02*
X41973500D01*
X42227500Y23749000D01*
G01X42037000D02*
X41973500D01*
X41910000Y23685500D01*
X41402000D01*
G01X41075600Y25010100D02*
Y24202400D01*
G01X41148000Y25082500D02*
X41211500Y25019000D01*
X42164000D01*
X42862500Y24320500D01*
G01X41338500Y24892000D02*
X42545000Y23685500D01*
Y23566850D01*
X42410850Y23432700D01*
X42353300D01*
X42164000Y23622000D01*
X41808400D01*
X41783000Y23596600D01*
Y23177500D01*
X41910000D01*
G01X41148000Y25209500D02*
Y25082500D01*
G01X45320000Y24511000D02*
X45264080D01*
X45188220Y24435140D01*
X42874860D01*
X42227500Y25082500D01*
X41148000D01*
G01X41226490Y25287980D02*
Y25194510D01*
X41275000Y25146000D01*
X42454000D01*
X42850000Y24750000D01*
G01X45466000Y24511000D02*
X45287860Y24689140D01*
X44391870D01*
X44277230Y24574500D01*
X43243500D01*
X42613610Y25204390D01*
X41310080D01*
X41226490Y25287980D01*
G01X41338500Y25336500D02*
X41402000Y25273000D01*
X42735500D01*
X42862500Y25146000D01*
G01X41910000Y22225000D02*
X42545000D01*
X42735500Y22415500D01*
Y23007310D01*
X42850000Y23121810D01*
Y23940000D01*
G01X42418000Y22987000D02*
Y23368000D01*
X42608500Y23558500D01*
Y23749000D01*
X41910000Y24447500D01*
Y24892000D01*
G01X42862500Y25146000D02*
X43065360Y24943140D01*
X44514540D01*
X44526900Y24955500D01*
X45339000D01*
X45402500Y24892000D01*
G01X44420000Y25060000D02*
X44282000D01*
X43942000Y25400000D01*
X43053000D01*
X42862500Y25590500D01*
G01X43878500D02*
X44513500D01*
X44831000Y25273000D01*
G01X45148500Y23558500D02*
X45037060Y23447060D01*
X44749530D01*
X44733970Y23431500D01*
X44577000D01*
G01X44767500Y23558500D02*
X45021500D01*
G01X45593000Y24892000D02*
X45529500D01*
X45275500Y25146000D01*
X44958000D01*
X44831000Y25273000D01*
G01X46144140Y22161500D02*
X46228000D01*
G01X46926500Y23749000D02*
X46164500D01*
G01X46799500Y24765000D02*
X46164500D01*
Y24511000D01*
G01X45847000Y25273000D02*
X46230000D01*
Y25450000D01*
G01X46228000Y22161500D02*
X46311860D01*
G01X46228000D02*
Y22245360D01*
G01Y22077640D02*
Y22161500D01*
G01X46482000Y22415500D02*
Y22606000D01*
G54D17*
G01X41910000Y22479000D02*
Y22796500D01*
X42291000Y23177500D01*
G01X42037000Y23431500D02*
X42291000Y23177500D01*
G01X43434000Y23304500D02*
Y23685500D01*
X43878500Y24130000D01*
X44334000D01*
X44420000Y24044000D01*
G54D18*
G01X37592000Y23304500D02*
Y22479000D01*
G01D02*
X38290500D01*
G01X37592000Y22225000D02*
X38290500D01*
G01X37338000Y24130000D02*
X37592000Y23876000D01*
Y23304500D01*
G01X37338000Y24130000D02*
X37208440Y24259560D01*
Y25473640D01*
X37325300Y25590500D01*
X37592000D01*
G01D02*
X37721560Y25720060D01*
X38707800D01*
X38710360Y25717500D01*
X39179500D01*
X39687500Y25209500D01*
G01X38290500Y22479000D02*
X38989000D01*
G01Y22225000D02*
X38290500D01*
G01X38989000Y22479000D02*
X39370000D01*
X39624000Y22225000D01*
X40005000D01*
G01D02*
X40767000D01*
G01X39687500Y25209500D02*
X39886900Y25010100D01*
G01X41910000Y22479000D02*
X41402000D01*
X41148000Y22225000D01*
X40767000D01*
G01X40525200Y24419500D02*
X40616700Y24511000D01*
X40767000D01*
G01D02*
X40685200Y24429200D01*
G01X40765200Y24957300D02*
Y24568720D01*
X40767000Y24566920D01*
Y24511000D01*
G01X40449500Y25336500D02*
X40504200Y25281800D01*
X40710500D01*
X40765200Y25336500D01*
G01X41910000Y23431500D02*
X42037000D01*
G01X43866000Y23940000D02*
X44501500Y23304500D01*
X44704000D01*
X44767500Y23368000D01*
G01X44420000Y24044000D02*
X44803500D01*
X45080000Y24320500D01*
G01X45212000Y22161500D02*
X45521500D01*
X46210000Y22850000D01*
G01X44767500Y23368000D02*
X45275500D01*
G01D02*
X45692000D01*
X46210000Y22850000D01*
G01X46926500Y24003000D02*
X46482000D01*
X45833220Y24651780D01*
X45733780D01*
X45402500Y24320500D01*
G01D02*
Y24193500D01*
G01X45080000Y24320500D02*
X45402500D01*
G01X46926500Y24003000D02*
Y24193500D01*
X47053500D01*
Y24765000D01*
G01Y22479000D02*
X47117000D01*
Y23812500D01*
X46926500Y24003000D01*
M02*
