G04 ================== begin FILE IDENTIFICATION RECORD ==================*
G04 Layout Name:  AVRUSB500_0729.brd*
G04 Film Name:    BOTTOM*
G04 File Format:  Gerber RS274X*
G04 File Origin:  Cadence Allegro 17.2-P019*
G04 Origin Date:  Mon Jul 29 16:18:18 2019*
G04 *
G04 Layer:  ETCH/BOTTOM*
G04 Layer:  PIN/BOTTOM*
G04 Layer:  VIA CLASS/BOTTOM*
G04 *
G04 Offset:    (0.0000 0.0000)*
G04 Mirror:    No*
G04 Mode:      Positive*
G04 Rotation:  0*
G04 FullContactRelief:  No*
G04 UndefLineWidth:     0.0000*
G04 ================== end FILE IDENTIFICATION RECORD ====================*
%FSLAX55Y55*MOMM*%
%IR0*IPPOS*OFA0.00000B0.00000*MIA0B0*SFA1.00000B1.00000*%
%ADD16O,1.8999X1.1999*%
%ADD15C,.6101*%
%ADD10C,.635*%
%ADD14C,1.3211*%
%ADD13R,1.3211X1.3211*%
%ADD11C,1.5751*%
%ADD12R,1.5751X1.5751*%
%ADD17C,.254*%
%ADD18C,.381*%
%ADD21C,2.0836*%
%ADD19R,5.0804X5.0804*%
%ADD22C,1.5756*%
%ADD20C,1.8296*%
G75*
%LPD*%
G75*
G36*
G01X37130010Y21890010D02*
Y25789990D01*
X37147480D01*
Y25272980D01*
X37655520D01*
Y25789990D01*
X47529990D01*
Y21890010D01*
X37654020D01*
Y22404020D01*
X37145980D01*
Y21890010D01*
X37130010D01*
G37*
%LPC*%
G75*
G36*
G01X46139120Y22438070D02*
Y22138930D01*
G02X46062880I-38120J-40930D01*
G01Y22438070D01*
G02X46139120I38120J40930D01*
G37*
G36*
G01X41227290Y22644120D02*
X41526980Y22344430D01*
X41529080D01*
G02X41473070Y22288420I-80J-55930D01*
G01Y22290520D01*
X41195710Y22567880D01*
X41125430D01*
G02Y22644120I-40930J38120D01*
G01X41227290D01*
G37*
G36*
G01X39806930Y24204630D02*
X41176940Y22834620D01*
X44370710D01*
X45005710Y23469620D01*
X45107570D01*
G02Y23393380I40930J-38120D01*
G01X45037290D01*
X44402290Y22758380D01*
X41145360D01*
X39753020Y24150720D01*
X39750920D01*
G02X39806930Y24206730I80J55930D01*
G01Y24204630D01*
G37*
G36*
G01X40060930Y24191480D02*
X40211290Y24041120D01*
X40782790D01*
X41341200Y23482710D01*
X41346460Y23487960D01*
X41346270Y23490310D01*
G02X41346070Y23494920I55729J4727D01*
G01Y23497020D01*
X40982880Y23860210D01*
Y24780790D01*
X41028570Y24826480D01*
Y24828580D01*
G02X41084580Y24772570I55930J-80D01*
G01X41082480D01*
X41059120Y24749210D01*
Y23891790D01*
X41138600Y23812310D01*
G03X41155880Y23818420I7179J7187D01*
G02X41173380Y23853430I55618J-5922D01*
G01Y25105070D01*
G02X41249620I38120J40930D01*
G01Y23853430D01*
G02X41217420Y23756880I-38118J-40932D01*
G03X41211310Y23739600I1077J-10101D01*
G01X41399980Y23550930D01*
X41402080D01*
G02X41407920Y23439380I-67J-55931D01*
G03X41401810Y23422100I1077J-10101D01*
G01X41735290Y23088620D01*
X44497710D01*
X45005710Y23596620D01*
X45298070D01*
G02Y23520380I40930J-38120D01*
G01X45037290D01*
X44529290Y23012380D01*
X41703710D01*
X40751210Y23964880D01*
X40179710D01*
X40007020Y24137570D01*
X40004920D01*
G02X40060930Y24193580I80J55930D01*
G01Y24191480D01*
G37*
G36*
G01X43134920Y23475970D02*
X43377930Y23232960D01*
X43379550Y23232690D01*
G02X43315310Y23168450I-9050J-55190D01*
G01X43315040Y23170070D01*
X43098080Y23387030D01*
X42578920D01*
G02Y23475970I-33920J44470D01*
G01X43134920D01*
G37*
G36*
G01X44243710Y23837880D02*
X43817020Y24264570D01*
X43814920D01*
G02X43870930Y24320580I80J55930D01*
G01Y24318480D01*
X44275290Y23914120D01*
X44561210D01*
X44878710Y24231620D01*
X44980570D01*
G02Y24155380I40930J-38120D01*
G01X44910290D01*
X44592790Y23837880D01*
X44243710D01*
G37*
G36*
G01X45220040Y24249570D02*
X45077570Y24392040D01*
X45075950Y24392310D01*
G02X45029580Y24455010I9051J55191D01*
G03X45019510Y24466530I-10070J1359D01*
G01X44991920D01*
G02Y24555470I-33920J44470D01*
G01X45384080D01*
X45765080Y24936470D01*
X46527080D01*
X46744040Y25153430D01*
X46744310Y25155050D01*
G02X46808550Y25090810I55190J-9050D01*
G01X46806930Y25090540D01*
X46563920Y24847530D01*
X45801920D01*
X45420920Y24466530D01*
X45139310D01*
Y24460860D01*
X45139450Y24460290D01*
G02X45140190Y24456550I-54464J-12720D01*
G01X45140460Y24454930D01*
X45282930Y24312460D01*
X45284550Y24312190D01*
G02X45220310Y24247950I-9050J-55190D01*
G01X45220040Y24249570D01*
G37*
G36*
G01X43880520Y25328930D02*
X43989710Y25438120D01*
X44823120D01*
X45267620Y24993620D01*
X45307570D01*
G02Y24917380I40930J-38120D01*
G01X45276310D01*
G03X45266430Y24904880I5J-10159D01*
G02X45156070Y24891920I-54429J-12875D01*
G01Y24894020D01*
X44815210Y25234880D01*
X44338790D01*
X43980120Y24876210D01*
Y24678930D01*
G02X43903880I-38120J-40930D01*
G01Y24907790D01*
X44307210Y25311120D01*
X44817770D01*
G03X44824960Y25328460I2J10160D01*
G01X44791540Y25361880D01*
X44021290D01*
X43934430Y25275020D01*
Y25272920D01*
G02X43878420Y25328930I-55930J80D01*
G01X43880520D01*
G37*
G36*
G01X37881520Y22158940D02*
Y22291060D01*
G02X37906940Y22316480I25425J-5D01*
G01X38039060D01*
G02X38064480Y22291060I-5J-25425D01*
G01Y22158940D01*
G02X38039060Y22133520I-25425J5D01*
G01X37906940D01*
G02X37881520Y22158940I5J25425D01*
G37*
G36*
G01X38580020D02*
Y22291060D01*
G02X38605440Y22316480I25425J-5D01*
G01X38737560D01*
G02X38762980Y22291060I-5J-25425D01*
G01Y22158940D01*
G02X38737560Y22133520I-25425J5D01*
G01X38605440D01*
G02X38580020Y22158940I5J25425D01*
G37*
G36*
G01X39278520D02*
Y22291060D01*
G02X39303940Y22316480I25425J-5D01*
G01X39436060D01*
G02X39461480Y22291060I-5J-25425D01*
G01Y22158940D01*
G02X39436060Y22133520I-25425J5D01*
G01X39303940D01*
G02X39278520Y22158940I5J25425D01*
G37*
G36*
G01X38757820Y25384740D02*
Y25542260D01*
G02X38783240Y25567680I25425J-5D01*
G01X38940760D01*
G02X38966180Y25542260I-5J-25425D01*
G01Y25384740D01*
G02X38940760Y25359320I-25425J5D01*
G01X38783240D01*
G02X38757820Y25384740I5J25425D01*
G37*
G36*
G01X44315820Y24981240D02*
Y25138760D01*
G02X44341240Y25164180I25425J-5D01*
G01X44498760D01*
G02X44524180Y25138760I-5J-25425D01*
G01Y24981240D01*
G02X44498760Y24955820I-25425J5D01*
G01X44341240D01*
G02X44315820Y24981240I5J25425D01*
G37*
G36*
G01X45868520Y25383940D02*
Y25516060D01*
G02X45893940Y25541480I25425J-5D01*
G01X46026060D01*
G02X46051480Y25516060I-5J-25425D01*
G01Y25383940D01*
G02X46026060Y25358520I-25425J5D01*
G01X45893940D01*
G02X45868520Y25383940I5J25425D01*
G37*
G36*
G01X46357000Y22109080D02*
G02Y22279920I0J85420D01*
G01X46427000D01*
G02Y22109080I0J-85420D01*
G01X46357000D01*
G37*
G36*
G01X46727000D02*
G02Y22279920I0J85420D01*
G01X46797000D01*
G02Y22109080I0J-85420D01*
G01X46727000D01*
G37*
G36*
G01X46357000Y23134080D02*
G02Y23304920I0J85420D01*
G01X46427000D01*
G02Y23134080I0J-85420D01*
G01X46357000D01*
G37*
G36*
G01X46727000D02*
G02Y23304920I0J85420D01*
G01X46797000D01*
G02Y23134080I0J-85420D01*
G01X46727000D01*
G37*
G36*
G01X37233820Y25003740D02*
Y25161260D01*
G02X37259240Y25186680I25425J-5D01*
G01X37416760D01*
G02X37442180Y25161260I-5J-25425D01*
G01Y25003740D01*
G02X37416760Y24978320I-25425J5D01*
G01X37259240D01*
G02X37233820Y25003740I5J25425D01*
G37*
G36*
G01X46738030Y22496830D02*
X46761380Y22520190D01*
Y22666670D01*
G02X46837620I38120J40930D01*
G01Y22488610D01*
X46791930Y22442930D01*
Y22440830D01*
G02X46735930Y22496830I-55930J70D01*
G01X46738030D01*
G37*
G54D21*
X44420000Y24806000D03*
Y24552000D03*
Y24298000D03*
X38608000Y25463500D03*
X38354000D03*
X38100000D03*
X37338000Y24828500D03*
Y24574500D03*
Y24320500D03*
G54D19*
X47250000Y22170000D03*
X47260000Y25500000D03*
G54D22*
X39370000Y22479000D03*
X38671500D03*
X37973000D03*
G54D20*
X45642500Y25450000D03*
X46164500Y24511000D03*
Y23749000D03*
X44420000Y24044000D03*
X40780000Y23640000D03*
X40018000D03*
X37846000Y25463500D03*
X37338000Y24066500D03*
%LPD*%
G75*
G54D10*
X37400000Y22150000D03*
X37401500Y25527000D03*
X47250000Y22170000D03*
X47260000Y25500000D03*
G54D11*
X37338000Y24066500D03*
Y24320500D03*
Y24574500D03*
Y24828500D03*
X37846000Y25463500D03*
X38608000D03*
X38354000D03*
X38100000D03*
X44420000Y24044000D03*
Y24298000D03*
Y24552000D03*
Y24806000D03*
G54D12*
X37338000Y25082500D03*
X38862000Y25463500D03*
X44420000Y25060000D03*
G54D13*
X37973000Y22225000D03*
X38671500D03*
X39370000D03*
X45960000Y25450000D03*
G54D14*
X37973000Y22479000D03*
X38671500D03*
X39370000D03*
X40018000Y23640000D03*
X40780000D03*
X46164500Y23749000D03*
Y24511000D03*
X45642500Y25450000D03*
G54D15*
X40005000Y24193500D03*
X39751000Y24206650D03*
X41529000Y22288500D03*
X41084500Y22606000D03*
X41402000Y23495000D03*
X41211500Y23812500D03*
X41084500Y24828500D03*
X41211500Y25146000D03*
X42545000Y23431500D03*
X43370500Y23177500D03*
X43815000Y24320500D03*
X43942000Y24638000D03*
X43878500Y25273000D03*
X45339000Y23558500D03*
X45148500Y23431500D03*
X45021500Y24193500D03*
X45275500Y24257000D03*
X45348500Y24955500D03*
X45212000Y24892000D03*
X45085000Y24447500D03*
X44958000Y24511000D03*
X46101000Y22479000D03*
Y22098000D03*
X46736000Y22440900D03*
X46799500Y22707600D03*
Y25146000D03*
G54D16*
X46392000Y22194500D03*
X46762000D03*
X46392000Y23219500D03*
X46762000D03*
G54D17*
G01X45339000Y23558500D02*
X45021500D01*
X44513500Y23050500D01*
X41719500D01*
X40767000Y24003000D01*
X40195500D01*
X40005000Y24193500D01*
G01X45148500Y23431500D02*
X45021500D01*
X44386500Y22796500D01*
X41161150D01*
X39751000Y24206650D01*
G01X41084500Y22606000D02*
X41211500D01*
X41529000Y22288500D01*
G01X41402000Y23495000D02*
X41021000Y23876000D01*
Y24765000D01*
X41084500Y24828500D01*
G01X41211500Y23812500D02*
Y25146000D01*
G01X43815000Y24320500D02*
X44259500Y23876000D01*
X44577000D01*
X44894500Y24193500D01*
X45021500D01*
G01X43878500Y25273000D02*
X44005500Y25400000D01*
X44807330D01*
X45251830Y24955500D01*
X45348500D01*
G01X43942000Y24638000D02*
Y24892000D01*
X44323000Y25273000D01*
X44831000D01*
X45212000Y24892000D01*
G01X46101000Y22479000D02*
Y22098000D01*
G01X46799500Y22707600D02*
Y22504400D01*
X46736000Y22440900D01*
G54D18*
G01X37338000Y24066500D02*
X37434560D01*
G01X37241440D02*
X37338000D01*
G01D02*
Y24163060D01*
G01Y23969940D02*
Y24066500D01*
G01X37749440Y25463500D02*
X37846000D01*
G01X37973000Y22479000D02*
X38056860D01*
G01X37889140D02*
X37973000D01*
G01D02*
Y22562860D01*
G01Y22395140D02*
Y22479000D01*
G01X38587640D02*
X38671500D01*
G01X37846000Y25463500D02*
X37942560D01*
G01X37846000D02*
Y25560060D01*
G01Y25366940D02*
Y25463500D01*
G01X38671500Y22479000D02*
X38755360D01*
G01X38671500D02*
Y22562860D01*
G01Y22395140D02*
Y22479000D01*
G01X39286140D02*
X39370000D01*
G01D02*
X39453860D01*
G01X39370000D02*
Y22562860D01*
G01Y22395140D02*
Y22479000D01*
G01X42545000Y23431500D02*
X43116500D01*
X43370500Y23177500D01*
G01X44420000Y24044000D02*
X44516560D01*
G01X44323440D02*
X44420000D01*
G01D02*
Y24140560D01*
G01Y23947440D02*
Y24044000D01*
G01X45275500Y24257000D02*
X45085000Y24447500D01*
G01X46799500Y25146000D02*
X46545500Y24892000D01*
X45783500D01*
X45402500Y24511000D01*
X44958000D01*
M02*
