G04 ================== begin FILE IDENTIFICATION RECORD ==================*
G04 Layout Name:  c:/Users/user/Desktop/exam/avrusb500/allegro/micro_usb.brd*
G04 Film Name:    DrillDraw*
G04 File Format:  Gerber RS274X*
G04 File Origin:  Cadence Allegro 16.6-S034*
G04 Origin Date:  Fri Jul 19 12:48:04 2019*
G04 *
G04 Layer:  MANUFACTURING/NCLEGEND-1-2*
G04 Layer:  BOARD GEOMETRY/OUTLINE*
G04 *
G04 Offset:    (0.0000 0.0000)*
G04 Mirror:    No*
G04 Mode:      Positive*
G04 Rotation:  0*
G04 FullContactRelief:  No*
G04 UndefLineWidth:     0.0000*
G04 ================== end FILE IDENTIFICATION RECORD ====================*
%FSLAX55Y55*MOMM*%
%IR0*IPPOS*OFA0.00000B0.00000*MIA0B0*SFA1.00000B1.00000*%
%AMMACRO12*
1,1,0.0,-.44995,.25005*
20,1,0.0,-.44995,.25005,.44995,.25005,0.0*
1,1,0.0,.44995,.25005*
20,1,0.0,.44995,.25005,.493371,.246251,0.0*
1,1,0.0,.493371,.246251*
20,1,0.0,.493371,.246251,.535472,.23497,0.0*
1,1,0.0,.535472,.23497*
20,1,0.0,.535472,.23497,.574975,.21655,0.0*
1,1,0.0,.574975,.21655*
20,1,0.0,.574975,.21655,.610679,.191549,0.0*
1,1,0.0,.610679,.191549*
20,1,0.0,.610679,.191549,.641499,.160729,0.0*
1,1,0.0,.641499,.160729*
20,1,0.0,.641499,.160729,.6665,.125025,0.0*
1,1,0.0,.6665,.125025*
20,1,0.0,.6665,.125025,.68492,.085522,0.0*
1,1,0.0,.68492,.085522*
20,1,0.0,.68492,.085522,.696201,.043421,0.0*
1,1,0.0,.696201,.043421*
20,1,0.0,.696201,.043421,.7,0.0,0.0*
1,1,0.0,.7,0.0*
20,1,0.0,.7,0.0,.696201,-.043421,0.0*
1,1,0.0,.696201,-.043421*
20,1,0.0,.696201,-.043421,.68492,-.085522,0.0*
1,1,0.0,.68492,-.085522*
20,1,0.0,.68492,-.085522,.6665,-.125025,0.0*
1,1,0.0,.6665,-.125025*
20,1,0.0,.6665,-.125025,.641499,-.160729,0.0*
1,1,0.0,.641499,-.160729*
20,1,0.0,.641499,-.160729,.610679,-.191549,0.0*
1,1,0.0,.610679,-.191549*
20,1,0.0,.610679,-.191549,.574975,-.21655,0.0*
1,1,0.0,.574975,-.21655*
20,1,0.0,.574975,-.21655,.535472,-.23497,0.0*
1,1,0.0,.535472,-.23497*
20,1,0.0,.535472,-.23497,.493371,-.246251,0.0*
1,1,0.0,.493371,-.246251*
20,1,0.0,.493371,-.246251,.44995,-.25005,0.0*
1,1,0.0,.44995,-.25005*
20,1,0.0,.44995,-.25005,-.44995,-.25005,0.0*
1,1,0.0,-.44995,-.25005*
20,1,0.0,-.44995,-.25005,-.493371,-.246251,0.0*
1,1,0.0,-.493371,-.246251*
20,1,0.0,-.493371,-.246251,-.535472,-.23497,0.0*
1,1,0.0,-.535472,-.23497*
20,1,0.0,-.535472,-.23497,-.574975,-.21655,0.0*
1,1,0.0,-.574975,-.21655*
20,1,0.0,-.574975,-.21655,-.610679,-.191549,0.0*
1,1,0.0,-.610679,-.191549*
20,1,0.0,-.610679,-.191549,-.641499,-.160729,0.0*
1,1,0.0,-.641499,-.160729*
20,1,0.0,-.641499,-.160729,-.6665,-.125025,0.0*
1,1,0.0,-.6665,-.125025*
20,1,0.0,-.6665,-.125025,-.68492,-.085522,0.0*
1,1,0.0,-.68492,-.085522*
20,1,0.0,-.68492,-.085522,-.696201,-.043421,0.0*
1,1,0.0,-.696201,-.043421*
20,1,0.0,-.696201,-.043421,-.7,0.0,0.0*
1,1,0.0,-.7,0.0*
20,1,0.0,-.7,0.0,-.696201,.043421,0.0*
1,1,0.0,-.696201,.043421*
20,1,0.0,-.696201,.043421,-.68492,.085522,0.0*
1,1,0.0,-.68492,.085522*
20,1,0.0,-.68492,.085522,-.6665,.125025,0.0*
1,1,0.0,-.6665,.125025*
20,1,0.0,-.6665,.125025,-.641499,.160729,0.0*
1,1,0.0,-.641499,.160729*
20,1,0.0,-.641499,.160729,-.610679,.191549,0.0*
1,1,0.0,-.610679,.191549*
20,1,0.0,-.610679,.191549,-.574975,.21655,0.0*
1,1,0.0,-.574975,.21655*
20,1,0.0,-.574975,.21655,-.535472,.23497,0.0*
1,1,0.0,-.535472,.23497*
20,1,0.0,-.535472,.23497,-.493371,.246251,0.0*
1,1,0.0,-.493371,.246251*
20,1,0.0,-.493371,.246251,-.44995,.25005,0.0*
1,1,0.0,-.44995,.25005*
%
%ADD12MACRO12*%
%AMMACRO13*
1,1,0.0,.635,0.0*
20,1,0.0,.635,0.0,.625353,-.110267,0.0*
1,1,0.0,.625353,-.110267*
20,1,0.0,.625353,-.110267,.596705,-.217183,0.0*
1,1,0.0,.596705,-.217183*
20,1,0.0,.596705,-.217183,.549926,-.3175,0.0*
1,1,0.0,.549926,-.3175*
20,1,0.0,.549926,-.3175,.486438,-.40817,0.0*
1,1,0.0,.486438,-.40817*
20,1,0.0,.486438,-.40817,.40817,-.486438,0.0*
1,1,0.0,.40817,-.486438*
20,1,0.0,.40817,-.486438,.3175,-.549926,0.0*
1,1,0.0,.3175,-.549926*
20,1,0.0,.3175,-.549926,.217183,-.596705,0.0*
1,1,0.0,.217183,-.596705*
20,1,0.0,.217183,-.596705,.110267,-.625353,0.0*
1,1,0.0,.110267,-.625353*
20,1,0.0,.110267,-.625353,0.0,-.635,0.0*
1,1,0.0,0.0,-.635*
20,1,0.0,0.0,-.635,-.110267,-.625353,0.0*
1,1,0.0,-.110267,-.625353*
20,1,0.0,-.110267,-.625353,-.217183,-.596705,0.0*
1,1,0.0,-.217183,-.596705*
20,1,0.0,-.217183,-.596705,-.3175,-.549926,0.0*
1,1,0.0,-.3175,-.549926*
20,1,0.0,-.3175,-.549926,-.40817,-.486438,0.0*
1,1,0.0,-.40817,-.486438*
20,1,0.0,-.40817,-.486438,-.486438,-.40817,0.0*
1,1,0.0,-.486438,-.40817*
20,1,0.0,-.486438,-.40817,-.549926,-.3175,0.0*
1,1,0.0,-.549926,-.3175*
20,1,0.0,-.549926,-.3175,-.596705,-.217183,0.0*
1,1,0.0,-.596705,-.217183*
20,1,0.0,-.596705,-.217183,-.625353,-.110267,0.0*
1,1,0.0,-.625353,-.110267*
20,1,0.0,-.625353,-.110267,-.635,0.0,0.0*
1,1,0.0,-.635,0.0*
20,1,0.0,-.635,0.0,-.625353,.110267,0.0*
1,1,0.0,-.625353,.110267*
20,1,0.0,-.625353,.110267,-.596705,.217183,0.0*
1,1,0.0,-.596705,.217183*
20,1,0.0,-.596705,.217183,-.549926,.3175,0.0*
1,1,0.0,-.549926,.3175*
20,1,0.0,-.549926,.3175,-.486438,.40817,0.0*
1,1,0.0,-.486438,.40817*
20,1,0.0,-.486438,.40817,-.40817,.486438,0.0*
1,1,0.0,-.40817,.486438*
20,1,0.0,-.40817,.486438,-.3175,.549926,0.0*
1,1,0.0,-.3175,.549926*
20,1,0.0,-.3175,.549926,-.217183,.596705,0.0*
1,1,0.0,-.217183,.596705*
20,1,0.0,-.217183,.596705,-.110267,.625353,0.0*
1,1,0.0,-.110267,.625353*
20,1,0.0,-.110267,.625353,0.0,.635,0.0*
1,1,0.0,0.0,.635*
20,1,0.0,0.0,.635,.110267,.625353,0.0*
1,1,0.0,.110267,.625353*
20,1,0.0,.110267,.625353,.217183,.596705,0.0*
1,1,0.0,.217183,.596705*
20,1,0.0,.217183,.596705,.3175,.549926,0.0*
1,1,0.0,.3175,.549926*
20,1,0.0,.3175,.549926,.40817,.486438,0.0*
1,1,0.0,.40817,.486438*
20,1,0.0,.40817,.486438,.486438,.40817,0.0*
1,1,0.0,.486438,.40817*
20,1,0.0,.486438,.40817,.549926,.3175,0.0*
1,1,0.0,.549926,.3175*
20,1,0.0,.549926,.3175,.596705,.217183,0.0*
1,1,0.0,.596705,.217183*
20,1,0.0,.596705,.217183,.625353,.110267,0.0*
1,1,0.0,.625353,.110267*
20,1,0.0,.625353,.110267,.635,0.0,0.0*
1,1,0.0,.635,0.0*
1,1,0.0,.3175,0.0*
20,1,0.0,.3175,0.0,-.3175,0.0,0.0*
1,1,0.0,-.3175,0.0*
1,1,0.0,0.0,.3175*
20,1,0.0,0.0,.3175,0.0,-.3175,0.0*
1,1,0.0,0.0,-.3175*
%
%ADD13MACRO13*%
%AMMACRO11*
1,1,0.0,.533,0.0*
20,1,0.0,.533,0.0,.524903,-.092554,0.0*
1,1,0.0,.524903,-.092554*
20,1,0.0,.524903,-.092554,.500856,-.182297,0.0*
1,1,0.0,.500856,-.182297*
20,1,0.0,.500856,-.182297,.461592,-.2665,0.0*
1,1,0.0,.461592,-.2665*
20,1,0.0,.461592,-.2665,.408302,-.342606,0.0*
1,1,0.0,.408302,-.342606*
20,1,0.0,.408302,-.342606,.342606,-.408302,0.0*
1,1,0.0,.342606,-.408302*
20,1,0.0,.342606,-.408302,.2665,-.461592,0.0*
1,1,0.0,.2665,-.461592*
20,1,0.0,.2665,-.461592,.182297,-.500856,0.0*
1,1,0.0,.182297,-.500856*
20,1,0.0,.182297,-.500856,.092554,-.524903,0.0*
1,1,0.0,.092554,-.524903*
20,1,0.0,.092554,-.524903,0.0,-.533,0.0*
1,1,0.0,0.0,-.533*
20,1,0.0,0.0,-.533,-.092554,-.524903,0.0*
1,1,0.0,-.092554,-.524903*
20,1,0.0,-.092554,-.524903,-.182297,-.500856,0.0*
1,1,0.0,-.182297,-.500856*
20,1,0.0,-.182297,-.500856,-.2665,-.461592,0.0*
1,1,0.0,-.2665,-.461592*
20,1,0.0,-.2665,-.461592,-.342606,-.408302,0.0*
1,1,0.0,-.342606,-.408302*
20,1,0.0,-.342606,-.408302,-.408302,-.342606,0.0*
1,1,0.0,-.408302,-.342606*
20,1,0.0,-.408302,-.342606,-.461592,-.2665,0.0*
1,1,0.0,-.461592,-.2665*
20,1,0.0,-.461592,-.2665,-.500856,-.182297,0.0*
1,1,0.0,-.500856,-.182297*
20,1,0.0,-.500856,-.182297,-.524903,-.092554,0.0*
1,1,0.0,-.524903,-.092554*
20,1,0.0,-.524903,-.092554,-.533,0.0,0.0*
1,1,0.0,-.533,0.0*
20,1,0.0,-.533,0.0,-.524903,.092554,0.0*
1,1,0.0,-.524903,.092554*
20,1,0.0,-.524903,.092554,-.500856,.182297,0.0*
1,1,0.0,-.500856,.182297*
20,1,0.0,-.500856,.182297,-.461592,.2665,0.0*
1,1,0.0,-.461592,.2665*
20,1,0.0,-.461592,.2665,-.408302,.342606,0.0*
1,1,0.0,-.408302,.342606*
20,1,0.0,-.408302,.342606,-.342606,.408302,0.0*
1,1,0.0,-.342606,.408302*
20,1,0.0,-.342606,.408302,-.2665,.461592,0.0*
1,1,0.0,-.2665,.461592*
20,1,0.0,-.2665,.461592,-.182297,.500856,0.0*
1,1,0.0,-.182297,.500856*
20,1,0.0,-.182297,.500856,-.092554,.524903,0.0*
1,1,0.0,-.092554,.524903*
20,1,0.0,-.092554,.524903,0.0,.533,0.0*
1,1,0.0,0.0,.533*
20,1,0.0,0.0,.533,.092554,.524903,0.0*
1,1,0.0,.092554,.524903*
20,1,0.0,.092554,.524903,.182297,.500856,0.0*
1,1,0.0,.182297,.500856*
20,1,0.0,.182297,.500856,.2665,.461592,0.0*
1,1,0.0,.2665,.461592*
20,1,0.0,.2665,.461592,.342606,.408302,0.0*
1,1,0.0,.342606,.408302*
20,1,0.0,.342606,.408302,.408302,.342606,0.0*
1,1,0.0,.408302,.342606*
20,1,0.0,.408302,.342606,.461592,.2665,0.0*
1,1,0.0,.461592,.2665*
20,1,0.0,.461592,.2665,.500856,.182297,0.0*
1,1,0.0,.500856,.182297*
20,1,0.0,.500856,.182297,.524903,.092554,0.0*
1,1,0.0,.524903,.092554*
20,1,0.0,.524903,.092554,.533,0.0,0.0*
1,1,0.0,.533,0.0*
1,1,0.0,-.2221,-.2665*
20,1,0.0,-.2221,-.2665,0.0,.2665,0.0*
1,1,0.0,0.0,.2665*
20,1,0.0,0.0,.2665,.2221,-.2665,0.0*
1,1,0.0,.2221,-.2665*
1,1,0.0,.1421,-.08*
20,1,0.0,.1421,-.08,-.1421,-.08,0.0*
1,1,0.0,-.1421,-.08*
%
%ADD11MACRO11*%
%AMMACRO10*
1,1,0.0,.39345,0.0*
20,1,0.0,.39345,0.0,.387473,-.068322,0.0*
1,1,0.0,.387473,-.068322*
20,1,0.0,.387473,-.068322,.369722,-.134568,0.0*
1,1,0.0,.369722,-.134568*
20,1,0.0,.369722,-.134568,.340738,-.196725,0.0*
1,1,0.0,.340738,-.196725*
20,1,0.0,.340738,-.196725,.3014,-.252905,0.0*
1,1,0.0,.3014,-.252905*
20,1,0.0,.3014,-.252905,.252905,-.3014,0.0*
1,1,0.0,.252905,-.3014*
20,1,0.0,.252905,-.3014,.196725,-.340738,0.0*
1,1,0.0,.196725,-.340738*
20,1,0.0,.196725,-.340738,.134568,-.369722,0.0*
1,1,0.0,.134568,-.369722*
20,1,0.0,.134568,-.369722,.068322,-.387473,0.0*
1,1,0.0,.068322,-.387473*
20,1,0.0,.068322,-.387473,0.0,-.39345,0.0*
1,1,0.0,0.0,-.39345*
20,1,0.0,0.0,-.39345,-.068322,-.387473,0.0*
1,1,0.0,-.068322,-.387473*
20,1,0.0,-.068322,-.387473,-.134568,-.369722,0.0*
1,1,0.0,-.134568,-.369722*
20,1,0.0,-.134568,-.369722,-.196725,-.340738,0.0*
1,1,0.0,-.196725,-.340738*
20,1,0.0,-.196725,-.340738,-.252905,-.3014,0.0*
1,1,0.0,-.252905,-.3014*
20,1,0.0,-.252905,-.3014,-.3014,-.252905,0.0*
1,1,0.0,-.3014,-.252905*
20,1,0.0,-.3014,-.252905,-.340738,-.196725,0.0*
1,1,0.0,-.340738,-.196725*
20,1,0.0,-.340738,-.196725,-.369722,-.134568,0.0*
1,1,0.0,-.369722,-.134568*
20,1,0.0,-.369722,-.134568,-.387473,-.068322,0.0*
1,1,0.0,-.387473,-.068322*
20,1,0.0,-.387473,-.068322,-.39345,0.0,0.0*
1,1,0.0,-.39345,0.0*
20,1,0.0,-.39345,0.0,-.387473,.068322,0.0*
1,1,0.0,-.387473,.068322*
20,1,0.0,-.387473,.068322,-.369722,.134568,0.0*
1,1,0.0,-.369722,.134568*
20,1,0.0,-.369722,.134568,-.340738,.196725,0.0*
1,1,0.0,-.340738,.196725*
20,1,0.0,-.340738,.196725,-.3014,.252905,0.0*
1,1,0.0,-.3014,.252905*
20,1,0.0,-.3014,.252905,-.252905,.3014,0.0*
1,1,0.0,-.252905,.3014*
20,1,0.0,-.252905,.3014,-.196725,.340738,0.0*
1,1,0.0,-.196725,.340738*
20,1,0.0,-.196725,.340738,-.134568,.369722,0.0*
1,1,0.0,-.134568,.369722*
20,1,0.0,-.134568,.369722,-.068322,.387473,0.0*
1,1,0.0,-.068322,.387473*
20,1,0.0,-.068322,.387473,0.0,.39345,0.0*
1,1,0.0,0.0,.39345*
20,1,0.0,0.0,.39345,.068322,.387473,0.0*
1,1,0.0,.068322,.387473*
20,1,0.0,.068322,.387473,.134568,.369722,0.0*
1,1,0.0,.134568,.369722*
20,1,0.0,.134568,.369722,.196725,.340738,0.0*
1,1,0.0,.196725,.340738*
20,1,0.0,.196725,.340738,.252905,.3014,0.0*
1,1,0.0,.252905,.3014*
20,1,0.0,.252905,.3014,.3014,.252905,0.0*
1,1,0.0,.3014,.252905*
20,1,0.0,.3014,.252905,.340738,.196725,0.0*
1,1,0.0,.340738,.196725*
20,1,0.0,.340738,.196725,.369722,.134568,0.0*
1,1,0.0,.369722,.134568*
20,1,0.0,.369722,.134568,.387473,.068322,0.0*
1,1,0.0,.387473,.068322*
20,1,0.0,.387473,.068322,.39345,0.0,0.0*
1,1,0.0,.39345,0.0*
1,1,0.0,-.1639,-.1967*
20,1,0.0,-.1639,-.1967,0.0,.1967,0.0*
1,1,0.0,0.0,.1967*
20,1,0.0,0.0,.1967,.1639,-.1967,0.0*
1,1,0.0,.1639,-.1967*
1,1,0.0,.1049,-.059*
20,1,0.0,.1049,-.059,-.1049,-.059,0.0*
1,1,0.0,-.1049,-.059*
%
%ADD10MACRO10*%
%LPD*%
G75*
G54D10*
X37053200Y26579770D03*
X37592000Y22225000D03*
Y22479000D03*
Y23304500D03*
X37846000D03*
X38290500Y22225000D03*
Y22479000D03*
X38354000Y24193500D03*
Y24511000D03*
Y24828500D03*
Y25146000D03*
X38989000Y22225000D03*
Y22479000D03*
X39370000Y24193500D03*
Y24511000D03*
Y24828500D03*
Y25146000D03*
X40005000Y22225000D03*
Y22479000D03*
X40018000Y23640000D03*
X40767000Y22225000D03*
Y22479000D03*
X40780000Y23640000D03*
X41465500Y25463500D03*
X41910000Y22479000D03*
Y22225000D03*
Y23177500D03*
Y23431500D03*
X42862500Y22606000D03*
Y22987000D03*
X42850000Y23940000D03*
X42862500Y24320500D03*
X42850000Y24750000D03*
X42862500Y25146000D03*
Y25590500D03*
X42481500Y25463500D03*
X43878500Y22606000D03*
Y22987000D03*
X43866000Y23940000D03*
X43878500Y24320500D03*
X43866000Y24750000D03*
X43878500Y25146000D03*
Y25590500D03*
X45212000Y22161500D03*
X45194000Y22850000D03*
X46228000Y22161500D03*
X46210000Y22850000D03*
X46164500Y23749000D03*
Y24511000D03*
X45847000Y25273000D03*
X45529500D03*
X46230000Y25450000D03*
X46926500Y24003000D03*
Y23749000D03*
X46799500Y24765000D03*
X47053500D03*
X47246000Y25450000D03*
G54D11*
X37053200Y26389270D03*
X37338000Y24130000D03*
Y24384000D03*
Y24638000D03*
Y24892000D03*
X37592000Y25590500D03*
X37846000D03*
X37338000Y25146000D03*
X38100000Y25590500D03*
X38354000D03*
X38608000D03*
X44420000Y24044000D03*
Y24298000D03*
Y24552000D03*
Y24806000D03*
Y25060000D03*
G54D12*
X37053200Y26198770D03*
X46900000Y22067500D03*
Y23092500D03*
X47270000Y22067500D03*
Y23092500D03*
G54D13*
X37053200Y26770270D03*
X38989000Y22225000D03*
X40020300Y24305200D03*
X39814500Y24066500D03*
X39886900Y25010100D03*
X39687500Y25209500D03*
X40894000Y24193500D03*
X40554400Y24003000D03*
X40685200Y24429200D03*
X40525200Y24419500D03*
X40767000Y24511000D03*
X40765200Y24957300D03*
Y25336500D03*
X40449500D03*
X41402000Y23685500D03*
X41075600Y24202400D03*
Y25010100D03*
X41338500Y24892000D03*
Y25336500D03*
X41226490Y25287980D03*
X41148000Y25209500D03*
X42354500Y23558500D03*
X42291000Y23177500D03*
X42418000Y22987000D03*
X42037000Y23749000D03*
X42227500D03*
X41910000Y24892000D03*
X43434000Y23304500D03*
X44577000Y23431500D03*
X45148500Y23558500D03*
X45021500D03*
X44767500D03*
Y23368000D03*
X45275500D03*
X45080000Y24320500D03*
X45402500D03*
Y24193500D03*
Y24892000D03*
X45466000Y24511000D03*
X45320000D03*
X44831000Y25273000D03*
X45593000Y24892000D03*
X46482000Y22606000D03*
Y22415500D03*
X47053500Y22479000D03*
M02*
