G04 ================== begin FILE IDENTIFICATION RECORD ==================*
G04 Layout Name:  AVRUSB500_0729.brd*
G04 Film Name:    SilkT*
G04 File Format:  Gerber RS274X*
G04 File Origin:  Cadence Allegro 17.2-P019*
G04 Origin Date:  Mon Jul 29 16:18:17 2019*
G04 *
G04 Layer:  REF DES/SILKSCREEN_TOP*
G04 Layer:  PACKAGE GEOMETRY/SILKSCREEN_TOP*
G04 Layer:  BOARD GEOMETRY/SILKSCREEN_TOP*
G04 *
G04 Offset:    (0.0000 0.0000)*
G04 Mirror:    No*
G04 Mode:      Positive*
G04 Rotation:  0*
G04 FullContactRelief:  No*
G04 UndefLineWidth:     0.2000*
G04 ================== end FILE IDENTIFICATION RECORD ====================*
%FSLAX55Y55*MOMM*%
%IR0*IPPOS*OFA0.00000B0.00000*MIA0B0*SFA1.00000B1.00000*%
%ADD10C,.203*%
%ADD11C,.254*%
%ADD12C,.1524*%
%ADD13C,.2*%
G75*
%LPD*%
G75*
G54D10*
G01X38258700Y22352000D02*
G02I-285700J0D01*
G01X37465000Y23926800D02*
X37211000D01*
G01X37465000Y25222200D02*
Y23926800D01*
G01X37211000Y24066500D02*
Y24320500D01*
G01Y23926800D02*
Y24066500D01*
G01Y24828500D02*
Y25082500D01*
G01Y24574500D02*
Y24828500D01*
G01Y24320500D02*
Y24574500D01*
G01Y25222200D02*
X37465000D01*
G01X37211000Y25082500D02*
Y25222200D01*
G01X37706300Y25590500D02*
X37846000D01*
G01X39001700Y25336500D02*
X37706300D01*
G01D02*
Y25590500D01*
G01X38957200Y22352000D02*
G02I-285700J0D01*
G01X37846000Y25590500D02*
X38100000D01*
G01D02*
X38354000D01*
G01D02*
X38608000D01*
G01X39655700Y22352000D02*
G02I-285700J0D01*
G01X38608000Y25590500D02*
X38862000D01*
G01D02*
X39001700D01*
G01D02*
Y25336500D01*
G01X40970500Y23386000D02*
X39827500D01*
G01D02*
Y23894000D01*
G01D02*
X40970500D01*
G01D02*
Y23386000D01*
G01X44547000Y23904300D02*
X44293000D01*
G01X44547000Y25199700D02*
Y23904300D01*
G01X44293000Y24298000D02*
Y24552000D01*
G01Y24044000D02*
Y24298000D01*
G01Y23904300D02*
Y24044000D01*
G01Y25060000D02*
Y25199700D01*
G01Y24806000D02*
Y25060000D01*
G01Y24552000D02*
Y24806000D01*
G01Y25199700D02*
X44547000D01*
G01X45910500Y23558500D02*
Y24701500D01*
G01X46418500Y23558500D02*
X45910500D01*
G01Y24701500D02*
X46418500D01*
G01X46118700Y25450000D02*
G02X45801300Y25132500I-317400J-100D01*
G02Y25767500I0J317500D01*
G02X46118700Y25450000I0J-317400D01*
G01X46418500Y24701500D02*
Y23558500D01*
G54D11*
G01X40977300Y24380700D02*
X40834600D01*
G01X44850700Y23792700D02*
Y23935400D01*
G54D12*
G01X37245380Y23046800D02*
Y23453200D01*
G01D02*
X37941340D01*
G01Y23046800D02*
X37245380D01*
G01X38491160Y23507700D02*
X39187120D01*
G01X38491160Y23101300D02*
Y23507700D01*
G01X39187120Y23101300D02*
X38491160D01*
G01X37941340Y23453200D02*
Y23046800D01*
G01X39187120Y24117300D02*
X38491160D01*
G01D02*
Y24523700D01*
G01X39187120Y23609300D02*
X38491160D01*
G01D02*
Y24015700D01*
G01D02*
X39187120D01*
G01Y24625300D02*
X38491160D01*
G01D02*
Y25031700D01*
G01D02*
X39187120D01*
G01X38491160Y24523700D02*
X39187120D01*
G01Y23507700D02*
Y23101300D01*
G01Y24523700D02*
Y24117300D01*
G01Y24015700D02*
Y23609300D01*
G01Y25031700D02*
Y24625300D01*
G01X40153200Y22045380D02*
X39746800D01*
G01D02*
Y22741340D01*
G01D02*
X40153200D01*
G01D02*
Y22045380D01*
G01X40833200Y22055380D02*
X40426800D01*
G01D02*
Y22751340D01*
G01D02*
X40833200D01*
G01D02*
Y22055380D01*
G01X41584880Y24688800D02*
Y25095200D01*
G01X42280840Y24688800D02*
X41584880D01*
G01Y25095200D02*
X42280840D01*
G01X42093200Y22794620D02*
Y22098660D01*
G01D02*
X41686800D01*
G01D02*
Y22794620D01*
G01D02*
X42093200D01*
G01Y23005380D02*
X41686800D01*
G01D02*
Y23701340D01*
G01X42093200D02*
Y23005380D01*
G01X41686800Y23701340D02*
X42093200D01*
G01X42280840Y25095200D02*
Y24688800D01*
G01X43695620Y22593300D02*
X42999660D01*
G01D02*
Y22999700D01*
G01X43695620Y22085300D02*
X42999660D01*
G01D02*
Y22491700D01*
G01D02*
X43695620D01*
G01X42999660Y22999700D02*
X43695620D01*
G01X42981880Y23228300D02*
Y23634700D01*
G01X43677840Y23228300D02*
X42981880D01*
G01Y24244300D02*
Y24650700D01*
G01X43677840Y24244300D02*
X42981880D01*
G01Y23736300D02*
Y24142700D01*
G01D02*
X43677840D01*
G01Y23736300D02*
X42981880D01*
G01Y23634700D02*
X43677840D01*
G01X42981880Y24752300D02*
Y25158700D01*
G01X43677840Y24752300D02*
X42981880D01*
G01Y24650700D02*
X43677840D01*
G01X43695620Y25260300D02*
X42999660D01*
G01D02*
Y25666700D01*
G01D02*
X43695620D01*
G01X42981880Y25158700D02*
X43677840D01*
G01X43695620Y22999700D02*
Y22593300D01*
G01Y22491700D02*
Y22085300D01*
G01X43677840Y23634700D02*
Y23228300D01*
G01Y24650700D02*
Y24244300D01*
G01Y24142700D02*
Y23736300D01*
G01Y25158700D02*
Y24752300D01*
G01X43695620Y25666700D02*
Y25260300D01*
G01X46094620Y22226800D02*
X45398660D01*
G01D02*
Y22633200D01*
G01D02*
X46094620D01*
G01Y22776800D02*
X45398660D01*
G01D02*
Y23183200D01*
G01D02*
X46094620D01*
G01Y22633200D02*
Y22226800D01*
G01Y23183200D02*
Y22776800D01*
G01X46876800Y23458660D02*
Y24154620D01*
G01X47283200Y23458660D02*
X46876800D01*
G01Y24154620D02*
X47283200D01*
G01X47378620Y24307800D02*
X46682660D01*
G01D02*
Y24714200D01*
G01D02*
X47378620D01*
G01X46220380Y25260300D02*
Y25666700D01*
G01D02*
X46916340D01*
G01D02*
Y25260300D01*
G01D02*
X46220380D01*
G01X47283200Y24154620D02*
Y23458660D01*
G01X47378620Y24714200D02*
Y24307800D01*
G54D13*
G01X37559680Y22176430D02*
X37553330Y22166780D01*
X37549100Y22155530D01*
Y22142660D01*
X37555450Y22128180D01*
X37566030Y22116930D01*
X37578730Y22108880D01*
X37599900Y22102450D01*
X37618950Y22100840D01*
X37638000Y22104060D01*
X37650700Y22108880D01*
X37663400Y22118530D01*
X37671870Y22129790D01*
X37676100Y22141050D01*
Y22152310D01*
X37671870Y22163570D01*
X37665520Y22173220D01*
X37657050Y22181260D01*
G01X37623190Y22239990D02*
X37608370Y22251250D01*
X37599900Y22260900D01*
X37595670Y22273770D01*
X37599900Y22285030D01*
X37608370Y22293070D01*
X37621070Y22299500D01*
X37635880Y22301110D01*
X37648590Y22299500D01*
X37661290Y22293070D01*
X37671870Y22283420D01*
X37676100Y22272160D01*
X37671870Y22259290D01*
X37659170Y22248030D01*
X37640120Y22241600D01*
X37618950Y22239990D01*
X37591440Y22243210D01*
X37576610Y22248030D01*
X37561800Y22256070D01*
X37551220Y22267330D01*
X37549100Y22278590D01*
X37553330Y22289850D01*
X37563920Y22297890D01*
G01X37361030Y22997900D02*
X37346810Y23007430D01*
X37330220Y23013780D01*
X37311250D01*
X37289910Y23004250D01*
X37273320Y22988380D01*
X37261470Y22969330D01*
X37251980Y22937580D01*
X37249610Y22909000D01*
X37254360Y22880430D01*
X37261470Y22861380D01*
X37275690Y22842330D01*
X37292290Y22829630D01*
X37308880Y22823280D01*
X37325470D01*
X37342070Y22829630D01*
X37356290Y22839150D01*
X37368150Y22851850D01*
G01X37499380Y22823280D02*
Y23013780D01*
X37470930Y22975680D01*
G01Y22823280D02*
X37527820D01*
G01X37689880Y23013780D02*
X37670910Y23007430D01*
X37656690Y22991550D01*
X37647210Y22972510D01*
X37640100Y22947100D01*
X37637730Y22918530D01*
X37640100Y22889950D01*
X37647210Y22864550D01*
X37656690Y22845500D01*
X37670910Y22829630D01*
X37689880Y22823280D01*
X37708840Y22829630D01*
X37723070Y22845500D01*
X37732550Y22864550D01*
X37739660Y22889950D01*
X37742030Y22918530D01*
X37739660Y22947100D01*
X37732550Y22972510D01*
X37723070Y22991550D01*
X37708840Y23007430D01*
X37689880Y23013780D01*
G01X37250880Y25271600D02*
X37258930Y25258900D01*
X37268570Y25250430D01*
X37279830Y25246200D01*
X37292700Y25250430D01*
X37302350Y25258900D01*
X37312000Y25271600D01*
X37315220Y25288530D01*
Y25373200D01*
G01X37412550Y25246200D02*
Y25373200D01*
X37393250Y25347800D01*
G01Y25246200D02*
X37431850D01*
G01X38258180Y22176430D02*
X38251830Y22166780D01*
X38247600Y22155530D01*
Y22142660D01*
X38253950Y22128180D01*
X38264530Y22116930D01*
X38277230Y22108880D01*
X38298400Y22102450D01*
X38317450Y22100840D01*
X38336500Y22104060D01*
X38349200Y22108880D01*
X38361900Y22118530D01*
X38370370Y22129790D01*
X38374600Y22141050D01*
Y22152310D01*
X38370370Y22163570D01*
X38364020Y22173220D01*
X38355550Y22181260D01*
G01Y22235170D02*
X38366140Y22244810D01*
X38372480Y22256070D01*
X38374600Y22270550D01*
X38370370Y22285030D01*
X38361900Y22296280D01*
X38347090Y22304330D01*
X38330150Y22305930D01*
X38313220Y22302720D01*
X38302630Y22294670D01*
X38294170Y22283420D01*
X38292050Y22272160D01*
X38294170Y22260900D01*
X38302630Y22246430D01*
X38247600Y22251250D01*
Y22294670D01*
G01X38956680Y22176430D02*
X38950330Y22166780D01*
X38946100Y22155530D01*
Y22142660D01*
X38952450Y22128180D01*
X38963030Y22116930D01*
X38975730Y22108880D01*
X38996900Y22102450D01*
X39015950Y22100840D01*
X39035000Y22104060D01*
X39047700Y22108880D01*
X39060400Y22118530D01*
X39068870Y22129790D01*
X39073100Y22141050D01*
Y22152310D01*
X39068870Y22163570D01*
X39062520Y22173220D01*
X39054050Y22181260D01*
G01X39058290Y22243210D02*
X39068870Y22254470D01*
X39073100Y22267330D01*
X39068870Y22280200D01*
X39056170Y22291460D01*
X39037120Y22299500D01*
X39018070Y22302720D01*
X38994780D01*
X38975730Y22299500D01*
X38958800Y22291460D01*
X38950330Y22281810D01*
X38946100Y22270550D01*
X38950330Y22257680D01*
X38958800Y22248030D01*
X38971500Y22241600D01*
X38988440Y22238380D01*
X39003250Y22241600D01*
X39018070Y22249640D01*
X39026540Y22259290D01*
X39028650Y22270550D01*
X39024420Y22283420D01*
X39013830Y22293070D01*
X38994780Y22302720D01*
G01X39171030Y23731220D02*
Y23540720D01*
X39111770D01*
X39092800Y23550250D01*
X39080950Y23562950D01*
X39076210Y23588350D01*
X39080950Y23613750D01*
X39095170Y23629620D01*
X39111770Y23639150D01*
X39171030D01*
G01X39111770D02*
X39076210Y23731220D01*
G01X38978160Y23572470D02*
X38963940Y23553420D01*
X38947340Y23543890D01*
X38928380Y23540720D01*
X38904670Y23547070D01*
X38888080Y23562950D01*
X38883340Y23581990D01*
X38885710Y23601050D01*
X38895190Y23616920D01*
X38942600Y23648670D01*
X38963940Y23670900D01*
X38978160Y23702650D01*
X38982900Y23731220D01*
X38883340D01*
G01X39171030Y24239220D02*
Y24048720D01*
X39111770D01*
X39092800Y24058250D01*
X39080950Y24070950D01*
X39076210Y24096350D01*
X39080950Y24121750D01*
X39095170Y24137620D01*
X39111770Y24147150D01*
X39171030D01*
G01X39111770D02*
X39076210Y24239220D01*
G01X38985270Y24201120D02*
X38971050Y24223350D01*
X38952090Y24236050D01*
X38930750Y24239220D01*
X38911780Y24236050D01*
X38892820Y24220170D01*
X38880970Y24201120D01*
X38878600Y24182070D01*
X38883340Y24159850D01*
X38899930Y24143970D01*
X38916530Y24137620D01*
X38937860D01*
G01X38916530D02*
X38902300Y24128100D01*
X38890450Y24112220D01*
X38885710Y24093170D01*
X38890450Y24074120D01*
X38902300Y24058250D01*
X38923640Y24048720D01*
X38944970Y24051890D01*
X38966310Y24064600D01*
G01X39171030Y24747220D02*
Y24556720D01*
X39111770D01*
X39092800Y24566250D01*
X39080950Y24578950D01*
X39076210Y24604350D01*
X39080950Y24629750D01*
X39095170Y24645620D01*
X39111770Y24655150D01*
X39171030D01*
G01X39111770D02*
X39076210Y24747220D01*
G01X38904670D02*
Y24556720D01*
X38992390Y24693240D01*
X38873850D01*
G01X39051100Y25550620D02*
X39038400Y25542570D01*
X39029930Y25532930D01*
X39025700Y25521670D01*
X39029930Y25508800D01*
X39038400Y25499150D01*
X39051100Y25489500D01*
X39068030Y25486280D01*
X39152700D01*
G01X39025700Y25369650D02*
X39152700D01*
X39061680Y25429160D01*
Y25348740D01*
G01X39171030Y25255220D02*
Y25064720D01*
X39111770D01*
X39092800Y25074250D01*
X39080950Y25086950D01*
X39076210Y25112350D01*
X39080950Y25137750D01*
X39095170Y25153620D01*
X39111770Y25163150D01*
X39171030D01*
G01X39111770D02*
X39076210Y25255220D01*
G01X38933120D02*
Y25064720D01*
X38961570Y25102820D01*
G01Y25255220D02*
X38904680D01*
G01X38714170D02*
Y25064720D01*
X38801890Y25201240D01*
X38683350D01*
G01X40202100Y22161030D02*
X40192570Y22146810D01*
X40186220Y22130220D01*
Y22111250D01*
X40195750Y22089910D01*
X40211620Y22073320D01*
X40230670Y22061470D01*
X40262420Y22051980D01*
X40291000Y22049610D01*
X40319570Y22054360D01*
X40338620Y22061470D01*
X40357670Y22075690D01*
X40370370Y22092290D01*
X40376720Y22108880D01*
Y22125470D01*
X40370370Y22142070D01*
X40360850Y22156290D01*
X40348150Y22168150D01*
G01X40338620Y22247230D02*
X40360850Y22261450D01*
X40373550Y22280410D01*
X40376720Y22301750D01*
X40373550Y22320720D01*
X40357670Y22339680D01*
X40338620Y22351530D01*
X40319570Y22353900D01*
X40297350Y22349160D01*
X40281470Y22332570D01*
X40275120Y22315970D01*
Y22294640D01*
G01Y22315970D02*
X40265600Y22330200D01*
X40249720Y22342050D01*
X40230670Y22346790D01*
X40211620Y22342050D01*
X40195750Y22330200D01*
X40186220Y22308860D01*
X40189390Y22287530D01*
X40202100Y22266190D01*
G01X40609950Y23374900D02*
Y23317750D01*
X40642120Y23247900D01*
G01X40577780D02*
X40609950Y23317750D01*
G01X40511010Y23269070D02*
X40501360Y23256370D01*
X40490100Y23250020D01*
X40477230Y23247900D01*
X40461150Y23252130D01*
X40449890Y23262720D01*
X40446670Y23275410D01*
X40448280Y23288120D01*
X40454720Y23298700D01*
X40486880Y23319870D01*
X40501360Y23334680D01*
X40511010Y23355850D01*
X40514230Y23374900D01*
X40446670D01*
G01X40823400Y23816870D02*
X40914420D01*
X40933470Y23823300D01*
X40946170Y23836170D01*
X40950400Y23852250D01*
X40946170Y23868330D01*
X40933470Y23881200D01*
X40914420Y23887630D01*
X40823400D01*
G01X40950400Y23981750D02*
X40823400D01*
X40848800Y23962450D01*
G01X40950400D02*
Y24001050D01*
G01X40882100Y22171030D02*
X40872570Y22156810D01*
X40866220Y22140220D01*
Y22121250D01*
X40875750Y22099910D01*
X40891620Y22083320D01*
X40910670Y22071470D01*
X40942420Y22061980D01*
X40971000Y22059610D01*
X40999570Y22064360D01*
X41018620Y22071470D01*
X41037670Y22085690D01*
X41050370Y22102290D01*
X41056720Y22118880D01*
Y22135470D01*
X41050370Y22152070D01*
X41040850Y22166290D01*
X41028150Y22178150D01*
G01X40897970Y22264340D02*
X40878920Y22278560D01*
X40869390Y22295160D01*
X40866220Y22314120D01*
X40872570Y22337830D01*
X40888450Y22354420D01*
X40907490Y22359160D01*
X40926550Y22356790D01*
X40942420Y22347310D01*
X40974170Y22299900D01*
X40996400Y22278560D01*
X41028150Y22264340D01*
X41056720Y22259600D01*
Y22359160D01*
G01X41637900Y22678970D02*
X41647430Y22693190D01*
X41653780Y22709780D01*
Y22728750D01*
X41644250Y22750090D01*
X41628380Y22766680D01*
X41609330Y22778530D01*
X41577580Y22788020D01*
X41549000Y22790390D01*
X41520430Y22785640D01*
X41501380Y22778530D01*
X41482330Y22764310D01*
X41469630Y22747710D01*
X41463280Y22731120D01*
Y22714530D01*
X41469630Y22697930D01*
X41479150Y22683710D01*
X41491850Y22671850D01*
G01X41463280Y22540620D02*
X41653780D01*
X41615680Y22569070D01*
G01X41463280D02*
Y22512180D01*
G01X41600970Y24465280D02*
Y24655780D01*
X41660230D01*
X41679200Y24646250D01*
X41691050Y24633550D01*
X41695790Y24608150D01*
X41691050Y24582750D01*
X41676830Y24566880D01*
X41660230Y24557350D01*
X41600970D01*
G01X41660230D02*
X41695790Y24465280D01*
G01X41834140D02*
X41838880Y24506550D01*
X41845990Y24541480D01*
X41855470Y24573230D01*
X41867330Y24608150D01*
X41886290Y24655780D01*
X41791470D01*
G01X42142100Y23121030D02*
X42132570Y23106810D01*
X42126220Y23090220D01*
Y23071250D01*
X42135750Y23049910D01*
X42151620Y23033320D01*
X42170670Y23021470D01*
X42202420Y23011980D01*
X42231000Y23009610D01*
X42259570Y23014360D01*
X42278620Y23021470D01*
X42297670Y23035690D01*
X42310370Y23052290D01*
X42316720Y23068880D01*
Y23085470D01*
X42310370Y23102070D01*
X42300850Y23116290D01*
X42288150Y23128150D01*
G01X42316720Y23287830D02*
X42126220D01*
X42262740Y23200110D01*
Y23318650D01*
G01X42997970Y23512780D02*
Y23703280D01*
X43057230D01*
X43076200Y23693750D01*
X43088050Y23681050D01*
X43092790Y23655650D01*
X43088050Y23630250D01*
X43073830Y23614380D01*
X43057230Y23604850D01*
X42997970D01*
G01X43057230D02*
X43092790Y23512780D01*
G01X43235880D02*
Y23703280D01*
X43207430Y23665180D01*
G01Y23512780D02*
X43264320D01*
G01X43426380D02*
Y23703280D01*
X43397930Y23665180D01*
G01Y23512780D02*
X43454820D01*
G01X42997970Y23004780D02*
Y23195280D01*
X43057230D01*
X43076200Y23185750D01*
X43088050Y23173050D01*
X43092790Y23147650D01*
X43088050Y23122250D01*
X43073830Y23106380D01*
X43057230Y23096850D01*
X42997970D01*
G01X43057230D02*
X43092790Y23004780D01*
G01X43235880D02*
Y23195280D01*
X43207430Y23157180D01*
G01Y23004780D02*
X43264320D01*
G01X42997970Y24020780D02*
Y24211280D01*
X43057230D01*
X43076200Y24201750D01*
X43088050Y24189050D01*
X43092790Y24163650D01*
X43088050Y24138250D01*
X43073830Y24122380D01*
X43057230Y24112850D01*
X42997970D01*
G01X43057230D02*
X43092790Y24020780D01*
G01X43235880D02*
Y24211280D01*
X43207430Y24173180D01*
G01Y24020780D02*
X43264320D01*
G01X43381340Y24179530D02*
X43395560Y24198580D01*
X43412160Y24208110D01*
X43431120Y24211280D01*
X43454830Y24204930D01*
X43471420Y24189050D01*
X43476160Y24170010D01*
X43473790Y24150950D01*
X43464310Y24135080D01*
X43416900Y24103330D01*
X43395560Y24081100D01*
X43381340Y24049350D01*
X43376600Y24020780D01*
X43476160D01*
G01X42997970Y24528780D02*
Y24719280D01*
X43057230D01*
X43076200Y24709750D01*
X43088050Y24697050D01*
X43092790Y24671650D01*
X43088050Y24646250D01*
X43073830Y24630380D01*
X43057230Y24620850D01*
X42997970D01*
G01X43057230D02*
X43092790Y24528780D01*
G01X43235880D02*
Y24719280D01*
X43207430Y24681180D01*
G01Y24528780D02*
X43264320D01*
G01X43374230Y24566880D02*
X43388450Y24544650D01*
X43407410Y24531950D01*
X43428750Y24528780D01*
X43447720Y24531950D01*
X43466680Y24547830D01*
X43478530Y24566880D01*
X43480900Y24585930D01*
X43476160Y24608150D01*
X43459570Y24624030D01*
X43442970Y24630380D01*
X43421640D01*
G01X43442970D02*
X43457200Y24639900D01*
X43469050Y24655780D01*
X43473790Y24674830D01*
X43469050Y24693880D01*
X43457200Y24709750D01*
X43435860Y24719280D01*
X43414530Y24716110D01*
X43393190Y24703400D01*
G01X43679530Y22715220D02*
Y22524720D01*
X43620270D01*
X43601300Y22534250D01*
X43589450Y22546950D01*
X43584710Y22572350D01*
X43589450Y22597750D01*
X43603670Y22613620D01*
X43620270Y22623150D01*
X43679530D01*
G01X43620270D02*
X43584710Y22715220D01*
G01X43493770Y22686650D02*
X43479550Y22702520D01*
X43462960Y22712050D01*
X43441620Y22715220D01*
X43420280Y22708870D01*
X43403690Y22696170D01*
X43391840Y22673950D01*
X43389470Y22648550D01*
X43394210Y22623150D01*
X43406060Y22607270D01*
X43422660Y22594570D01*
X43439250Y22591400D01*
X43455840Y22594570D01*
X43477180Y22607270D01*
X43470070Y22524720D01*
X43406060D01*
G01X43679530Y23223220D02*
Y23032720D01*
X43620270D01*
X43601300Y23042250D01*
X43589450Y23054950D01*
X43584710Y23080350D01*
X43589450Y23105750D01*
X43603670Y23121620D01*
X43620270Y23131150D01*
X43679530D01*
G01X43620270D02*
X43584710Y23223220D01*
G01X43486660Y23143850D02*
X43470070Y23121620D01*
X43455840Y23108920D01*
X43436880Y23102570D01*
X43420280Y23108920D01*
X43408430Y23121620D01*
X43398950Y23140670D01*
X43396580Y23162900D01*
X43398950Y23181950D01*
X43408430Y23201000D01*
X43422660Y23216870D01*
X43439250Y23223220D01*
X43458210Y23216870D01*
X43474810Y23197830D01*
X43484290Y23169240D01*
X43486660Y23137500D01*
X43481920Y23096220D01*
X43474810Y23073990D01*
X43462960Y23051770D01*
X43446360Y23035890D01*
X43429770Y23032720D01*
X43413170Y23039070D01*
X43401320Y23054950D01*
G01X43679530Y25890220D02*
Y25699720D01*
X43620270D01*
X43601300Y25709250D01*
X43589450Y25721950D01*
X43584710Y25747350D01*
X43589450Y25772750D01*
X43603670Y25788620D01*
X43620270Y25798150D01*
X43679530D01*
G01X43620270D02*
X43584710Y25890220D01*
G01X43441620D02*
Y25699720D01*
X43470070Y25737820D01*
G01Y25890220D02*
X43413180D01*
G01X43303270Y25861650D02*
X43289050Y25877520D01*
X43272460Y25887050D01*
X43251120Y25890220D01*
X43229780Y25883870D01*
X43213190Y25871170D01*
X43201340Y25848950D01*
X43198970Y25823550D01*
X43203710Y25798150D01*
X43215560Y25782270D01*
X43232160Y25769570D01*
X43248750Y25766400D01*
X43265340Y25769570D01*
X43286680Y25782270D01*
X43279570Y25699720D01*
X43215560D01*
G01X44302950Y23946600D02*
X44341550D01*
G01X44322250D02*
Y23819600D01*
G01X44302950D02*
X44341550D01*
G01X44487130Y23936020D02*
X44477480Y23942370D01*
X44466230Y23946600D01*
X44453360D01*
X44438880Y23940250D01*
X44427630Y23929670D01*
X44419580Y23916970D01*
X44413150Y23895800D01*
X44411540Y23876750D01*
X44414760Y23857700D01*
X44419580Y23845000D01*
X44429230Y23832300D01*
X44440490Y23823830D01*
X44451750Y23819600D01*
X44463010D01*
X44474270Y23823830D01*
X44483920Y23830180D01*
X44491960Y23838650D01*
G01X44581250Y23819600D02*
Y23946600D01*
X44561950Y23921200D01*
G01Y23819600D02*
X44600550D01*
G01X44332880Y25249100D02*
X44340930Y25236400D01*
X44350570Y25227930D01*
X44361830Y25223700D01*
X44374700Y25227930D01*
X44384350Y25236400D01*
X44394000Y25249100D01*
X44397220Y25266030D01*
Y25350700D01*
G01X44459170Y25249100D02*
X44468810Y25234280D01*
X44481680Y25225820D01*
X44496160Y25223700D01*
X44509030Y25225820D01*
X44521890Y25236400D01*
X44529930Y25249100D01*
X44531540Y25261800D01*
X44528330Y25276610D01*
X44517070Y25287200D01*
X44505810Y25291430D01*
X44491330D01*
G01X44505810D02*
X44515460Y25297780D01*
X44523500Y25308360D01*
X44526720Y25321070D01*
X44523500Y25333770D01*
X44515460Y25344350D01*
X44500980Y25350700D01*
X44486510Y25348580D01*
X44472030Y25340120D01*
G01X46078530Y22856720D02*
Y22666220D01*
X46019270D01*
X46000300Y22675750D01*
X45988450Y22688450D01*
X45983710Y22713850D01*
X45988450Y22739250D01*
X46002670Y22755120D01*
X46019270Y22764650D01*
X46078530D01*
G01X46019270D02*
X45983710Y22856720D01*
G01X45840620D02*
X45824030Y22853550D01*
X45805060Y22844020D01*
X45793210Y22828150D01*
X45788470Y22805920D01*
X45793210Y22783700D01*
X45807430Y22764650D01*
X45828770Y22755120D01*
X45852470D01*
X45866700Y22748770D01*
X45878550Y22732900D01*
X45883290Y22710670D01*
X45876180Y22688450D01*
X45859590Y22672570D01*
X45840620Y22666220D01*
X45821660Y22672570D01*
X45805060Y22688450D01*
X45797950Y22710670D01*
X45802690Y22732900D01*
X45814540Y22748770D01*
X45828770Y22755120D01*
X45852470D01*
X45873810Y22764650D01*
X45888030Y22783700D01*
X45892770Y22805920D01*
X45888030Y22828150D01*
X45876180Y22844020D01*
X45857210Y22853550D01*
X45840620Y22856720D01*
G01X46078530Y23406720D02*
Y23216220D01*
X46019270D01*
X46000300Y23225750D01*
X45988450Y23238450D01*
X45983710Y23263850D01*
X45988450Y23289250D01*
X46002670Y23305120D01*
X46019270Y23314650D01*
X46078530D01*
G01X46019270D02*
X45983710Y23406720D01*
G01X45880920Y23384500D02*
X45864330Y23400370D01*
X45845360Y23406720D01*
X45826400Y23400370D01*
X45809800Y23381330D01*
X45797950Y23352740D01*
X45793210Y23324170D01*
Y23289250D01*
X45797950Y23260670D01*
X45809800Y23235270D01*
X45824030Y23222570D01*
X45840620Y23216220D01*
X45859590Y23222570D01*
X45873810Y23235270D01*
X45883290Y23254320D01*
X45888030Y23279720D01*
X45883290Y23301940D01*
X45871440Y23324170D01*
X45857210Y23336870D01*
X45840620Y23340050D01*
X45821660Y23333700D01*
X45807430Y23317820D01*
X45793210Y23289250D01*
G01X45984130Y25153100D02*
Y25026100D01*
X45951970D01*
X45939100Y25032450D01*
X45929450Y25040920D01*
X45921410Y25053610D01*
X45914970Y25068440D01*
X45913370Y25089600D01*
X45914970Y25110770D01*
X45921410Y25125590D01*
X45929450Y25138290D01*
X45939100Y25146750D01*
X45951970Y25153100D01*
X45984130D01*
G01X45819250D02*
Y25026100D01*
X45838550Y25051500D01*
G01Y25153100D02*
X45799950D01*
G01X46827900Y24038970D02*
X46837430Y24053190D01*
X46843780Y24069780D01*
Y24088750D01*
X46834250Y24110090D01*
X46818380Y24126680D01*
X46799330Y24138530D01*
X46767580Y24148020D01*
X46739000Y24150390D01*
X46710430Y24145640D01*
X46691380Y24138530D01*
X46672330Y24124310D01*
X46659630Y24107710D01*
X46653280Y24091120D01*
Y24074530D01*
X46659630Y24057930D01*
X46669150Y24043710D01*
X46681850Y24031850D01*
G01X46653280Y23905360D02*
X46694550Y23900620D01*
X46729480Y23893510D01*
X46761230Y23884030D01*
X46796150Y23872170D01*
X46843780Y23853210D01*
Y23948030D01*
G01X46429600Y24340950D02*
X46486750D01*
X46556600Y24373120D01*
G01Y24308780D02*
X46486750Y24340950D01*
G01X46429600Y24211450D02*
X46556600D01*
X46531200Y24230750D01*
G01X46429600D02*
Y24192150D01*
G01X46236470Y25036780D02*
Y25227280D01*
X46295730D01*
X46314700Y25217750D01*
X46326550Y25205050D01*
X46331290Y25179650D01*
X46326550Y25154250D01*
X46312330Y25138380D01*
X46295730Y25128850D01*
X46236470D01*
G01X46295730D02*
X46331290Y25036780D01*
G01X46474380D02*
Y25227280D01*
X46445930Y25189180D01*
G01Y25036780D02*
X46502820D01*
G01X46664880Y25227280D02*
X46645910Y25220930D01*
X46631690Y25205050D01*
X46622210Y25186010D01*
X46615100Y25160600D01*
X46612730Y25132030D01*
X46615100Y25103450D01*
X46622210Y25078050D01*
X46631690Y25059000D01*
X46645910Y25043130D01*
X46664880Y25036780D01*
X46683840Y25043130D01*
X46698070Y25059000D01*
X46707550Y25078050D01*
X46714660Y25103450D01*
X46717030Y25132030D01*
X46714660Y25160600D01*
X46707550Y25186010D01*
X46698070Y25205050D01*
X46683840Y25220930D01*
X46664880Y25227280D01*
G01X47262970Y24763100D02*
X47277190Y24753570D01*
X47293780Y24747220D01*
X47312750D01*
X47334090Y24756750D01*
X47350680Y24772620D01*
X47362530Y24791670D01*
X47372020Y24823420D01*
X47374390Y24852000D01*
X47369640Y24880570D01*
X47362530Y24899620D01*
X47348310Y24918670D01*
X47331710Y24931370D01*
X47315120Y24937720D01*
X47298530D01*
X47281930Y24931370D01*
X47267710Y24921850D01*
X47255850Y24909150D01*
G01X47124620Y24937720D02*
X47108030Y24934550D01*
X47089060Y24925020D01*
X47077210Y24909150D01*
X47072470Y24886920D01*
X47077210Y24864700D01*
X47091430Y24845650D01*
X47112770Y24836120D01*
X47136470D01*
X47150700Y24829770D01*
X47162550Y24813900D01*
X47167290Y24791670D01*
X47160180Y24769450D01*
X47143590Y24753570D01*
X47124620Y24747220D01*
X47105660Y24753570D01*
X47089060Y24769450D01*
X47081950Y24791670D01*
X47086690Y24813900D01*
X47098540Y24829770D01*
X47112770Y24836120D01*
X47136470D01*
X47157810Y24845650D01*
X47172030Y24864700D01*
X47176770Y24886920D01*
X47172030Y24909150D01*
X47160180Y24925020D01*
X47141210Y24934550D01*
X47124620Y24937720D01*
M02*
