G04 ================== begin FILE IDENTIFICATION RECORD ==================*
G04 Layout Name:  c:/Users/user/Desktop/exam/avrusb500/allegro/micro_usb.brd*
G04 Film Name:    SolderB*
G04 File Format:  Gerber RS274X*
G04 File Origin:  Cadence Allegro 16.6-S034*
G04 Origin Date:  Fri Jul 19 12:48:04 2019*
G04 *
G04 Layer:  VIA CLASS/SOLDERMASK_BOTTOM*
G04 Layer:  PIN/SOLDERMASK_BOTTOM*
G04 Layer:  PACKAGE GEOMETRY/SOLDERMASK_BOTTOM*
G04 Layer:  BOARD GEOMETRY/SOLDERMASK_BOTTOM*
G04 *
G04 Offset:    (0.0000 0.0000)*
G04 Mirror:    No*
G04 Mode:      Positive*
G04 Rotation:  0*
G04 FullContactRelief:  No*
G04 UndefLineWidth:     0.0000*
G04 ================== end FILE IDENTIFICATION RECORD ====================*
%FSLAX55Y55*MOMM*%
%IR0*IPPOS*OFA0.00000B0.00000*MIA0B0*SFA1.00000B1.00000*%
%ADD15O,1.8999X1.1999*%
%ADD11C,1.3211*%
%ADD14C,1.1181*%
%ADD10R,1.3211X1.3211*%
%ADD12C,1.5751*%
%ADD13R,1.5751X1.5751*%
%LPD*%
G75*
G54D10*
X37592000Y22225000D03*
Y23304500D03*
X38290500Y22225000D03*
X38989000D03*
X40005000D03*
X40767000D03*
X41910000Y22479000D03*
Y23177500D03*
X45847000Y25273000D03*
X46926500Y24003000D03*
X47053500Y24765000D03*
G54D11*
X37592000Y22479000D03*
X37846000Y23304500D03*
X38290500Y22479000D03*
X38354000Y24193500D03*
Y24511000D03*
Y24828500D03*
Y25146000D03*
X38989000Y22479000D03*
X39370000Y24193500D03*
Y24511000D03*
Y24828500D03*
Y25146000D03*
X40005000Y22479000D03*
X40018000Y23640000D03*
X40767000Y22479000D03*
X40780000Y23640000D03*
X41465500Y25463500D03*
X41910000Y22225000D03*
Y23431500D03*
X42862500Y22606000D03*
Y22987000D03*
X42850000Y23940000D03*
X42862500Y24320500D03*
X42850000Y24750000D03*
X42862500Y25146000D03*
Y25590500D03*
X42481500Y25463500D03*
X43878500Y22606000D03*
Y22987000D03*
X43866000Y23940000D03*
X43878500Y24320500D03*
X43866000Y24750000D03*
X43878500Y25146000D03*
Y25590500D03*
X45212000Y22161500D03*
X45194000Y22850000D03*
X46228000Y22161500D03*
X46210000Y22850000D03*
X46164500Y23749000D03*
Y24511000D03*
X45529500Y25273000D03*
X46230000Y25450000D03*
X46926500Y23749000D03*
X46799500Y24765000D03*
X47246000Y25450000D03*
G54D12*
X37338000Y24130000D03*
Y24384000D03*
Y24638000D03*
Y24892000D03*
X37592000Y25590500D03*
X37846000D03*
X38100000D03*
X38354000D03*
X44420000Y24044000D03*
Y24298000D03*
Y24552000D03*
Y24806000D03*
G54D13*
X37338000Y25146000D03*
X38608000Y25590500D03*
X44420000Y25060000D03*
G54D14*
X38989000Y22225000D03*
X40020300Y24305200D03*
X39814500Y24066500D03*
X39886900Y25010100D03*
X39687500Y25209500D03*
X40894000Y24193500D03*
X40554400Y24003000D03*
X40685200Y24429200D03*
X40525200Y24419500D03*
X40767000Y24511000D03*
X40765200Y24957300D03*
Y25336500D03*
X40449500D03*
X41402000Y23685500D03*
X41075600Y24202400D03*
Y25010100D03*
X41338500Y24892000D03*
Y25336500D03*
X41226490Y25287980D03*
X41148000Y25209500D03*
X42354500Y23558500D03*
X42291000Y23177500D03*
X42418000Y22987000D03*
X42037000Y23749000D03*
X42227500D03*
X41910000Y24892000D03*
X43434000Y23304500D03*
X44577000Y23431500D03*
X45148500Y23558500D03*
X45021500D03*
X44767500D03*
Y23368000D03*
X45275500D03*
X45080000Y24320500D03*
X45402500D03*
Y24193500D03*
Y24892000D03*
X45466000Y24511000D03*
X45320000D03*
X44831000Y25273000D03*
X45593000Y24892000D03*
X46482000Y22606000D03*
Y22415500D03*
X47053500Y22479000D03*
G54D15*
X46900000Y22067500D03*
Y23092500D03*
X47270000Y22067500D03*
Y23092500D03*
M02*
