G04 ================== begin FILE IDENTIFICATION RECORD ==================*
G04 Layout Name:  AVRUSB500_0729.brd*
G04 Film Name:    SolderB*
G04 File Format:  Gerber RS274X*
G04 File Origin:  Cadence Allegro 17.2-P019*
G04 Origin Date:  Mon Jul 29 16:18:17 2019*
G04 *
G04 Layer:  VIA CLASS/SOLDERMASK_BOTTOM*
G04 Layer:  PIN/SOLDERMASK_BOTTOM*
G04 Layer:  PACKAGE GEOMETRY/SOLDERMASK_BOTTOM*
G04 Layer:  BOARD GEOMETRY/SOLDERMASK_BOTTOM*
G04 *
G04 Offset:    (0.0000 0.0000)*
G04 Mirror:    No*
G04 Mode:      Positive*
G04 Rotation:  0*
G04 FullContactRelief:  No*
G04 UndefLineWidth:     0.0000*
G04 ================== end FILE IDENTIFICATION RECORD ====================*
%FSLAX55Y55*MOMM*%
%IR0*IPPOS*OFA0.00000B0.00000*MIA0B0*SFA1.00000B1.00000*%
%ADD16O,1.8999X1.1999*%
%ADD14C,1.3211*%
%ADD15C,1.1181*%
%ADD13R,1.3211X1.3211*%
%ADD11C,1.5751*%
%ADD10C,3.683*%
%ADD12R,1.5751X1.5751*%
%LPD*%
G75*
G54D10*
X37400000Y22150000D03*
X37401500Y25527000D03*
X47250000Y22170000D03*
X47260000Y25500000D03*
G54D11*
X37338000Y24066500D03*
Y24320500D03*
Y24574500D03*
Y24828500D03*
X37846000Y25463500D03*
X38608000D03*
X38354000D03*
X38100000D03*
X44420000Y24044000D03*
Y24298000D03*
Y24552000D03*
Y24806000D03*
G54D12*
X37338000Y25082500D03*
X38862000Y25463500D03*
X44420000Y25060000D03*
G54D13*
X37973000Y22225000D03*
X38671500D03*
X39370000D03*
X45960000Y25450000D03*
G54D14*
X37973000Y22479000D03*
X38671500D03*
X39370000D03*
X40018000Y23640000D03*
X40780000D03*
X46164500Y23749000D03*
Y24511000D03*
X45642500Y25450000D03*
G54D15*
X40005000Y24193500D03*
X39751000Y24206650D03*
X41529000Y22288500D03*
X41084500Y22606000D03*
X41402000Y23495000D03*
X41211500Y23812500D03*
X41084500Y24828500D03*
X41211500Y25146000D03*
X42545000Y23431500D03*
X43370500Y23177500D03*
X43815000Y24320500D03*
X43942000Y24638000D03*
X43878500Y25273000D03*
X45339000Y23558500D03*
X45148500Y23431500D03*
X45021500Y24193500D03*
X45275500Y24257000D03*
X45348500Y24955500D03*
X45212000Y24892000D03*
X45085000Y24447500D03*
X44958000Y24511000D03*
X46101000Y22479000D03*
Y22098000D03*
X46736000Y22440900D03*
X46799500Y22707600D03*
Y25146000D03*
G54D16*
X46392000Y22194500D03*
X46762000D03*
X46392000Y23219500D03*
X46762000D03*
M02*
