G04 ================== begin FILE IDENTIFICATION RECORD ==================*
G04 Layout Name:  AVRUSB500_0729.brd*
G04 Film Name:    SolderT*
G04 File Format:  Gerber RS274X*
G04 File Origin:  Cadence Allegro 17.2-P019*
G04 Origin Date:  Mon Jul 29 16:18:17 2019*
G04 *
G04 Layer:  VIA CLASS/SOLDERMASK_TOP*
G04 Layer:  PIN/SOLDERMASK_TOP*
G04 Layer:  PACKAGE GEOMETRY/SOLDERMASK_TOP*
G04 Layer:  BOARD GEOMETRY/SOLDERMASK_TOP*
G04 *
G04 Offset:    (0.0000 0.0000)*
G04 Mirror:    No*
G04 Mode:      Positive*
G04 Rotation:  0*
G04 FullContactRelief:  No*
G04 UndefLineWidth:     0.0000*
G04 ================== end FILE IDENTIFICATION RECORD ====================*
%FSLAX55Y55*MOMM*%
%IR0*IPPOS*OFA0.00000B0.00000*MIA0B0*SFA1.00000B1.00000*%
%ADD24O,1.8999X1.1999*%
%ADD23R,1.7X.4*%
%ADD20O,.4569X1.778*%
%ADD18O,1.778X.4569*%
%ADD21R,.4569X1.778*%
%ADD19R,1.778X.4569*%
%ADD22R,1.7X1.1001*%
%ADD15C,1.3211*%
%ADD17C,1.1181*%
%ADD14R,1.3211X1.3211*%
%ADD12C,1.5751*%
%ADD10C,3.683*%
%ADD13R,1.5751X1.5751*%
%ADD11R,1.4986X2.8448*%
%ADD16R,2.8448X1.4986*%
%LPD*%
G75*
G54D10*
X37400000Y22150000D03*
X37401500Y25527000D03*
X47250000Y22170000D03*
X47260000Y25500000D03*
G54D11*
X37380000Y23250000D03*
X37806720D03*
X38625780Y23304500D03*
Y24320500D03*
Y23812500D03*
Y24828500D03*
X39052500Y23304500D03*
Y24320500D03*
Y23812500D03*
Y24828500D03*
X41719500Y24892000D03*
X42146220D03*
X43134280Y22796500D03*
Y22288500D03*
X43116500Y23431500D03*
Y23939500D03*
Y24955500D03*
Y24447500D03*
X43134280Y25463500D03*
X43561000Y22796500D03*
Y22288500D03*
X43543220Y23431500D03*
Y23939500D03*
Y24955500D03*
Y24447500D03*
X43561000Y25463500D03*
X45960000Y22430000D03*
X45533280D03*
X45960000Y22980000D03*
X45533280D03*
X46817280Y24511000D03*
X46355000Y25463500D03*
X46781720D03*
X47244000Y24511000D03*
G54D20*
X40205200Y24305200D03*
X40285200D03*
X40365200D03*
X40445200D03*
X40525200D03*
X40685200D03*
X40765200D03*
Y25154800D03*
X40605200D03*
X40525200D03*
X40445200D03*
X40365200D03*
X40285200D03*
X40205200D03*
X45000000Y23860000D03*
X45080000D03*
X45160000D03*
X45240000D03*
X45320000D03*
X45400100D03*
Y24709600D03*
X45320000D03*
X45160000D03*
X45080000D03*
X45000000D03*
X44920000D03*
X45480100Y23860000D03*
Y24709600D03*
G54D12*
X37338000Y24066500D03*
Y24320500D03*
Y24574500D03*
Y24828500D03*
X37846000Y25463500D03*
X38608000D03*
X38354000D03*
X38100000D03*
X44420000Y24044000D03*
Y24298000D03*
Y24552000D03*
Y24806000D03*
G54D21*
X40605200Y24305200D03*
X40685200Y25154800D03*
X44920000Y23860000D03*
X45240000Y24709600D03*
G54D13*
X37338000Y25082500D03*
X38862000Y25463500D03*
X44420000Y25060000D03*
G54D22*
X46392000Y22477000D03*
Y22937000D03*
G54D14*
X37973000Y22225000D03*
X38671500D03*
X39370000D03*
X45960000Y25450000D03*
G54D23*
X46392000Y22577000D03*
Y22642000D03*
Y22772000D03*
Y22707000D03*
Y22837000D03*
G54D15*
X37973000Y22479000D03*
X38671500D03*
X39370000D03*
X40018000Y23640000D03*
X40780000D03*
X46164500Y23749000D03*
Y24511000D03*
X45642500Y25450000D03*
G54D24*
X46392000Y22194500D03*
X46762000D03*
X46392000Y23219500D03*
X46762000D03*
G54D16*
X39950000Y22180000D03*
Y22606720D03*
X40630000Y22190000D03*
Y22616720D03*
X41890000Y22660000D03*
Y22233280D03*
Y23140000D03*
Y23566720D03*
X47080000Y23593280D03*
Y24020000D03*
G54D17*
X40005000Y24193500D03*
X39751000Y24206650D03*
X41529000Y22288500D03*
X41084500Y22606000D03*
X41402000Y23495000D03*
X41211500Y23812500D03*
X41084500Y24828500D03*
X41211500Y25146000D03*
X42545000Y23431500D03*
X43370500Y23177500D03*
X43815000Y24320500D03*
X43942000Y24638000D03*
X43878500Y25273000D03*
X45339000Y23558500D03*
X45148500Y23431500D03*
X45021500Y24193500D03*
X45275500Y24257000D03*
X45348500Y24955500D03*
X45212000Y24892000D03*
X45085000Y24447500D03*
X44958000Y24511000D03*
X46101000Y22479000D03*
Y22098000D03*
X46736000Y22440900D03*
X46799500Y22707600D03*
Y25146000D03*
G54D18*
X40060400Y25010100D03*
Y24930100D03*
Y24850000D03*
Y24690000D03*
Y24610000D03*
Y24530000D03*
Y24450000D03*
X40910000Y24530000D03*
Y24610000D03*
Y24690000D03*
Y24770000D03*
Y24850000D03*
Y24930100D03*
Y25010100D03*
X44775200Y24244800D03*
Y24084800D03*
Y24004800D03*
Y24564800D03*
Y24484800D03*
Y24404800D03*
Y24324800D03*
X45624800Y24004800D03*
Y24164800D03*
Y24244800D03*
Y24324800D03*
Y24404800D03*
Y24484800D03*
Y24564800D03*
G54D19*
X40060400Y24770000D03*
X40910000Y24450000D03*
X44775200Y24164800D03*
X45624800Y24084800D03*
M02*
