G04 ================== begin FILE IDENTIFICATION RECORD ==================*
G04 Layout Name:  AVRUSB500_0729.brd*
G04 Film Name:    TOP*
G04 File Format:  Gerber RS274X*
G04 File Origin:  Cadence Allegro 17.2-P019*
G04 Origin Date:  Mon Jul 29 16:18:18 2019*
G04 *
G04 Layer:  ETCH/TOP*
G04 Layer:  PIN/TOP*
G04 Layer:  VIA CLASS/TOP*
G04 *
G04 Offset:    (0.0000 0.0000)*
G04 Mirror:    No*
G04 Mode:      Positive*
G04 Rotation:  0*
G04 FullContactRelief:  No*
G04 UndefLineWidth:     0.0000*
G04 ================== end FILE IDENTIFICATION RECORD ====================*
%FSLAX55Y55*MOMM*%
%IR0*IPPOS*OFA0.00000B0.00000*MIA0B0*SFA1.00000B1.00000*%
%ADD24O,1.8999X1.1999*%
%ADD23R,1.7X.4*%
%ADD17C,.6101*%
%ADD10C,.635*%
%ADD20O,.4569X1.778*%
%ADD18O,1.778X.4569*%
%ADD21R,.4569X1.778*%
%ADD19R,1.778X.4569*%
%ADD22R,1.7X1.1001*%
%ADD15C,1.3211*%
%ADD14R,1.3211X1.3211*%
%ADD12C,1.5751*%
%ADD13R,1.5751X1.5751*%
%ADD11R,1.4986X2.8448*%
%ADD16R,2.8448X1.4986*%
%ADD25C,.254*%
%ADD26C,.381*%
%ADD29R,5.0804X5.0804*%
%ADD28C,1.5756*%
%ADD27C,1.8296*%
G75*
%LPD*%
G75*
G36*
G01X37130010Y21890010D02*
Y25789990D01*
X37147480D01*
Y25272980D01*
X37655520D01*
Y25789990D01*
X47529990D01*
Y21890010D01*
X37654020D01*
Y22404020D01*
X37145980D01*
Y21890010D01*
X37130010D01*
G37*
%LPC*%
G75*
G36*
G01X47156350Y24368760D02*
Y24653240D01*
G02X47169070Y24665960I12720J0D01*
G01X47318930D01*
G02X47331650Y24653240I0J-12720D01*
G01Y24368760D01*
G02X47318930Y24356040I-12720J0D01*
G01X47169070D01*
G02X47156350Y24368760I0J12720D01*
G37*
G36*
G01X46925040Y23945070D02*
Y24094930D01*
G02X46937760Y24107650I12720J0D01*
G01X47222240D01*
G02X47234960Y24094930I0J-12720D01*
G01Y23945070D01*
G02X47222240Y23932350I-12720J0D01*
G01X46937760D01*
G02X46925040Y23945070I0J12720D01*
G37*
G36*
G01X46727000Y23134080D02*
G02Y23304920I0J85420D01*
G01X46797000D01*
G02Y23134080I0J-85420D01*
G01X46727000D01*
G37*
G36*
G01X46357000D02*
G02Y23304920I0J85420D01*
G01X46427000D01*
G02Y23134080I0J-85420D01*
G01X46357000D01*
G37*
G36*
G01X46727000Y22109080D02*
G02Y22279920I0J85420D01*
G01X46797000D01*
G02Y22109080I0J-85420D01*
G01X46727000D01*
G37*
G36*
G01X46357000D02*
G02Y22279920I0J85420D01*
G01X46427000D01*
G02Y22109080I0J-85420D01*
G01X46357000D01*
G37*
G36*
G01X41735040Y23491790D02*
Y23641650D01*
G02X41747760Y23654370I12720J0D01*
G01X42032240D01*
G02X42044960Y23641650I0J-12720D01*
G01Y23491790D01*
G02X42032240Y23479070I-12720J0D01*
G01X41747760D01*
G02X41735040Y23491790I0J12720D01*
G37*
G36*
G01Y22585070D02*
Y22734930D01*
G02X41747760Y22747650I12720J0D01*
G01X42032240D01*
G02X42044960Y22734930I0J-12720D01*
G01Y22585070D01*
G02X42032240Y22572350I-12720J0D01*
G01X41747760D01*
G02X41735040Y22585070I0J12720D01*
G37*
G36*
G01X40475040Y22115070D02*
Y22264930D01*
G02X40487760Y22277650I12720J0D01*
G01X40772240D01*
G02X40784960Y22264930I0J-12720D01*
G01Y22115070D01*
G02X40772240Y22102350I-12720J0D01*
G01X40487760D01*
G02X40475040Y22115070I0J12720D01*
G37*
G36*
G01X39795040Y22105070D02*
Y22254930D01*
G02X39807760Y22267650I12720J0D01*
G01X40092240D01*
G02X40104960Y22254930I0J-12720D01*
G01Y22105070D01*
G02X40092240Y22092350I-12720J0D01*
G01X39807760D01*
G02X39795040Y22105070I0J12720D01*
G37*
G36*
G01X37292350Y23107760D02*
Y23392240D01*
G02X37305070Y23404960I12720J0D01*
G01X37454930D01*
G02X37467650Y23392240I0J-12720D01*
G01Y23107760D01*
G02X37454930Y23095040I-12720J0D01*
G01X37305070D01*
G02X37292350Y23107760I0J12720D01*
G37*
G36*
G01X46455350Y25321260D02*
G02X46429930Y25295840I-25420J0D01*
G01X46280070D01*
G02X46254650Y25321260I0J25420D01*
G01Y25425380D01*
X46122400D01*
X46108900Y25411880D01*
X46051480D01*
Y25383940D01*
G02X46026060Y25358520I-25425J5D01*
G01X45893940D01*
G02X45868520Y25383940I5J25425D01*
G01Y25516060D01*
G02X45893940Y25541480I25425J-5D01*
G01X46026060D01*
G02X46051480Y25516060I-5J-25425D01*
G01Y25488120D01*
X46077320D01*
X46090820Y25501620D01*
X46254650D01*
Y25605740D01*
G02X46280070Y25631160I25420J0D01*
G01X46429930D01*
G02X46455350Y25605740I0J-25420D01*
G01Y25321260D01*
G37*
G36*
G01X46843970Y25295840D02*
Y25179920D01*
G02X46755030I-44470J-33920D01*
G01Y25253300D01*
X46737250Y25271080D01*
Y25295840D01*
X46706790D01*
G02X46681370Y25321260I0J25420D01*
G01Y25605740D01*
G02X46706790Y25631160I25420J0D01*
G01X46856650D01*
G02X46882070Y25605740I0J-25420D01*
G01Y25321260D01*
G02X46856650Y25295840I-25420J0D01*
G01X46843970D01*
G37*
G36*
G01X38726130Y24686260D02*
G02X38700710Y24660840I-25420J0D01*
G01X38550850D01*
G02X38525430Y24686260I0J25420D01*
G01Y24790380D01*
X38147710D01*
X37893710Y25044380D01*
X37442180D01*
Y25003740D01*
G02X37416760Y24978320I-25425J5D01*
G01X37259240D01*
G02X37233820Y25003740I5J25425D01*
G01Y25161260D01*
G02X37259240Y25186680I25425J-5D01*
G01X37416760D01*
G02X37442180Y25161260I-5J-25425D01*
G01Y25120620D01*
X37925290D01*
X38179290Y24866620D01*
X38525430D01*
Y24970740D01*
G02X38550850Y24996160I25420J0D01*
G01X38700710D01*
G02X38726130Y24970740I0J-25420D01*
G01Y24686260D01*
G37*
G36*
G01Y24178260D02*
G02X38700710Y24152840I-25420J0D01*
G01X38550850D01*
G02X38525430Y24178260I0J25420D01*
G01Y24282380D01*
X38401710D01*
X37893710Y24790380D01*
X37434960D01*
G02Y24866620I-96960J38120D01*
G01X37925290D01*
X38433290Y24358620D01*
X38525430D01*
Y24462740D01*
G02X38550850Y24488160I25420J0D01*
G01X38700710D01*
G02X38726130Y24462740I0J-25420D01*
G01Y24178260D01*
G37*
G36*
G01X45159780Y24385690D02*
G03X45152590Y24403030I-7188J7180D01*
G01X45118920D01*
G02X45051080I-33920J44470D01*
G01X45003080D01*
X44950570Y24455540D01*
X44948950Y24455810D01*
G02X45013190Y24520050I9050J55190D01*
G01X45013460Y24518430D01*
X45039920Y24491970D01*
X45051040D01*
X45052370Y24492920D01*
G02X45117630I32630J-45420D01*
G01X45118960Y24491970D01*
X45130080D01*
X45195530Y24557420D01*
Y24590920D01*
G03X45180960Y24600070I-10160J-3D01*
G02X45120130Y24616350I-20958J43476D01*
G03X45104680Y24617940I-8396J-5724D01*
G02X45055320I-24680J25605D01*
G03X45039870Y24616350I-7054J-7314D01*
G02X44966960Y24608370I-39868J27198D01*
G03X44953040I-6960J-7410D01*
G02X44871740Y24643540I-33039J35180D01*
G01Y24775660D01*
G02X44946200Y24816190I48263J-5D01*
G03X44961880Y24824720I5520J8529D01*
G01Y24949790D01*
X45500210Y25488120D01*
X45559340D01*
G02Y25411880I83160J-38120D01*
G01X45531790D01*
X45038120Y24918210D01*
Y24805260D01*
G02X45039870Y24802850I-38160J-29550D01*
G03X45055320Y24801260I8396J5724D01*
G02X45104680I24680J-25605D01*
G03X45120130Y24802850I7054J7314D01*
G02X45190050Y24813420I39870J-27197D01*
G03X45197200Y24814250I3162J3977D01*
G02X45217160Y24823920I19953J-15751D01*
G01X45262840D01*
G02X45282800Y24814250I7J-25421D01*
G03X45289950Y24813420I3988J3147D01*
G02X45294080Y24816370I30079J-37745D01*
G03X45295810Y24832130I-5451J8573D01*
G01X45274060Y24853880D01*
X45252930D01*
G02Y24930120I-40930J38120D01*
G01X45284190D01*
G03X45294070Y24942620I-5J10159D01*
G02X45404430Y24955580I54429J12875D01*
G01Y24953480D01*
X45518220Y24839690D01*
Y24805260D01*
G02X45528360Y24775660I-38124J-29597D01*
G01Y24643540D01*
G02X45447060Y24608370I-48261J10D01*
G03X45433140I-6960J-7410D01*
G02X45373810Y24603070I-33044J35176D01*
G03X45358120Y24594550I-5530J-8523D01*
G01Y24476210D01*
X45077430Y24195520D01*
Y24193420D01*
G02X45021420Y24249430I-55930J80D01*
G01X45023520D01*
X45159780Y24385690D01*
G37*
G36*
G01X43643570Y23797260D02*
G02X43618150Y23771840I-25420J0D01*
G01X43468290D01*
G02X43442870Y23797260I0J25420D01*
G01Y24081740D01*
G02X43468290Y24107160I25420J0D01*
G01X43618150D01*
G02X43643570Y24081740I0J-25420D01*
G01Y24037010D01*
G03X43660910Y24029820I10160J-2D01*
G01X43967210Y24336120D01*
X44323040D01*
G02Y24259880I96960J-38120D01*
G01X43998790D01*
X43643570Y23904660D01*
Y23797260D01*
G37*
G36*
G01X38726130Y23670260D02*
G02X38700710Y23644840I-25420J0D01*
G01X38550850D01*
G02X38525430Y23670260I0J25420D01*
G01Y23774380D01*
X38465210D01*
X37703210Y24536380D01*
X37434960D01*
G02Y24612620I-96960J38120D01*
G01X37734790D01*
X38496790Y23850620D01*
X38525430D01*
Y23954740D01*
G02X38550850Y23980160I25420J0D01*
G01X38700710D01*
G02X38726130Y23954740I0J-25420D01*
G01Y23670260D01*
G37*
G36*
G01X39127430Y23136840D02*
X38977570D01*
G02X38952150Y23162260I0J25420D01*
G01Y23446740D01*
G02X38977570Y23472160I25420J0D01*
G01X39127430D01*
G02X39152850Y23446740I0J-25420D01*
G01Y23342620D01*
X39290710D01*
X39522380Y23574290D01*
Y24320190D01*
X39916730Y24714540D01*
G03X39909540Y24731880I-7188J7180D01*
G01X39835290D01*
X39100910Y23997500D01*
G03X39108100Y23980160I7188J-7180D01*
G01X39127430D01*
G02X39152850Y23954740I0J-25420D01*
G01Y23670260D01*
G02X39127430Y23644840I-25420J0D01*
G01X38977570D01*
G02X38952150Y23670260I0J25420D01*
G01Y23954740D01*
G02X38977570Y23980160I25420J0D01*
G01X39014380D01*
Y24018790D01*
X39145270Y24149680D01*
X39139370Y24155580D01*
X39136310Y24154440D01*
G02X39127430Y24152840I-8876J23821D01*
G01X38977570D01*
G02X38952150Y24178260I0J25420D01*
G01Y24462740D01*
G02X38977570Y24488160I25420J0D01*
G01X39098940D01*
X39223400Y24612620D01*
X39417710D01*
X39679730Y24874640D01*
G03X39672540Y24891980I-7188J7180D01*
G01X39270220D01*
X39168620Y24790380D01*
X39152850D01*
Y24686260D01*
G02X39127430Y24660840I-25420J0D01*
G01X38977570D01*
G02X38952150Y24686260I0J25420D01*
G01Y24970740D01*
G02X38977570Y24996160I25420J0D01*
G01X39127430D01*
G02X39152850Y24970740I0J-25420D01*
G01Y24906960D01*
G03X39170190Y24899770I10160J-2D01*
G01X39238640Y24968220D01*
X39964740D01*
G02X39967150Y24969970I29550J-38160D01*
G03X39968740Y24985420I-5724J8396D01*
G02X39994340Y25045660I25607J24677D01*
G01X40126460D01*
G02X40152060Y24985420I-7J-35563D01*
G03X40153650Y24969970I7314J-7054D01*
G02X40161600Y24897010I-27194J-39876D01*
G03Y24883090I7393J-6960D01*
G02X40164220Y24819950I-35145J-33083D01*
G03X40165050Y24812800I3977J-3162D01*
G02X40174720Y24792840I-15751J-19953D01*
G01Y24747160D01*
G02X40165050Y24727200I-25421J-7D01*
G03X40164220Y24720050I3147J-3988D01*
G02X40161630Y24656960I-37767J-30048D01*
G03Y24643040I7410J-6960D01*
G02Y24576960I-35175J-33040D01*
G03Y24563040I7410J-6960D01*
G02Y24496960I-35175J-33040D01*
G03Y24483040I7410J-6960D01*
G02X40126460Y24401740I-35180J-33039D01*
G01X39999990D01*
X39806930Y24208670D01*
Y24206570D01*
G02X39750920Y24262580I-55930J80D01*
G01X39753020D01*
X39946420Y24455980D01*
X39946680Y24457610D01*
G02X39959170Y24483040I47658J-7625D01*
G03Y24496960I-7410J6960D01*
G02Y24563040I35175J33040D01*
G03Y24576960I-7410J6960D01*
G02X39946100Y24611290I35175J33045D01*
G03X39928760Y24618750I-10157J274D01*
G01X39598620Y24288610D01*
Y23542710D01*
X39322290Y23266380D01*
X39152850D01*
Y23162260D01*
G02X39127430Y23136840I-25420J0D01*
G37*
G36*
G01X37907070Y23107760D02*
G02X37881650Y23082340I-25420J0D01*
G01X37731790D01*
G02X37706370Y23107760I0J25420D01*
G01Y23392240D01*
G02X37731790Y23417660I25420J0D01*
G01X37768600D01*
Y24216990D01*
X37703210Y24282380D01*
X37434960D01*
G02Y24358620I-96960J38120D01*
G01X37734790D01*
X37844840Y24248570D01*
Y23417660D01*
X37881650D01*
G02X37907070Y23392240I0J-25420D01*
G01Y23288120D01*
X38093210D01*
X38147710Y23342620D01*
X38525430D01*
Y23446740D01*
G02X38550850Y23472160I25420J0D01*
G01X38700710D01*
G02X38726130Y23446740I0J-25420D01*
G01Y23162260D01*
G02X38700710Y23136840I-25420J0D01*
G01X38550850D01*
G02X38525430Y23162260I0J25420D01*
G01Y23266380D01*
X38179290D01*
X38124790Y23211880D01*
X37907070D01*
Y23107760D01*
G37*
G36*
G01X42057660Y23065070D02*
G02X42032240Y23039650I-25420J0D01*
G01X41747760D01*
G02X41722340Y23065070I0J25420D01*
G01Y23214930D01*
G02X41747760Y23240350I25420J0D01*
G01X41811540D01*
G03X41818730Y23257690I2J10160D01*
G01X41619540Y23456880D01*
X41442930D01*
G02Y23533120I-40930J38120D01*
G01X41651120D01*
X41928120Y23256120D01*
Y23240350D01*
X42032240D01*
G02X42057660Y23214930I0J-25420D01*
G01Y23065070D01*
G37*
G36*
G01X42032240Y22132930D02*
X41747760D01*
G02X41722340Y22158350I0J25420D01*
G01Y22195160D01*
X41568430D01*
X41531020Y22232570D01*
X41528920D01*
G02X41584930Y22288580I80J55930D01*
G01Y22286480D01*
X41600010Y22271400D01*
X41722340D01*
Y22308210D01*
G02X41747760Y22333630I25420J0D01*
G01X42003750D01*
X42203920Y22533800D01*
Y22906750D01*
X42766790Y23469620D01*
X43016150D01*
Y23573740D01*
G02X43041570Y23599160I25420J0D01*
G01X43191410D01*
Y23620180D01*
X43090550Y23721040D01*
X43009990D01*
X42506880Y24224150D01*
Y24876210D01*
X42275210Y25107880D01*
X41921980D01*
X41819850Y25005750D01*
Y24749760D01*
G02X41794430Y24724340I-25420J0D01*
G01X41644570D01*
G02X41619150Y24749760I0J25420D01*
G01Y24853880D01*
X41335400D01*
X41297300Y24891980D01*
X41123550D01*
G03X41117550Y24873620I-2J-10160D01*
G02X41096460Y24773860I-33049J-45122D01*
G03X41091450Y24756760I2178J-9922D01*
G01X41172090Y24676120D01*
X41943740D01*
X42045870Y24778250D01*
Y25034240D01*
G02X42071290Y25059660I25420J0D01*
G01X42221150D01*
G02X42246570Y25034240I0J-25420D01*
G01Y24749760D01*
G02X42221150Y24724340I-25420J0D01*
G01X42099780D01*
X41975320Y24599880D01*
X41140510D01*
X41041640Y24698750D01*
G03X41024300Y24691290I-7183J-7186D01*
G02X41019530Y24669040I-48246J-1293D01*
G03X41028680Y24654470I9153J-4410D01*
G01X41067420D01*
X41801420Y23920470D01*
X42118920D01*
X42552430Y23486960D01*
X42554050Y23486690D01*
G02X42489810Y23422450I-9050J-55190D01*
G01X42489540Y23424070D01*
X42082080Y23831530D01*
X41764580D01*
X41030580Y24565530D01*
X41019860D01*
G03X41015680Y24557550I-7J-5081D01*
G02X41013820Y24499950I-39626J-27550D01*
G03X41014650Y24492800I3977J-3162D01*
G02X41024320Y24472840I-15751J-19953D01*
G01Y24427160D01*
G02X40998900Y24401740I-25420J0D01*
G01X40821100D01*
G02X40820290Y24401750I-91J25416D01*
G03X40810450Y24388060I-317J-10154D01*
G02X40813460Y24371260I-45255J-16778D01*
G01Y24239140D01*
G02X40725330Y24211950I-48262J9D01*
G03X40709880Y24213540I-8396J-5724D01*
G02X40665700Y24209410I-24677J25607D01*
G03X40650960Y24205300I-5574J-8497D01*
G02X40643320Y24195980I-22919J10996D01*
G01Y24180590D01*
X41122620Y23701290D01*
Y22646930D01*
G02X41046380I-38120J-40930D01*
G01Y23669710D01*
X40567080Y24149010D01*
Y24195980D01*
G02X40559440Y24205300I15279J20316D01*
G03X40544700Y24209410I-9166J-4387D01*
G02X40500520Y24213540I-19503J29737D01*
G03X40485070Y24211950I-7054J-7314D01*
G02X40483320Y24209540I-39910J27140D01*
G01Y24150090D01*
X40818120Y23815290D01*
Y23723160D01*
G02Y23556840I-38120J-83160D01*
G01Y23174710D01*
X40668120Y23024710D01*
Y22717070D01*
X40772240D01*
G02X40797660Y22691650I0J-25420D01*
G01Y22541790D01*
G02X40772240Y22516370I-25420J0D01*
G01X40487760D01*
G02X40462340Y22541790I0J25420D01*
G01Y22691650D01*
G02X40487760Y22717070I25420J0D01*
G01X40591880D01*
Y23056290D01*
X40741880Y23206290D01*
Y23556840D01*
G02Y23723160I38120J83160D01*
G01Y23783710D01*
X40420660Y24104930D01*
G03X40403320Y24097740I-7180J-7188D01*
G01Y23971410D01*
X40103800Y23671890D01*
X40104790Y23668910D01*
G02X40056120Y23556840I-86791J-28912D01*
G01Y23111210D01*
X39988120Y23043210D01*
Y22707070D01*
X40092240D01*
G02X40117660Y22681650I0J-25420D01*
G01Y22531790D01*
G02X40092240Y22506370I-25420J0D01*
G01X39807760D01*
G02X39782340Y22531790I0J25420D01*
G01Y22681650D01*
G02X39807760Y22707070I25420J0D01*
G01X39911880D01*
Y23074790D01*
X39979880Y23142790D01*
Y23556840D01*
G02X40046910Y23726790I38122J83158D01*
G01X40049890Y23725800D01*
X40327080Y24002990D01*
Y24081860D01*
G03X40309740Y24089050I-10160J2D01*
G01X39731970Y23511280D01*
Y22524080D01*
X39461480Y22253580D01*
Y22158940D01*
G02X39436060Y22133520I-25425J5D01*
G01X39303940D01*
G02X39278520Y22158940I5J25425D01*
G01Y22180530D01*
X38762980D01*
Y22158940D01*
G02X38737560Y22133520I-25425J5D01*
G01X38605440D01*
G02X38580020Y22158940I5J25425D01*
G01Y22180530D01*
X38064480D01*
Y22158940D01*
G02X38039060Y22133520I-25425J5D01*
G01X37906940D01*
G02X37881520Y22158940I5J25425D01*
G01Y22291060D01*
G02X37906940Y22316480I25425J-5D01*
G01X38039060D01*
G02X38064480Y22291060I-5J-25425D01*
G01Y22269470D01*
X38580020D01*
Y22291060D01*
G02X38605440Y22316480I25425J-5D01*
G01X38737560D01*
G02X38762980Y22291060I-5J-25425D01*
G01Y22269470D01*
X39278520D01*
Y22291060D01*
G02X39303940Y22316480I25425J-5D01*
G01X39398580D01*
X39643030Y22560920D01*
Y23548120D01*
X40240730Y24145820D01*
Y24186520D01*
G03X40226160Y24195670I-10160J-3D01*
G02X40156940Y24239140I-20957J43475D01*
G01Y24267080D01*
X40132490D01*
X40060930Y24195520D01*
Y24193420D01*
G02X40004920Y24249430I-55930J80D01*
G01X40007020D01*
X40100910Y24343320D01*
X40156940D01*
Y24371260D01*
G02X40226160Y24414730I48263J-5D01*
G03X40240730Y24423880I4410J9153D01*
G01Y24444280D01*
X40450920Y24654470D01*
X40599610D01*
G03X40606800Y24671810I2J10160D01*
G01X40400730Y24877880D01*
Y25050700D01*
G03X40384930Y25059160I-10161J7D01*
G02X40340520Y25063140I-19732J29587D01*
G03X40325070Y25061550I-7054J-7314D01*
G02X40252160Y25053570I-39868J27198D01*
G03X40238240I-6960J-7410D01*
G02X40156940Y25088740I-33039J35180D01*
G01Y25220860D01*
G02X40238240Y25256030I48261J-10D01*
G03X40252160I6960J7410D01*
G02X40325070Y25248050I33042J-35178D01*
G03X40340520Y25246460I8396J5724D01*
G02X40389880I24680J-25605D01*
G03X40405330Y25248050I7054J7314D01*
G02X40478240Y25256030I39868J-27198D01*
G03X40492160I6960J7410D01*
G02X40558240I33040J-35175D01*
G03X40572160I6960J7410D01*
G02X40635250Y25258620I33042J-35177D01*
G03X40642400Y25259450I3162J3977D01*
G02X40662360Y25269120I19953J-15751D01*
G01X40708040D01*
G02X40730960Y25254700I4J-25419D01*
G03X40745700Y25250590I9166J4387D01*
G02X40800760Y25220860I19499J-29739D01*
G01Y25088740D01*
G02X40745700Y25059010I-35561J9D01*
G03X40730960Y25054900I-5574J-8497D01*
G02X40708040Y25040480I-22916J10999D01*
G01X40662360D01*
G02X40642400Y25050150I-7J25421D01*
G03X40635250Y25050980I-3988J-3147D01*
G02X40572160Y25053570I-30048J37767D01*
G03X40558240I-6960J-7410D01*
G02X40504240Y25045270I-33045J35176D01*
G03X40489670Y25036120I-4410J-9153D01*
G01Y24914720D01*
X40669920Y24734470D01*
X40791320D01*
G03X40800470Y24749040I-3J10160D01*
G02X40808770Y24803040I43476J20955D01*
G03Y24816960I-7410J6960D01*
G02X40808800Y24883090I35175J33049D01*
G03Y24897010I-7393J6960D01*
G02X40808770Y24963140I35145J33081D01*
G03Y24977060I-7410J6960D01*
G02X40843940Y25058360I35180J33039D01*
G01X40976060D01*
G02X41005660Y25048220I3J-48264D01*
G01X41059810D01*
X41155570Y25143980D01*
Y25146080D01*
G02X41211580Y25090070I55930J-80D01*
G01X41209480D01*
X41104970Y24985560D01*
G03X41112160Y24968220I7188J-7180D01*
G01X41328880D01*
X41366980Y24930120D01*
X41619150D01*
Y25034240D01*
G02X41644570Y25059660I25420J0D01*
G01X41765940D01*
X41890400Y25184120D01*
X42306790D01*
X42583120Y24907790D01*
Y24255730D01*
X42998810Y23840040D01*
G03X43016150Y23847230I7180J7188D01*
G01Y24053250D01*
X42898950Y24170450D01*
X42895140D01*
X42824380Y24241210D01*
Y25003210D01*
X42529210Y25298380D01*
X39766800D01*
X39512800Y25044380D01*
X38465210D01*
X38141640Y25367950D01*
X38138540Y25366710D01*
G02X38196790Y25424960I-38540J96790D01*
G01X38195550Y25421860D01*
X38496790Y25120620D01*
X39481220D01*
X39735220Y25374620D01*
X42560790D01*
X42900620Y25034790D01*
Y24272790D01*
X42926720Y24246690D01*
X42930530D01*
X43070060Y24107160D01*
X43191430D01*
G02X43209060Y24100060I6J-25423D01*
G03X43223280Y24100190I7044J7319D01*
G01X43354710Y24231620D01*
X43672210D01*
X43759070Y24318480D01*
Y24320580D01*
G02X43815080Y24264570I55930J-80D01*
G01X43812980D01*
X43703790Y24155380D01*
X43386290D01*
X43216850Y23985940D01*
Y23797260D01*
G02X43191430Y23771840I-25420J0D01*
G01X43172100D01*
G03X43164910Y23754500I-2J-10160D01*
G01X43267650Y23651760D01*
Y23167780D01*
X43172400Y23072530D01*
Y22964160D01*
X43209210D01*
G02X43234630Y22938740I0J-25420D01*
G01Y22654260D01*
G02X43209210Y22628840I-25420J0D01*
G01X43059350D01*
G02X43033930Y22654260I0J25420D01*
G01Y22938740D01*
G02X43059350Y22964160I25420J0D01*
G01X43096160D01*
Y23104110D01*
X43191410Y23199360D01*
Y23263840D01*
X43041570D01*
G02X43016150Y23289260I0J25420D01*
G01Y23393380D01*
X42798370D01*
X42280160Y22875170D01*
Y22502220D01*
X42057660Y22279720D01*
Y22158350D01*
G02X42032240Y22132930I-25420J0D01*
G37*
G36*
G01X44910290Y22136120D02*
X46060070D01*
G02Y22059880I40930J-38120D01*
G01X44878710D01*
X44688210Y22250380D01*
X43661350D01*
Y22146260D01*
G02X43635930Y22120840I-25420J0D01*
G01X43486070D01*
G02X43460650Y22146260I0J25420D01*
G01Y22430740D01*
G02X43486070Y22456160I25420J0D01*
G01X43635930D01*
G02X43661350Y22430740I0J-25420D01*
G01Y22326620D01*
X44719790D01*
X44910290Y22136120D01*
G37*
G36*
G01X42624290Y22250380D02*
X42370290Y21996380D01*
X41576710D01*
X41173380Y22399710D01*
Y23771570D01*
G02X41249620I38120J40930D01*
G01Y22431290D01*
X41608290Y22072620D01*
X42338710D01*
X42592710Y22326620D01*
X43033930D01*
Y22430740D01*
G02X43059350Y22456160I25420J0D01*
G01X43209210D01*
G02X43234630Y22430740I0J-25420D01*
G01Y22146260D01*
G02X43209210Y22120840I-25420J0D01*
G01X43059350D01*
G02X43033930Y22146260I0J25420D01*
G01Y22250380D01*
X42624290D01*
G37*
G36*
G01X46116790Y22186880D02*
X45132710D01*
X44561210Y22758380D01*
X43661350D01*
Y22654260D01*
G02X43635930Y22628840I-25420J0D01*
G01X43486070D01*
G02X43460650Y22654260I0J25420D01*
G01Y22938740D01*
G02X43486070Y22964160I25420J0D01*
G01X43635930D01*
G02X43661350Y22938740I0J-25420D01*
G01Y22834620D01*
X44592790D01*
X45164290Y22263120D01*
X45425850D01*
G03X45435130Y22277410I-1J10159D01*
G02X45432930Y22287760I23221J10345D01*
G01Y22572240D01*
G02X45458350Y22597660I25420J0D01*
G01X45570740D01*
X45612250Y22639170D01*
X45730280D01*
X45894780Y22803670D01*
G03X45891190Y22812340I-3594J3590D01*
G01X45885070D01*
G02X45859650Y22837760I0J25420D01*
G01Y22912230D01*
G03X45842310Y22919420I-10160J2D01*
G01X45611420Y22688530D01*
X44939590D01*
X44241090Y23387030D01*
X43643570D01*
Y23289260D01*
G02X43618150Y23263840I-25420J0D01*
G01X43587690D01*
Y23239080D01*
X43481640Y23133030D01*
X43404420D01*
G02Y23221970I-33920J44470D01*
G01X43444800D01*
X43478000Y23255170D01*
G03X43474410Y23263840I-3594J3590D01*
G01X43468290D01*
G02X43442870Y23289260I0J25420D01*
G01Y23573740D01*
G02X43468290Y23599160I25420J0D01*
G01X43618150D01*
G02X43643570Y23573740I0J-25420D01*
G01Y23475970D01*
X44277930D01*
X44976430Y22777470D01*
X45574580D01*
X45592110Y22795000D01*
G03X45584920Y22812340I-7188J7180D01*
G01X45458350D01*
G02X45432930Y22837760I0J25420D01*
G01Y22941880D01*
X45393720D01*
X44881880Y23453720D01*
Y23750780D01*
G02X44871740Y23771100I15278J20314D01*
G01Y23821880D01*
X44751960D01*
X44538880Y24034960D01*
Y24887210D01*
X44470270Y24955820D01*
X44341240D01*
G02X44315820Y24981240I5J25425D01*
G01Y25110270D01*
X44000710Y25425380D01*
X43894290D01*
X43670370Y25201460D01*
G03X43677560Y25184120I7188J-7180D01*
G01X43735710D01*
X43822570Y25270980D01*
Y25273080D01*
G02X43878580Y25217070I55930J-80D01*
G01X43876480D01*
X43767290Y25107880D01*
X43643150D01*
Y25102380D01*
X43643220Y25101960D01*
G02X43643570Y25097740I-25071J-4204D01*
G01Y24993620D01*
X43703790D01*
X43853290Y24844120D01*
X44323040D01*
G02Y24767880I96960J-38120D01*
G01X43821710D01*
X43672210Y24917380D01*
X43643570D01*
Y24813260D01*
G02X43643220Y24809040I-25421J-16D01*
G01X43643150Y24808620D01*
Y24803120D01*
X43703790D01*
X43830790Y24676120D01*
X43901070D01*
G02Y24599880I40930J-38120D01*
G01X43643150D01*
Y24594380D01*
X43643220Y24593960D01*
G02X43643570Y24589740I-25071J-4204D01*
G01Y24485620D01*
X44299710D01*
X44324450Y24510360D01*
X44323210Y24513460D01*
G02X44381460Y24455210I96790J38540D01*
G01X44378360Y24456450D01*
X44331290Y24409380D01*
X43643570D01*
Y24305260D01*
G02X43618150Y24279840I-25420J0D01*
G01X43468290D01*
G02X43442870Y24305260I0J25420D01*
G01Y24568430D01*
G03X43425530Y24575620I-10160J2D01*
G01X43259290Y24409380D01*
X43216850D01*
Y24305260D01*
G02X43191430Y24279840I-25420J0D01*
G01X43041570D01*
G02X43016150Y24305260I0J25420D01*
G01Y24589740D01*
G02X43041570Y24615160I25420J0D01*
G01X43191430D01*
G02X43216850Y24589740I0J-25420D01*
G01Y24485620D01*
X43227710D01*
X43418210Y24676120D01*
X43698440D01*
G03X43705630Y24693460I2J10160D01*
G01X43672210Y24726880D01*
X43020150D01*
X42965350Y24781680D01*
Y25049680D01*
X42589650Y25425380D01*
X39639790D01*
X39385790Y25171380D01*
X38592210D01*
X38395640Y25367950D01*
X38392540Y25366710D01*
G02X38450790Y25424960I-38540J96790D01*
G01X38449550Y25421860D01*
X38623790Y25247620D01*
X39354210D01*
X39608210Y25501620D01*
X42621230D01*
X43008200Y25114650D01*
G03X43022860Y25114950I7186J7181D01*
G02X43041570Y25123160I18710J-17214D01*
G01X43078380D01*
Y25138930D01*
X43079100Y25139650D01*
Y25193710D01*
X42720430Y25552380D01*
X39576290D01*
X39322290Y25298380D01*
X38719210D01*
X38649640Y25367950D01*
X38646540Y25366710D01*
G02X38704790Y25424960I-38540J96790D01*
G01X38703550Y25421860D01*
X38750790Y25374620D01*
X38758250D01*
Y25380120D01*
X38758180Y25380540D01*
G02X38757820Y25384740I25060J4263D01*
G01Y25542260D01*
G02X38783240Y25567680I25425J-5D01*
G01X38912270D01*
X39100210Y25755620D01*
X42963380D01*
X43087840Y25631160D01*
X43209210D01*
G02X43234630Y25605740I0J-25420D01*
G01Y25349750D01*
X43336760Y25247620D01*
X43608710D01*
X43653770Y25292680D01*
X43647870Y25298580D01*
X43644810Y25297440D01*
G02X43635930Y25295840I-8876J23821D01*
G01X43486070D01*
G02X43460650Y25321260I0J25420D01*
G01Y25605740D01*
G02X43486070Y25631160I25420J0D01*
G01X43635930D01*
G02X43661350Y25605740I0J-25420D01*
G01Y25501620D01*
X43735710D01*
X43862710Y25628620D01*
X45735790D01*
X45821620Y25542790D01*
Y24755960D01*
X45694970Y24629310D01*
G03X45700190Y24612150I7180J-7190D01*
G02X45726030Y24531760I-9339J-47350D01*
G03Y24517840I7410J-6960D01*
G02Y24451760I-35175J-33040D01*
G03Y24437840I7410J-6960D01*
G02Y24371760I-35175J-33040D01*
G03Y24357840I7410J-6960D01*
G02Y24291760I-35175J-33040D01*
G03Y24277840I7410J-6960D01*
G02Y24211760I-35175J-33040D01*
G03Y24197840I7410J-6960D01*
G02X45739120Y24164180I-35170J-33053D01*
G03X45756460Y24156870I10158J-126D01*
G01X46078700Y24479110D01*
X46077710Y24482090D01*
G02X46247660Y24549120I86792J28908D01*
G01X46716930D01*
Y24653240D01*
G02X46742350Y24678660I25420J0D01*
G01X46892210D01*
G02X46917630Y24653240I0J-25420D01*
G01Y24368760D01*
G02X46892210Y24343340I-25420J0D01*
G01X46742350D01*
G02X46716930Y24368760I0J25420D01*
G01Y24472880D01*
X46247660D01*
G02X46135590Y24424210I-83158J38121D01*
G01X46132610Y24425200D01*
X45767670Y24060260D01*
G03X45774860Y24042920I7188J-7180D01*
G01X45818390D01*
X46074190Y23787120D01*
X46081280D01*
X46082690Y23789930D01*
G02X46247660Y23787120I81812J-40931D01*
G01X46624790D01*
X46780510Y23631400D01*
X46912340D01*
Y23668210D01*
G02X46937760Y23693630I25420J0D01*
G01X47222240D01*
G02X47247660Y23668210I0J-25420D01*
G01Y23518350D01*
G02X47222240Y23492930I-25420J0D01*
G01X46937760D01*
G02X46912340Y23518350I0J25420D01*
G01Y23555160D01*
X46748930D01*
X46593210Y23710880D01*
X46247660D01*
G02X46081340I-83160J38120D01*
G01X46042610D01*
X45786810Y23966680D01*
X45720460D01*
G02X45690860Y23956540I-29597J38124D01*
G01X45558740D01*
G02X45520980Y24034850I7J48262D01*
G03X45520150Y24042000I-3977J3162D01*
G02X45510480Y24061960I15751J19953D01*
G01Y24107640D01*
G02X45520150Y24127600I25421J7D01*
G03X45520980Y24134750I-3147J3988D01*
G02X45523570Y24197840I37767J30048D01*
G03Y24211760I-7410J6960D01*
G02Y24277840I35175J33040D01*
G03Y24291760I-7410J6960D01*
G02Y24357840I35175J33040D01*
G03Y24371760I-7410J6960D01*
G02Y24437840I35175J33040D01*
G03Y24451760I-7410J6960D01*
G02Y24517840I35175J33040D01*
G03Y24531760I-7410J6960D01*
G02X45558740Y24613060I35180J33039D01*
G01X45586680D01*
Y24628840D01*
X45745380Y24787540D01*
Y25511210D01*
X45704210Y25552380D01*
X43894290D01*
X43767290Y25425380D01*
X43661350D01*
Y25321260D01*
G02X43659750Y25312380I-25421J-4D01*
G01X43658610Y25309320D01*
X43664510Y25303420D01*
X43862710Y25501620D01*
X44032290D01*
X44369730Y25164180D01*
X44498760D01*
G02X44524180Y25138760I-5J-25425D01*
G01Y25009730D01*
X44615120Y24918790D01*
Y24066540D01*
X44652670Y24028990D01*
G03X44668430Y24030720I7187J7181D01*
G02X44673970Y24037840I40693J-25948D01*
G03Y24051760I-7410J6960D01*
G02X44671380Y24114850I35177J33042D01*
G03X44670550Y24122000I-3977J3162D01*
G02X44660880Y24141960I15751J19953D01*
G01Y24187640D01*
G02X44670550Y24207600I25421J7D01*
G03X44671380Y24214750I-3147J3988D01*
G02X44673970Y24277840I37767J30048D01*
G03Y24291760I-7410J6960D01*
G02Y24357840I35175J33040D01*
G03Y24371760I-7410J6960D01*
G02Y24437840I35175J33040D01*
G03Y24451760I-7410J6960D01*
G02Y24517840I35175J33040D01*
G03Y24531760I-7410J6960D01*
G02X44709140Y24613060I35180J33039D01*
G01X44841260D01*
G02X44876430Y24531760I-10J-48261D01*
G03Y24517840I7410J-6960D01*
G02Y24451760I-35175J-33040D01*
G03Y24437840I7410J-6960D01*
G02Y24371760I-35175J-33040D01*
G03Y24357840I7410J-6960D01*
G02Y24291760I-35175J-33040D01*
G03Y24277840I7410J-6960D01*
G02X44879020Y24214750I-35177J-33042D01*
G03X44879850Y24207600I3977J-3162D01*
G02X44889520Y24187640I-15751J-19953D01*
G01Y24141960D01*
G02X44879850Y24122000I-25421J-7D01*
G03X44879020Y24114850I3147J-3988D01*
G02X44876430Y24051760I-37767J-30048D01*
G03Y24037840I7410J-6960D01*
G02X44886500Y23988000I-35176J-33044D01*
G03X44896350Y23974310I9524J-3536D01*
G02X44897160Y23974320I719J-25411D01*
G01X44942840D01*
G02X44962800Y23964650I7J-25421D01*
G03X44969950Y23963820I3988J3147D01*
G02X45033040Y23961230I30048J-37767D01*
G03X45046960I6960J7410D01*
G02X45113040I33040J-35175D01*
G03X45126960I6960J7410D01*
G02X45193040I33040J-35175D01*
G03X45206960I6960J7410D01*
G02X45273040I33040J-35175D01*
G03X45286960I6960J7410D01*
G02X45341040Y23969490I33043J-35176D01*
G03X45355630Y23978640I4430J9144D01*
G01Y24113980D01*
X45268070Y24201540D01*
X45266450Y24201810D01*
G02X45330690Y24266050I9050J55190D01*
G01X45330960Y24264430D01*
X45444570Y24150820D01*
Y23964100D01*
G03X45460370Y23955640I10161J-7D01*
G02X45515660Y23926060I19728J-29588D01*
G01Y23793940D01*
G02X45460370Y23764360I-35562J8D01*
G03X45444570Y23755900I-5639J-8453D01*
G01Y23732320D01*
X46004470Y23172420D01*
Y23147660D01*
X46034930D01*
G02X46060350Y23122240I0J-25420D01*
G01Y22837760D01*
G02X46034930Y22812340I-25420J0D01*
G01X46004470D01*
Y22787580D01*
X45767120Y22550230D01*
X45649090D01*
X45633630Y22534770D01*
Y22287760D01*
G02X45631430Y22277410I-25421J-5D01*
G03X45640710Y22263120I9281J-4131D01*
G01X45852570D01*
G03X45861850Y22277410I-1J10159D01*
G02X45859650Y22287760I23221J10345D01*
G01Y22572240D01*
G02X45885070Y22597660I25420J0D01*
G01X45921880D01*
Y22645890D01*
X46086110Y22810120D01*
X46141780D01*
Y23098620D01*
X46949220D01*
Y22303880D01*
X46233790D01*
X46116790Y22186880D01*
G37*
G54D29*
X47250000Y22170000D03*
X47260000Y25500000D03*
G54D28*
X37973000Y22479000D03*
X38671500D03*
X39370000D03*
G54D27*
X37338000Y24066500D03*
X37846000Y25463500D03*
X44420000Y24044000D03*
%LPD*%
G75*
G36*
G01X40500520Y24396860D02*
G02X40485070Y24398450I-7054J7314D01*
G03X40412160Y24406430I-39868J-27198D01*
G02X40398240I-6960J7410D01*
G03X40366080Y24419510I-33046J-35174D01*
G02X40359080Y24436850I188J10159D01*
G01X40487760Y24565530D01*
X40791320D01*
G02X40800470Y24550960I-3J-10160D01*
G03X40806180Y24499950I43476J-20958D01*
G02X40805350Y24492800I-3977J-3162D01*
G03X40795680Y24472840I15751J-19953D01*
G01Y24427160D01*
G03X40795690Y24426350I25421J-91D01*
G02X40782000Y24416500I-10154J-326D01*
G03X40725330Y24398450I-16798J-45246D01*
G02X40709880Y24396860I-8396J5724D01*
G03X40665700Y24400990I-24677J-25607D01*
G02X40650960Y24405100I-5574J8497D01*
G03X40628040Y24419520I-22916J-10999D01*
G01X40582360D01*
G03X40559440Y24405100I-4J-25419D01*
G02X40544700Y24400990I-9166J4387D01*
G03X40500520Y24396860I-19503J-29737D01*
G37*
G36*
G01X46487020Y22621470D02*
Y22727000D01*
G03X46485650Y22732050I-10018J-7D01*
G02X46486690Y22743760I8776J5122D01*
G03X46489720Y22752000I-9689J8240D01*
G01Y22792000D01*
G03X46486690Y22800240I-12719J0D01*
G02X46485650Y22811950I7736J6588D01*
G03X46487020Y22817000I-8648J5057D01*
G01Y22857000D01*
G03X46484870Y22863210I-10023J7D01*
G02Y22875790I7975J6290D01*
G03X46487020Y22882000I-7871J6202D01*
G01Y22992000D01*
G03X46477000Y23002020I-10020J0D01*
G01X46307000D01*
G03X46296980Y22992000I0J-10020D01*
G01Y22882000D01*
G03X46299130Y22875790I10021J-8D01*
G02Y22863210I-7975J-6290D01*
G03X46296980Y22857000I7873J-6203D01*
G01Y22817000D01*
G03X46298350Y22811950I10018J7D01*
G02X46297310Y22800240I-8776J-5122D01*
G03X46294280Y22792000I9689J-8240D01*
G01Y22752000D01*
G03X46294350Y22750710I12718J43D01*
G01X46294370Y22750460D01*
Y22745120D01*
X46186210D01*
X46169140Y22728050D01*
G02X46151800Y22735240I-7180J7188D01*
G01Y23088600D01*
X46939200D01*
Y22621470D01*
X46487020D01*
G37*
G36*
G01X46268340Y22313900D02*
G02X46261150Y22331240I-2J10160D01*
G01X46266120Y22336210D01*
Y22572610D01*
X46279640Y22586130D01*
G02X46296980Y22578940I7180J-7188D01*
G01Y22557000D01*
G03X46299130Y22550790I10023J-7D01*
G02Y22538210I-7975J-6290D01*
G03X46296980Y22532000I7871J-6202D01*
G01Y22422000D01*
G03X46307000Y22411980I10020J0D01*
G01X46477000D01*
G03X46487020Y22422000I0J10020D01*
G01Y22532530D01*
X46939200D01*
Y22313900D01*
X46268340D01*
G37*
G54D10*
X37400000Y22150000D03*
X37401500Y25527000D03*
X47250000Y22170000D03*
X47260000Y25500000D03*
G54D11*
X37380000Y23250000D03*
X37806720D03*
X38625780Y23304500D03*
Y24320500D03*
Y23812500D03*
Y24828500D03*
X39052500Y23304500D03*
Y24320500D03*
Y23812500D03*
Y24828500D03*
X41719500Y24892000D03*
X42146220D03*
X43134280Y22796500D03*
Y22288500D03*
X43116500Y23431500D03*
Y23939500D03*
Y24955500D03*
Y24447500D03*
X43134280Y25463500D03*
X43561000Y22796500D03*
Y22288500D03*
X43543220Y23431500D03*
Y23939500D03*
Y24955500D03*
Y24447500D03*
X43561000Y25463500D03*
X45960000Y22430000D03*
X45533280D03*
X45960000Y22980000D03*
X45533280D03*
X46817280Y24511000D03*
X46355000Y25463500D03*
X46781720D03*
X47244000Y24511000D03*
G54D20*
X40205200Y24305200D03*
X40285200D03*
X40365200D03*
X40445200D03*
X40525200D03*
X40685200D03*
X40765200D03*
Y25154800D03*
X40605200D03*
X40525200D03*
X40445200D03*
X40365200D03*
X40285200D03*
X40205200D03*
X45000000Y23860000D03*
X45080000D03*
X45160000D03*
X45240000D03*
X45320000D03*
X45400100D03*
Y24709600D03*
X45320000D03*
X45160000D03*
X45080000D03*
X45000000D03*
X44920000D03*
X45480100Y23860000D03*
Y24709600D03*
G54D12*
X37338000Y24066500D03*
Y24320500D03*
Y24574500D03*
Y24828500D03*
X37846000Y25463500D03*
X38608000D03*
X38354000D03*
X38100000D03*
X44420000Y24044000D03*
Y24298000D03*
Y24552000D03*
Y24806000D03*
G54D21*
X40605200Y24305200D03*
X40685200Y25154800D03*
X44920000Y23860000D03*
X45240000Y24709600D03*
G54D13*
X37338000Y25082500D03*
X38862000Y25463500D03*
X44420000Y25060000D03*
G54D22*
X46392000Y22477000D03*
Y22937000D03*
G54D14*
X37973000Y22225000D03*
X38671500D03*
X39370000D03*
X45960000Y25450000D03*
G54D23*
X46392000Y22577000D03*
Y22642000D03*
Y22772000D03*
Y22707000D03*
Y22837000D03*
G54D15*
X37973000Y22479000D03*
X38671500D03*
X39370000D03*
X40018000Y23640000D03*
X40780000D03*
X46164500Y23749000D03*
Y24511000D03*
X45642500Y25450000D03*
G54D24*
X46392000Y22194500D03*
X46762000D03*
X46392000Y23219500D03*
X46762000D03*
G54D25*
G01X37338000Y24320500D02*
X37719000D01*
X37806720Y24232780D01*
Y23250000D01*
G01X38625780Y23304500D02*
X38163500D01*
X38109000Y23250000D01*
X37806720D01*
G01X37338000Y24574500D02*
X37719000D01*
X38481000Y23812500D01*
X38625780D01*
G01X37338000Y24828500D02*
X37909500D01*
X38417500Y24320500D01*
X38625780D01*
G01X37338000Y25082500D02*
X37909500D01*
X38163500Y24828500D01*
X38625780D01*
G01X38354000Y25463500D02*
X38608000Y25209500D01*
X39370000D01*
X39624000Y25463500D01*
X42605440D01*
X43003470Y25065470D01*
Y24797470D01*
X43035940Y24765000D01*
X43688000D01*
X43815000Y24638000D01*
G01X43116500Y24006810D02*
X42914740Y24208570D01*
X42910930D01*
X42862500Y24257000D01*
Y25019000D01*
X42545000Y25336500D01*
X39751010D01*
X39497010Y25082500D01*
X38481000D01*
X38100000Y25463500D01*
G01X39052500Y23304500D02*
X39306500D01*
X39560500Y23558500D01*
Y24304400D01*
X39946100Y24690000D01*
X40060400D01*
G01X39052500Y23812500D02*
Y24003000D01*
X39819500Y24770000D01*
X40060400D01*
G01Y24850000D02*
X39709000D01*
X39433500Y24574500D01*
X39239190D01*
X39052500Y24387810D01*
Y24320500D01*
G01X40060400Y24930100D02*
X39254430D01*
X39152830Y24828500D01*
X39052500D01*
G01X38862000Y25463500D02*
X39116000Y25717500D01*
X42947590D01*
X43134280Y25530810D01*
Y25463500D01*
G01X43116500Y24955500D02*
Y25123140D01*
X43117220Y25123860D01*
Y25209500D01*
X42736220Y25590500D01*
X39560500D01*
X39306500Y25336500D01*
X38735000D01*
X38608000Y25463500D01*
G01X40018000Y23640000D02*
Y23127000D01*
X39950000Y23059000D01*
Y22606720D01*
G01X40205200Y24305200D02*
X40116700D01*
X40005000Y24193500D01*
G01X40060400Y24450000D02*
X39994350D01*
X39751000Y24206650D01*
G01X40365200Y24305200D02*
Y23987200D01*
X40018000Y23640000D01*
G01X40780000D02*
Y23190500D01*
X40630000Y23040500D01*
Y22616720D01*
G01X41084500Y22606000D02*
Y23685500D01*
X40605200Y24164800D01*
Y24305200D01*
G01X40445200D02*
Y24134300D01*
X40780000Y23799500D01*
Y23640000D01*
G01X41529000Y22288500D02*
X41584220Y22233280D01*
X41890000D01*
G01X43134280Y22288500D02*
X42608500D01*
X42354500Y22034500D01*
X41592500D01*
X41211500Y22415500D01*
Y23812500D01*
G01X41402000Y23495000D02*
X41635330D01*
X41890000Y23240330D01*
Y23140000D01*
G01X41719500Y24892000D02*
X41351190D01*
X41313090Y24930100D01*
X40910000D01*
G01X42146220Y24892000D02*
Y24824690D01*
X41959530Y24638000D01*
X41156300D01*
X41024300Y24770000D01*
X40910000D01*
G01X41211500Y25146000D02*
X41075600Y25010100D01*
X40910000D01*
G01X41084500Y24828500D02*
X41003750D01*
X40982250Y24850000D01*
X40910000D01*
G01X43116500Y23431500D02*
X42782580D01*
X42242040Y22890960D01*
Y22518010D01*
X41957310Y22233280D01*
X41890000D01*
G01X41719500Y24892000D02*
Y24959310D01*
X41906190Y25146000D01*
X42291000D01*
X42545000Y24892000D01*
Y24239940D01*
X43025780Y23759160D01*
X43106340D01*
X43229530Y23635970D01*
Y23183570D01*
X43134280Y23088320D01*
Y22796500D01*
G01X43815000Y24320500D02*
X43688000Y24193500D01*
X43370500D01*
X43183810Y24006810D01*
X43116500D01*
G01Y23939500D02*
Y24006810D01*
G01X43815000Y24638000D02*
X43434000D01*
X43243500Y24447500D01*
X43116500D01*
G01X43878500Y25273000D02*
X43751500Y25146000D01*
X43434000D01*
X43243500Y24955500D01*
X43116500D01*
G01X44420000Y25060000D02*
X44016500Y25463500D01*
X43878500D01*
X43624500Y25209500D01*
X43320970D01*
X43134280Y25396190D01*
Y25463500D01*
G01X46101000Y22098000D02*
X44894500D01*
X44704000Y22288500D01*
X43561000D01*
G01X46392000Y22642000D02*
X46281600D01*
X46228000Y22588400D01*
Y22352000D01*
X46101000Y22225000D01*
X45148500D01*
X44577000Y22796500D01*
X43561000D01*
G01X43543220Y23939500D02*
X43624500D01*
X43983000Y24298000D01*
X44420000D01*
G01Y24806000D02*
X43837500D01*
X43688000Y24955500D01*
X43543220D01*
G01X43942000Y24638000D02*
X43815000D01*
G01X44420000Y24552000D02*
X44315500Y24447500D01*
X43543220D01*
G01X45624800Y24564800D02*
Y24613050D01*
X45783500Y24771750D01*
Y25527000D01*
X45720000Y25590500D01*
X43878500D01*
X43751500Y25463500D01*
X43561000D01*
G01X44420000Y25060000D02*
X44577000Y24903000D01*
Y24050750D01*
X44767750Y23860000D01*
X44920000D01*
G01X45148500Y23431500D02*
Y23495000D01*
X45000000Y23643500D01*
Y23860000D01*
G01X45533280Y22980000D02*
X45409510D01*
X44920000Y23469510D01*
Y23860000D01*
G01X45339000Y23558500D02*
X45267200D01*
X45080000Y23745700D01*
Y23860000D01*
G01X45320000Y24709600D02*
Y24492000D01*
X45021500Y24193500D01*
G01X45480100Y24709600D02*
Y24823900D01*
X45348500Y24955500D01*
G01X45212000Y24892000D02*
X45289850D01*
X45400100Y24781750D01*
Y24709600D01*
G01X45000000D02*
Y24934000D01*
X45516000Y25450000D01*
X45642500D01*
G01X46392000Y22772000D02*
X46101900D01*
X45960000Y22630100D01*
Y22430000D01*
G01X46101000Y22479000D02*
Y22606000D01*
X46202000Y22707000D01*
X46392000D01*
G01X47080000Y23593280D02*
X46764720D01*
X46609000Y23749000D01*
X46164500D01*
G01D02*
X46058400D01*
X45802600Y24004800D01*
X45624800D01*
G01Y24084800D02*
X45738300D01*
X46164500Y24511000D01*
G01X46817280D02*
X46164500D01*
G01X45960000Y25450000D02*
X46093110D01*
X46106610Y25463500D01*
X46355000D01*
G01X46799500Y22707600D02*
X46736000Y22771100D01*
X46710600D01*
X46709700Y22772000D01*
G01D02*
X46392000D01*
G54D16*
X39950000Y22180000D03*
Y22606720D03*
X40630000Y22190000D03*
Y22616720D03*
X41890000Y22660000D03*
Y22233280D03*
Y23140000D03*
Y23566720D03*
X47080000Y23593280D03*
Y24020000D03*
G54D26*
G01X37380000Y23250000D02*
X37472730D01*
G01X37287270D02*
X37380000D01*
G01D02*
Y23410040D01*
G01Y23089960D02*
Y23250000D01*
G01X37338000Y24066500D02*
X37434560D01*
G01X37241440D02*
X37338000D01*
G01D02*
Y24163060D01*
G01Y23969940D02*
Y24066500D01*
G01X37749440Y25463500D02*
X37846000D01*
G01X37973000Y22479000D02*
X38056860D01*
G01X37889140D02*
X37973000D01*
G01D02*
Y22562860D01*
G01Y22395140D02*
Y22479000D01*
G01X38587640D02*
X38671500D01*
G01X37973000Y22225000D02*
X38671500D01*
G01X37846000Y25463500D02*
X37942560D01*
G01X37846000D02*
Y25560060D01*
G01Y25366940D02*
Y25463500D01*
G01X38671500Y22479000D02*
X38755360D01*
G01X38671500D02*
Y22562860D01*
G01Y22395140D02*
Y22479000D01*
G01X39286140D02*
X39370000D01*
G01X38671500Y22225000D02*
X39370000D01*
G01Y22479000D02*
X39453860D01*
G01X39370000D02*
Y22562860D01*
G01Y22395140D02*
Y22479000D01*
G01X39950000Y22180000D02*
X40110040D01*
G01X39789960D02*
X39950000D01*
G01D02*
Y22272730D01*
G01Y22087270D02*
Y22180000D01*
G01X39370000Y22225000D02*
X39687500Y22542500D01*
Y23529700D01*
X40285200Y24127400D01*
Y24305200D01*
G01X40060400Y25010100D02*
X40167100D01*
G01X39953700D02*
X40060400D01*
G01D02*
Y25050750D01*
G01X40630000Y22190000D02*
X40790040D01*
G01X40469960D02*
X40630000D01*
G01D02*
Y22282730D01*
G01Y22097270D02*
Y22190000D01*
G01X40525200Y24305200D02*
Y24411900D01*
G01Y24198500D02*
Y24305200D01*
G01X40685200D02*
Y24411900D01*
G01Y24198500D02*
Y24305200D01*
G01X40285200D02*
Y24425860D01*
X40469340Y24610000D01*
X40910000D01*
G01X40765200Y25048100D02*
Y25154800D01*
G01X40365200Y25048100D02*
Y25154800D01*
G01X40910000Y24690000D02*
X40651500D01*
X40445200Y24896300D01*
Y25154800D01*
G01X40765200D02*
X40805850D01*
G01X40765200D02*
Y25261500D01*
G01X40365200Y25154800D02*
Y25261500D01*
G01X42545000Y23431500D02*
X42100500Y23876000D01*
X41783000D01*
X41049000Y24610000D01*
X40910000D01*
G01Y24690000D02*
Y24610000D01*
G01X41890000Y22660000D02*
X42050040D01*
G01X41729960D02*
X41890000D01*
G01D02*
Y22752730D01*
G01Y22567270D02*
Y22660000D01*
G01Y23473990D02*
Y23566720D01*
G01D02*
X42050040D01*
G01X41729960D02*
X41890000D01*
G01D02*
Y23659450D01*
G01X43370500Y23177500D02*
X43463220D01*
X43543220Y23257500D01*
Y23431500D01*
G01D02*
X44259510D01*
X44958010Y22733000D01*
X45593000D01*
X45840000Y22980000D01*
X45960000D01*
G01X44420000Y24044000D02*
X44516560D01*
G01X44323440D02*
X44420000D01*
G01D02*
Y24140560D01*
G01Y23947440D02*
Y24044000D01*
G01X45960000Y22980000D02*
Y23154000D01*
X45400100Y23713900D01*
Y23860000D01*
G01D02*
Y24132400D01*
X45275500Y24257000D01*
G01X45080000Y24709600D02*
Y24816300D01*
G01Y24602900D02*
Y24709600D01*
G01X45085000Y24447500D02*
X45148500D01*
X45240000Y24539000D01*
Y24709600D01*
G01X45085000Y24447500D02*
X45021500D01*
X44958000Y24511000D01*
G01X45960000Y22980000D02*
Y22806000D01*
X45748700Y22594700D01*
X45630670D01*
X45533280Y22497310D01*
Y22430000D01*
G01X45480100Y23860000D02*
X45520750D01*
G01X45480100D02*
Y23966700D01*
G01Y23753300D02*
Y23860000D01*
G01X47189600Y22577000D02*
X46392000D01*
G01X46919960Y24020000D02*
X47080000D01*
G01X46799500Y25146000D02*
Y25271720D01*
X46781720Y25289500D01*
Y25463500D01*
G01X47371000Y23431500D02*
Y22758400D01*
X47189600Y22577000D01*
G01X47371000Y23439240D02*
Y23939510D01*
X47290510Y24020000D01*
G01X47080000D02*
Y24112730D01*
G01Y23927270D02*
Y24020000D01*
G01X47290510D02*
X47080000D01*
G01X47244000Y24511000D02*
X47336730D01*
G01X47151270D02*
X47244000D01*
G01D02*
Y24671040D01*
G01Y24350960D02*
Y24511000D01*
G54D17*
X40005000Y24193500D03*
X39751000Y24206650D03*
X41529000Y22288500D03*
X41084500Y22606000D03*
X41402000Y23495000D03*
X41211500Y23812500D03*
X41084500Y24828500D03*
X41211500Y25146000D03*
X42545000Y23431500D03*
X43370500Y23177500D03*
X43815000Y24320500D03*
X43942000Y24638000D03*
X43878500Y25273000D03*
X45339000Y23558500D03*
X45148500Y23431500D03*
X45021500Y24193500D03*
X45275500Y24257000D03*
X45348500Y24955500D03*
X45212000Y24892000D03*
X45085000Y24447500D03*
X44958000Y24511000D03*
X46101000Y22479000D03*
Y22098000D03*
X46736000Y22440900D03*
X46799500Y22707600D03*
Y25146000D03*
G54D18*
X40060400Y25010100D03*
Y24930100D03*
Y24850000D03*
Y24690000D03*
Y24610000D03*
Y24530000D03*
Y24450000D03*
X40910000Y24530000D03*
Y24610000D03*
Y24690000D03*
Y24770000D03*
Y24850000D03*
Y24930100D03*
Y25010100D03*
X44775200Y24244800D03*
Y24084800D03*
Y24004800D03*
Y24564800D03*
Y24484800D03*
Y24404800D03*
Y24324800D03*
X45624800Y24004800D03*
Y24164800D03*
Y24244800D03*
Y24324800D03*
Y24404800D03*
Y24484800D03*
Y24564800D03*
G54D19*
X40060400Y24770000D03*
X40910000Y24450000D03*
X44775200Y24164800D03*
X45624800Y24084800D03*
M02*
