G04 ================== begin FILE IDENTIFICATION RECORD ==================*
G04 Layout Name:  c:/Users/user/Desktop/exam/avrusb500/allegro/micro_usb.brd*
G04 Film Name:    TOP*
G04 File Format:  Gerber RS274X*
G04 File Origin:  Cadence Allegro 16.6-S034*
G04 Origin Date:  Fri Jul 19 12:19:21 2019*
G04 *
G04 Layer:  ETCH/TOP*
G04 Layer:  PIN/TOP*
G04 Layer:  VIA CLASS/TOP*
G04 *
G04 Offset:    (0.0000 0.0000)*
G04 Mirror:    No*
G04 Mode:      Positive*
G04 Rotation:  0*
G04 FullContactRelief:  No*
G04 UndefLineWidth:     0.0000*
G04 ================== end FILE IDENTIFICATION RECORD ====================*
%FSLAX25Y25*MOMM*%
%IR0*IPPOS*OFA0.00000B0.00000*MIA0B0*SFA1.00000B1.00000*%
%ADD21O,1.8999X1.1999*%
%ADD20R,1.7X.4*%
%ADD14C,.6101*%
%ADD17O,.4569X1.778*%
%ADD15O,1.778X.4569*%
%ADD18R,.4569X1.778*%
%ADD16R,1.778X.4569*%
%ADD19R,1.7X1.1001*%
%ADD11C,1.3211*%
%ADD10R,1.3211X1.3211*%
%ADD12C,1.5751*%
%ADD13R,1.5751X1.5751*%
%ADD22C,.254*%
%ADD23C,.381*%
%ADD24C,.508*%
%ADD31R,.6572X1.9784*%
%ADD29R,1.9784X.6572*%
%ADD28C,1.1186*%
%ADD32O,2.4084X1.7084*%
%ADD30C,1.5756*%
%ADD26C,1.8296*%
%ADD25R,1.5756X1.5756*%
%ADD27R,1.8296X1.8296*%
G75*
%LPD*%
G75*
G36*
G01X37130010Y25789990D02*
X47529990D01*
Y21890010D01*
X37130010D01*
Y25789990D01*
G37*
%LPC*%
G75*
G36*
G01X39455800Y24225390D02*
X39456790Y24222410D01*
G02X39398910Y24280290I-86790J-28910D01*
G01X39401890Y24279300D01*
X39837130Y24714540D01*
G03X39829940Y24731880I-7188J7180D01*
G01X39644790D01*
X39455800Y24542890D01*
X39456790Y24539910D01*
G02X39398910Y24597790I-86790J-28910D01*
G01X39401890Y24596800D01*
X39599630Y24794540D01*
G03X39592440Y24811880I-7188J7180D01*
G01X39534290D01*
X39512790Y24790380D01*
X39453160D01*
G02Y24866620I-83160J38120D01*
G01X39481210D01*
X39502710Y24888120D01*
X39522380D01*
Y25107880D01*
X39453160D01*
G02Y25184120I-83160J38120D01*
G01X39598620D01*
Y24968220D01*
X39961410D01*
G03X39968730Y24985430I3J10160D01*
G02X39994340Y25045660I25617J24667D01*
G01X40126460D01*
G02Y24974540I-5J-35560D01*
G01X40073140D01*
Y24966180D01*
X40076120Y24964830D01*
G02X40079710Y24962960I-15790J-34694D01*
G01X40126460D01*
G02Y24897240I-5J-32860D01*
G01X40079710D01*
G02X40074690Y24894760I-19348J32843D01*
G03Y24885340I1903J-4710D01*
G02X40079710Y24882860I-14328J-35323D01*
G01X40126460D01*
G02Y24817140I-5J-32860D01*
G01X40079710D01*
G02X40074800Y24814700I-19375J32828D01*
G03Y24805300I1916J-4700D01*
G02X40079710Y24802860I-14465J-35268D01*
G01X40159320D01*
Y24737140D01*
X40079710D01*
G02X40074800Y24734700I-19375J32828D01*
G03Y24725300I1916J-4700D01*
G02X40079710Y24722860I-14465J-35268D01*
G01X40126460D01*
G02Y24657140I-5J-32860D01*
G01X40079710D01*
G02X40069120Y24652890I-19332J32852D01*
G01X40065200Y24651970D01*
Y24642860D01*
X40126460D01*
G02Y24577140I-5J-32860D01*
G01X39994340D01*
G02X39972140Y24634230I6J32864D01*
G03X39965280Y24651880I-6863J7491D01*
G01X39882290D01*
X39455800Y24225390D01*
G37*
G36*
G01X46307290Y21932880D02*
X44942210D01*
X44729380Y22145710D01*
Y22399710D01*
X44561210Y22567880D01*
X43961660D01*
G02Y22644120I-83160J38120D01*
G01X44592790D01*
X44805620Y22431290D01*
Y22177290D01*
X44973790Y22009120D01*
X46275710D01*
X46443880Y22177290D01*
Y22177790D01*
X46561100Y22295010D01*
X46710580D01*
Y22476880D01*
X46523770D01*
G03X46517340Y22458850I-5J-10160D01*
G02X46482080Y22359570I-35340J-43350D01*
G01X46479980D01*
X46313800Y22193390D01*
X46314790Y22190410D01*
G02X46256910Y22248290I-86790J-28910D01*
G01X46259890Y22247300D01*
X46426070Y22413480D01*
Y22415580D01*
G02X46446660Y22458850I55930J-80D01*
G03X46440230Y22476880I-6425J7870D01*
G01X44779210D01*
X44307210Y22948880D01*
X43961660D01*
G02Y23025120I-83160J38120D01*
G01X44338790D01*
X44810790Y22553120D01*
X46431570D01*
G03X46439330Y22569850I7J10162D01*
G02X46522930Y22644120I42673J36153D01*
G01X46710580D01*
Y23266420D01*
X47459920D01*
Y21945580D01*
X46710580D01*
Y22218770D01*
X46592680D01*
X46520120Y22146210D01*
Y22145710D01*
X46307290Y21932880D01*
G37*
G36*
G01X39080480Y22133520D02*
X38897520D01*
Y22316480D01*
X39080480D01*
Y22275820D01*
X39094950D01*
X39509680Y22690550D01*
Y23487250D01*
X40211380Y24188950D01*
G03X40204430Y24206290I-7186J7183D01*
G02X40172340Y24239140I773J32854D01*
G01Y24282480D01*
X40053860D01*
G02Y24327920I-33560J22720D01*
G01X40172340D01*
Y24371260D01*
G02X40238060I32860J-5D01*
G01Y24342030D01*
G03X40246970Y24338680I5082J-7D01*
G02X40249780Y24341640I38231J-33480D01*
G01Y24488370D01*
X40406830Y24645420D01*
X40621470D01*
G03X40628650Y24662760I-3J10158D01*
G01X40409780Y24881640D01*
Y25020180D01*
X40411090Y25021490D01*
Y25059510D01*
X40409780Y25060820D01*
Y25084250D01*
X40400700D01*
X40399760Y25080360D01*
G02X40329640Y25088740I-34557J8395D01*
G01Y25220860D01*
G02X40400760I35560J-5D01*
G01Y25159280D01*
X40409840D01*
X40410780Y25163160D01*
G02X40412010Y25167180I34427J-8336D01*
G01X40412340Y25168040D01*
Y25220860D01*
G02X40478060I32860J-5D01*
G01Y25168040D01*
X40478390Y25167180D01*
G02X40480620Y25154800I-33192J-12370D01*
G01Y25090160D01*
X40481930Y25088850D01*
Y24992150D01*
X40480620Y24990840D01*
Y24910980D01*
X40666180Y24725420D01*
X40897590D01*
Y24733810D01*
X40894570Y24735140D01*
G02X40890690Y24737140I15496J34826D01*
G01X40843940D01*
G02Y24802860I5J32860D01*
G01X40890690D01*
G02X40895600Y24805300I19375J-32828D01*
G03Y24814700I-1916J4700D01*
G02X40890690Y24817140I14465J35268D01*
G01X40843940D01*
G02Y24882860I5J32860D01*
G01X40890690D01*
G02X40895710Y24885340I19348J-32843D01*
G03Y24894760I-1903J4710D01*
G02X40890690Y24897240I14328J35323D01*
G01X40843940D01*
G02Y24962960I5J32860D01*
G01X40890690D01*
G02X40895600Y24965400I19375J-32828D01*
G03Y24974800I-1916J4700D01*
G02X40890690Y24977240I14465J35268D01*
G01X40843940D01*
G02Y25042960I5J32860D01*
G01X40890690D01*
G02X40910000Y25048220I19322J-32857D01*
G01X41034670D01*
G02X41124670Y24983260I40932J-38116D01*
G03X41133580Y24968220I8910J-4881D01*
G01X41233810D01*
X41427380Y25161790D01*
Y25380340D01*
G02X41503620I38120J83160D01*
G01Y25352290D01*
X41907980Y24947930D01*
X41910080D01*
G02X41854070Y24891920I-80J-55930D01*
G01Y24894020D01*
X41520960Y25227130D01*
G03X41503620Y25219940I-7180J-7188D01*
G01Y25130210D01*
X41338310Y24964900D01*
G03X41344420Y24947620I7187J-7179D01*
G02X41338580Y24836070I-5907J-55619D01*
G01X41336480D01*
X41325870Y24825460D01*
G03X41333060Y24808120I7188J-7180D01*
G01X42443380D01*
Y25380340D01*
G02X42519620I38120J83160D01*
G01Y24731880D01*
X41005120D01*
G03X40998260Y24714230I3J-10159D01*
G02X41005530Y24675470I-22206J-24227D01*
G03X41014650Y24660820I9115J-4489D01*
G01X42340050D01*
X42820050Y24180820D01*
X43697050D01*
X43848120Y24029750D01*
X43850700Y24030190D01*
G02X43775810Y23955300I15300J-90190D01*
G01X43776250Y23957880D01*
X43654950Y24079180D01*
X42777950D01*
X42297950Y24559180D01*
X41014650D01*
G03X41005530Y24544530I-5J-10161D01*
G02X40976060Y24497140I-29477J-14528D01*
G01X40843940D01*
G02Y24562860I5J32860D01*
G01X40873170D01*
G03X40876520Y24571770I7J5082D01*
G02X40873560Y24574580I33480J38231D01*
G01X40436170D01*
X40320620Y24459030D01*
Y24341640D01*
G02X40323430Y24338680I-35421J-36440D01*
G03X40332340Y24342030I3828J3343D01*
G01Y24371260D01*
G02X40398060I32860J-5D01*
G01Y24324510D01*
G02X40400500Y24319600I-32828J-19375D01*
G03X40409900I4700J1916D01*
G02X40412340Y24324510I35268J-14465D01*
G01Y24371260D01*
G02X40478060I32860J-5D01*
G01Y24324510D01*
G02X40479930Y24320920I-32824J-19380D01*
G01X40481280Y24317940D01*
X40489640D01*
Y24371260D01*
G02X40560760I35560J-5D01*
G01Y24317940D01*
X40569120D01*
X40570470Y24320920D01*
G02X40572340Y24324510I34694J-15790D01*
G01Y24404120D01*
X40638060D01*
Y24324510D01*
G02X40639930Y24320920I-32824J-19380D01*
G01X40641280Y24317940D01*
X40649640D01*
Y24371260D01*
G02X40720760I35560J-5D01*
G01Y24239140D01*
G02X40660530Y24213530I-35563J7D01*
G03X40643320Y24206210I-7050J-7317D01*
G01Y24038010D01*
X40610330Y24005020D01*
Y24002920D01*
G02X40551770Y23947130I-55931J79D01*
G03X40544110Y23929800I-475J-10148D01*
G01X40748110Y23725800D01*
X40751090Y23726790D01*
G02Y23553210I28910J-86790D01*
G01X40748110Y23554200D01*
X40740440Y23546530D01*
Y22579310D01*
G03X40752240Y22569280I10160J-3D01*
G02X40680210Y22507910I14761J-90280D01*
G01X40681200Y22510890D01*
X40664200Y22527890D01*
Y23578110D01*
X40694200Y23608110D01*
X40693210Y23611090D01*
G02Y23668910I86790J28910D01*
G01X40694200Y23671890D01*
X40407080Y23959010D01*
Y24090840D01*
G03X40389740Y24098030I-10160J2D01*
G01X40056120Y23764410D01*
Y23723160D01*
G02X39989090Y23553210I-38122J-83158D01*
G01X39986110Y23554200D01*
X39978440Y23546530D01*
Y22579310D01*
G03X39990240Y22569280I10160J-3D01*
G02X39918210Y22507910I14761J-90280D01*
G01X39919200Y22510890D01*
X39902200Y22527890D01*
Y23578110D01*
X39932200Y23608110D01*
X39931210Y23611090D01*
G02X39979880Y23723160I86791J28912D01*
G01Y23795990D01*
X40327080Y24143190D01*
Y24148650D01*
G03X40318410Y24152240I-5080J-4D01*
G01X39611320Y23445150D01*
Y22648450D01*
X39137050Y22174180D01*
X39080480D01*
Y22133520D01*
G37*
G36*
G01X45232120Y22933160D02*
G02X45140590Y22924270I-38120J-83160D01*
G03X45141850Y22939700I-5928J8251D01*
G01X44881880Y23199670D01*
Y23821880D01*
X44538880D01*
Y25021880D01*
X44524180D01*
Y24955820D01*
X44315820D01*
Y25164180D01*
X44524180D01*
Y25098120D01*
X44615120D01*
Y23898120D01*
X44887140D01*
Y23958920D01*
X44952860D01*
Y23879310D01*
G02X44955300Y23874400I-32828J-19375D01*
G03X44964700I4700J1916D01*
G02X44967140Y23879310I35268J-14465D01*
G01Y23926060D01*
G02X45032860I32860J-5D01*
G01Y23879310D01*
G02X45035300Y23874400I-32828J-19375D01*
G03X45044700I4700J1916D01*
G02X45047140Y23879310I35268J-14465D01*
G01Y23926060D01*
G02X45112860I32860J-5D01*
G01Y23879310D01*
G02X45117110Y23868720I-32851J-19332D01*
G01X45118030Y23864800D01*
X45127140D01*
Y23926060D01*
G02X45192860I32860J-5D01*
G01Y23793940D01*
G02X45135770Y23771740I-32864J6D01*
G03X45118120Y23764880I-7491J-6863D01*
G01Y23642790D01*
X45146480Y23614430D01*
X45148580D01*
G02X45092570Y23558420I-80J-55930D01*
G01Y23560520D01*
X45082300Y23570790D01*
X45077040Y23565540D01*
X45077230Y23563190D01*
G02X44976460Y23525340I-55732J-4689D01*
G03X44958120Y23519320I-8180J-6025D01*
G01Y23231250D01*
X45232120Y22957250D01*
Y22933160D01*
G37*
G36*
G01X46081340Y23787120D02*
G02Y23710880I83160J-38120D01*
G01X45808880D01*
Y23966680D01*
X45624800D01*
G02X45605490Y23971940I12J38117D01*
G01X45558740D01*
G02Y24037660I5J32860D01*
G01X45605490D01*
G02X45610400Y24040100I19375J-32828D01*
G03Y24049500I-1916J4700D01*
G02X45605490Y24051940I14465J35268D01*
G01X45525880D01*
Y24117660D01*
X45605490D01*
G02X45616080Y24121910I19332J-32851D01*
G01X45620000Y24122830D01*
Y24131940D01*
X45558740D01*
G02Y24197660I5J32860D01*
G01X45690860D01*
G02X45713060Y24140570I-6J-32864D01*
G03X45719920Y24122920I6863J-7491D01*
G01X46126380D01*
Y24427840D01*
G02X46202620I38120J83160D01*
G01Y24046680D01*
X45885120D01*
Y23787120D01*
X46081340D01*
G37*
G36*
G01X39852620Y24107430D02*
G02X39776380I-38120J-40930D01*
G01Y24285940D01*
X39978560Y24488120D01*
X39990170D01*
Y24497160D01*
X39986330Y24498130D01*
G02X39994340Y24562860I8025J31868D01*
G01X40126460D01*
G02Y24497140I-5J-32860D01*
G01X40065200D01*
Y24488030D01*
X40069120Y24487110D01*
G02X40079710Y24482860I-8742J-37102D01*
G01X40126460D01*
G02Y24417140I-5J-32860D01*
G01X40079710D01*
G02X40060400Y24411880I-19322J32857D01*
G01X40010140D01*
X39852620Y24254360D01*
Y24107430D01*
G37*
G36*
G01X45690860Y24451940D02*
X45558740D01*
G02Y24517660I5J32860D01*
G01X45620000D01*
Y24526770D01*
X45616080Y24527690D01*
G02X45605490Y24531940I8742J37101D01*
G01X45558740D01*
G02Y24597660I5J32860D01*
G01X45586680D01*
Y24749210D01*
X45554880Y24781010D01*
Y24851070D01*
G02X45631120I38120J40930D01*
G01Y24812590D01*
X45662920Y24780790D01*
Y24597660D01*
X45690860D01*
G02Y24531940I-5J-32860D01*
G01X45644110D01*
G02X45633520Y24527690I-19332J32851D01*
G01X45629600Y24526770D01*
Y24517660D01*
X45690860D01*
G02Y24451940I-5J-32860D01*
G37*
G36*
G01X45458270Y24550860D02*
X45460750Y24551190D01*
G02X45425810Y24516250I5250J-40190D01*
G01X45426140Y24518730D01*
X45379780Y24565090D01*
Y24583490D01*
X45377380Y24585890D01*
Y24619800D01*
G02X45367240Y24643540I22723J23741D01*
G01Y24775660D01*
G02X45431970Y24783670I32862J-15D01*
G01X45432940Y24779830D01*
X45441980D01*
Y24798610D01*
X45404520Y24836070D01*
X45402420D01*
G02X45458430Y24892080I80J55930D01*
G01Y24889980D01*
X45518220Y24830190D01*
Y24709600D01*
G02X45512960Y24690290I-38117J12D01*
G01Y24643540D01*
G02X45447240I-32860J5D01*
G01Y24690290D01*
G02X45442990Y24700880I32851J19332D01*
G01X45442070Y24704800D01*
X45432960D01*
Y24643540D01*
G02X45422820Y24619800I-32863J1D01*
G01Y24604710D01*
X45425220Y24602310D01*
Y24583910D01*
X45458270Y24550860D01*
G37*
G36*
G01X45115560Y24643540D02*
G02X45044440I-35560J5D01*
G01Y24696860D01*
X45036080D01*
X45034730Y24693880D01*
G02X45032860Y24690290I-34694J15790D01*
G01Y24643540D01*
G02X44967140I-32860J5D01*
G01Y24690290D01*
G02X44962890Y24700880I32851J19332D01*
G01X44961970Y24704800D01*
X44952860D01*
Y24643540D01*
G02X44887140I-32860J5D01*
G01Y24775660D01*
G02X44944230Y24797860I32864J-6D01*
G03X44961880Y24804720I7491J6863D01*
G01Y25311120D01*
X45446340D01*
G02Y25234880I83160J-38120D01*
G01X45038120D01*
Y24808590D01*
G03X45055330Y24801270I10160J-3D01*
G02X45115560Y24775660I24667J-25617D01*
G01Y24643540D01*
G37*
G36*
G01X42202120Y22939290D02*
X42497290Y22644120D01*
X42779340D01*
G02Y22567880I83160J-38120D01*
G01X42465710D01*
X42125880Y22907710D01*
Y23479210D01*
X41440810Y24164280D01*
X41116530D01*
G02Y24240520I-40930J38120D01*
G01X41472390D01*
X41964100Y23748810D01*
G03X41981380Y23754920I7179J7187D01*
G02X42092930Y23749080I55619J-5907D01*
G01Y23746980D01*
X42281600Y23558310D01*
G03X42298880Y23564420I7179J7187D01*
G02X42395430Y23596620I55618J-5918D01*
G01X44726570D01*
G02Y23520380I40930J-38120D01*
G01X42395430D01*
G02X42360420Y23502880I-40932J38118D01*
G03X42354310Y23485600I1077J-10101D01*
G01X42370290Y23469620D01*
X44536070D01*
G02Y23393380I40930J-38120D01*
G01X42338710D01*
X42039020Y23693070D01*
X42036920D01*
G02X42032310Y23693270I117J55929D01*
G01X42029960Y23693460D01*
X42024710Y23688200D01*
X42202120Y23510790D01*
Y22939290D01*
G37*
G36*
G01X42458930Y23025120D02*
X42779340D01*
G02Y22948880I83160J-38120D01*
G01X42458930D01*
G02Y23025120I-40930J38120D01*
G37*
G36*
G01X37877890Y23390300D02*
X38315880Y23828290D01*
Y24110340D01*
G02X38270840Y24155380I38120J83160D01*
G01X37893710D01*
X37703210Y24345880D01*
X37434960D01*
G02Y24422120I-96960J38120D01*
G01X37734790D01*
X37925290Y24231620D01*
X38270840D01*
G02X38392120Y24110340I83160J-38120D01*
G01Y23796710D01*
X37931800Y23336390D01*
X37932790Y23333410D01*
G02X37874910Y23391290I-86790J-28910D01*
G01X37877890Y23390300D01*
G37*
G36*
G01X45326320Y23537450D02*
Y23391360D01*
G02X45224680I-50820J-23360D01*
G01Y23579550D01*
X45349280Y23704150D01*
Y23755400D01*
G03X45334610Y23764500I-10158J-1D01*
G02X45287140Y23793940I-14605J29442D01*
G01Y23926060D01*
G02X45352860I32860J-5D01*
G01Y23896710D01*
G03X45361780Y23893380I5082J0D01*
G02X45364680Y23896440I38304J-33397D01*
G01Y24031080D01*
X45225330D01*
X45171470Y24084940D01*
Y24576860D01*
X45204580Y24609970D01*
Y24673160D01*
G02X45201770Y24676120I35421J36440D01*
G03X45192860Y24672770I-3828J-3343D01*
G01Y24643540D01*
G02X45127140I-32860J5D01*
G01Y24775660D01*
G02X45174530Y24805130I32862J-7D01*
G03X45189180Y24814250I4489J9115D01*
G01Y25069820D01*
X46050180D01*
Y25260320D01*
X47195180D01*
Y25373930D01*
G02X47296820I50820J76070D01*
G01Y25158680D01*
X46151820D01*
Y24968180D01*
X45290820D01*
Y24814250D01*
G03X45305470Y24805130I10161J-5D01*
G02X45352860Y24775660I14528J-29477D01*
G01Y24643540D01*
G02X45342720Y24619800I-32863J1D01*
G01Y24544560D01*
G02X45297280I-22720J-33560D01*
G01Y24619800D01*
G02X45287140Y24643540I22723J23741D01*
G01Y24672770D01*
G03X45278230Y24676120I-5082J7D01*
G02X45275420Y24673160I-38231J33480D01*
G01Y24580630D01*
X45242310Y24547520D01*
Y24114280D01*
X45254670Y24101920D01*
X45435520D01*
Y23956150D01*
G03X45453330Y23949470I10160J5D01*
G02X45515660Y23926060I26767J-23416D01*
G01Y23793940D01*
G02X45465310Y23761600I-35564J4D01*
G03X45450920Y23752360I-4231J-9237D01*
G01Y23662050D01*
X45326320Y23537450D01*
G37*
G36*
G01X40930710Y24210700D02*
X41399980Y23741430D01*
X41402080D01*
G02X41346070Y23685420I-80J-55930D01*
G01Y23687520D01*
X40876800Y24156790D01*
X40876050Y24157160D01*
G02X40930340Y24211450I17950J36340D01*
G01X40930710Y24210700D01*
G37*
G36*
G01X42643210Y23787120D02*
X42764200Y23908110D01*
X42763210Y23911090D01*
G02X42821090Y23853210I86790J28910D01*
G01X42818110Y23854200D01*
X42674790Y23710880D01*
X42268430D01*
G02Y23787120I-40930J38120D01*
G01X42643210D01*
G37*
G36*
G01X44170800Y24336120D02*
X44323040D01*
G02Y24259880I96960J-38120D01*
G01X44139220D01*
X44116720Y24282380D01*
X43961660D01*
G02Y24358620I-83160J38120D01*
G01X44148300D01*
X44170800Y24336120D01*
G37*
G36*
G01X37925290Y24549120D02*
X38270840D01*
G02Y24472880I83160J-38120D01*
G01X37893710D01*
X37766710Y24599880D01*
X37434960D01*
G02Y24676120I-96960J38120D01*
G01X37798290D01*
X37925290Y24549120D01*
G37*
G36*
G01X44073670Y24805460D02*
X43840380Y25038750D01*
Y25062840D01*
G02X43931910Y25071730I38120J83160D01*
G03X43930650Y25056300I5928J-8251D01*
G01X44142830Y24844120D01*
X44323040D01*
G02Y24767880I96960J-38120D01*
G01X44282560D01*
G03X44275370Y24750540I-2J-10160D01*
G01X44378360Y24647550D01*
X44381460Y24648790D01*
G02X44323210Y24590540I38540J-96790D01*
G01X44324450Y24593640D01*
X44206210Y24711880D01*
X43949160D01*
G02Y24788120I-83160J38120D01*
G01X44066480D01*
G03X44073670Y24805460I2J10160D01*
G37*
G36*
G01X37925290Y24866620D02*
X38270840D01*
G02Y24790380I83160J-38120D01*
G01X37893710D01*
X37830210Y24853880D01*
X37434960D01*
G02Y24930120I-96960J38120D01*
G01X37861790D01*
X37925290Y24866620D01*
G37*
G36*
G01X37442180Y25107880D02*
Y25041820D01*
X37233820D01*
Y25250180D01*
X37442180D01*
Y25184120D01*
X38270840D01*
G02Y25107880I83160J-38120D01*
G01X37442180D01*
G37*
G36*
G01X42656210Y25552380D02*
X42549980Y25658610D01*
X38730020D01*
X38712180Y25640770D01*
Y25561710D01*
G03X38729520Y25554530I10158J4D01*
G01X38803610Y25628620D01*
X41036790D01*
X41290790Y25374620D01*
X41297520D01*
X41299010Y25376100D01*
G02Y25296900I39490J-39600D01*
G01X41297520Y25298380D01*
X41292580D01*
G03X41282420Y25288180I-1J-10160D01*
G02X41214750Y25233300I-55928J-198D01*
G03X41202690Y25221230I-2127J-9935D01*
G02X41107070Y25171380I-54688J-11733D01*
G01X41068710D01*
X40814710Y25425380D01*
X38851890D01*
X38760430Y25333920D01*
X38455570D01*
X38427610Y25361880D01*
X37916550D01*
X37807880Y25470550D01*
Y25493540D01*
G02X37901480Y25502320I38117J96959D01*
G03X37899710Y25486540I5414J-8597D01*
G01X37948130Y25438120D01*
X38069780D01*
G03X38076970Y25455460I2J10160D01*
G01X38061880Y25470550D01*
Y25493540D01*
G02X38175560Y25518770I38121J96958D01*
G03X38182930Y25501620I7369J-6992D01*
G01X38271070D01*
G03X38278440Y25518770I1J10158D01*
G02X38455580Y25567370I75558J71728D01*
G03X38465490Y25554960I9907J-2250D01*
G01X38486050D01*
X38486480Y25554530D01*
G03X38503820Y25561710I7182J7184D01*
G01Y25694680D01*
X38658270D01*
X38698440Y25734850D01*
X42581560D01*
X42687790Y25628620D01*
X42779340D01*
G02Y25552380I83160J-38120D01*
G01X42656210D01*
G37*
G36*
G01X40798060Y24239140D02*
G02X40732340I-32860J5D01*
G01Y24371260D01*
G02X40798060I32860J-5D01*
G01Y24239140D01*
G37*
G36*
G01X40800760Y25088740D02*
G02X40729640I-35560J5D01*
G01Y25220860D01*
G02X40800760I35560J-5D01*
G01Y25088740D01*
G37*
G36*
G01X40638060D02*
G02X40572340I-32860J5D01*
G01Y25220860D01*
G02X40638060I32860J-5D01*
G01Y25088740D01*
G37*
G36*
G01X40558060D02*
G02X40492340I-32860J5D01*
G01Y25220860D01*
G02X40558060I32860J-5D01*
G01Y25088740D01*
G37*
G36*
G01X40318060D02*
G02X40252340I-32860J5D01*
G01Y25220860D01*
G02X40318060I32860J-5D01*
G01Y25088740D01*
G37*
G36*
G01X40238060D02*
G02X40172340I-32860J5D01*
G01Y25220860D01*
G02X40238060I32860J-5D01*
G01Y25088740D01*
G37*
G36*
G01X45272860Y23793940D02*
G02X45207140I-32860J5D01*
G01Y23926060D01*
G02X45272860I32860J-5D01*
G01Y23793940D01*
G37*
G36*
G01X44709140Y24211940D02*
G02Y24277660I5J32860D01*
G01X44841260D01*
G02Y24211940I-5J-32860D01*
G01X44709140D01*
G37*
G36*
G01Y24051940D02*
G02Y24117660I5J32860D01*
G01X44841260D01*
G02Y24051940I-5J-32860D01*
G01X44709140D01*
G37*
G36*
G01Y23971940D02*
G02Y24037660I5J32860D01*
G01X44841260D01*
G02Y23971940I-5J-32860D01*
G01X44709140D01*
G37*
G36*
G01Y24531940D02*
G02Y24597660I5J32860D01*
G01X44841260D01*
G02Y24531940I-5J-32860D01*
G01X44709140D01*
G37*
G36*
G01Y24451940D02*
G02Y24517660I5J32860D01*
G01X44841260D01*
G02Y24451940I-5J-32860D01*
G01X44709140D01*
G37*
G36*
G01Y24371940D02*
G02Y24437660I5J32860D01*
G01X44841260D01*
G02Y24371940I-5J-32860D01*
G01X44709140D01*
G37*
G36*
G01Y24291940D02*
G02Y24357660I5J32860D01*
G01X44841260D01*
G02Y24291940I-5J-32860D01*
G01X44709140D01*
G37*
G36*
G01X45558740Y24211940D02*
G02Y24277660I5J32860D01*
G01X45690860D01*
G02Y24211940I-5J-32860D01*
G01X45558740D01*
G37*
G36*
G01Y24291940D02*
G02Y24357660I5J32860D01*
G01X45690860D01*
G02Y24291940I-5J-32860D01*
G01X45558740D01*
G37*
G36*
G01Y24371940D02*
G02Y24437660I5J32860D01*
G01X45690860D01*
G02Y24371940I-5J-32860D01*
G01X45558740D01*
G37*
G54D31*
X40685200Y25154800D03*
G54D29*
X44775200Y24164800D03*
X40910000Y24450000D03*
G54D28*
X44831000Y25273000D03*
X44767500Y23368000D03*
G54D30*
X41910000Y23431500D03*
X38989000Y22479000D03*
X38290500D03*
X37592000D03*
G54D26*
X46799500Y24765000D03*
X46926500Y23749000D03*
X46230000Y25450000D03*
X46210000Y22850000D03*
X45212000Y22161500D03*
X44420000Y24044000D03*
X43878500Y25590500D03*
X42862500Y25146000D03*
X42850000Y24750000D03*
X42862500Y24320500D03*
X41910000Y22225000D03*
X37592000Y25590500D03*
X37338000Y24130000D03*
G54D25*
X47053500Y24765000D03*
X46926500Y24003000D03*
X40767000Y22225000D03*
X40005000D03*
X37592000Y23304500D03*
X41910000Y22479000D03*
G54D27*
X45847000Y25273000D03*
X41910000Y23177500D03*
X38290500Y22225000D03*
X37592000D03*
%LPD*%
G75*
G36*
G01X46736000Y21971000D02*
Y22218770D01*
X47164680D01*
X47250420Y22304510D01*
Y22499020D01*
X47131320Y22618120D01*
X46997720D01*
Y22677720D01*
X46995020D01*
Y22875020D01*
X46804980D01*
Y22677720D01*
X46802280D01*
Y22612280D01*
X46804980D01*
Y22553120D01*
X46736000D01*
Y23241000D01*
X47434500D01*
Y21971000D01*
X46736000D01*
G37*
%LPC*%
G75*
G54D32*
X47270000Y23092500D03*
Y22067500D03*
X46900000Y23092500D03*
Y22067500D03*
%LPD*%
G75*
G54D10*
X37592000Y22225000D03*
Y23304500D03*
X38290500Y22225000D03*
X38989000D03*
X40005000D03*
X40767000D03*
X41910000Y22479000D03*
Y23177500D03*
X45847000Y25273000D03*
X46926500Y24003000D03*
X47053500Y24765000D03*
G54D11*
X37592000Y22479000D03*
X37846000Y23304500D03*
X38290500Y22479000D03*
X38354000Y24193500D03*
Y24511000D03*
Y24828500D03*
Y25146000D03*
X38989000Y22479000D03*
X39370000Y24193500D03*
Y24511000D03*
Y24828500D03*
Y25146000D03*
X40005000Y22479000D03*
X40018000Y23640000D03*
X40767000Y22479000D03*
X40780000Y23640000D03*
X41465500Y25463500D03*
X41910000Y22225000D03*
Y23431500D03*
X42862500Y22606000D03*
Y22987000D03*
X42850000Y23940000D03*
X42862500Y24320500D03*
X42850000Y24750000D03*
X42862500Y25146000D03*
Y25590500D03*
X42481500Y25463500D03*
X43878500Y22606000D03*
Y22987000D03*
X43866000Y23940000D03*
X43878500Y24320500D03*
X43866000Y24750000D03*
X43878500Y25146000D03*
Y25590500D03*
X45212000Y22161500D03*
X45194000Y22850000D03*
X46228000Y22161500D03*
X46210000Y22850000D03*
X46164500Y23749000D03*
Y24511000D03*
X45529500Y25273000D03*
X46230000Y25450000D03*
X46926500Y23749000D03*
X46799500Y24765000D03*
X47246000Y25450000D03*
G54D20*
X46900000Y22450000D03*
Y22515000D03*
Y22710000D03*
Y22645000D03*
Y22580000D03*
G54D12*
X37338000Y24130000D03*
Y24384000D03*
Y24638000D03*
Y24892000D03*
X37592000Y25590500D03*
X37846000D03*
X38100000D03*
X38354000D03*
X44420000Y24044000D03*
Y24298000D03*
Y24552000D03*
Y24806000D03*
G54D21*
X46900000Y22067500D03*
Y23092500D03*
X47270000Y22067500D03*
Y23092500D03*
G54D22*
G01X38354000Y24193500D02*
X37909500D01*
X37719000Y24384000D01*
X37338000D01*
G01X38354000Y24511000D02*
X37909500D01*
X37782500Y24638000D01*
X37338000D01*
G01X38354000Y24828500D02*
X37909500D01*
X37846000Y24892000D01*
X37338000D01*
G01Y25146000D02*
X38354000D01*
G01X37846000Y23304500D02*
X38354000Y23812500D01*
Y24193500D01*
G01X41148000Y25209500D02*
X41084500D01*
X40830500Y25463500D01*
X38836100D01*
X38744640Y25372040D01*
X38471360D01*
X38443400Y25400000D01*
X37932340D01*
X37846000Y25486340D01*
Y25590500D01*
G01X41226490Y25287980D02*
X41133020D01*
X40894000Y25527000D01*
X38827750D01*
X38723590Y25422840D01*
X38492410D01*
X38451750Y25463500D01*
X38122840D01*
X38100000Y25486340D01*
Y25590500D01*
G01X38354000D02*
X38427660Y25516840D01*
X38470260D01*
X38513460Y25473640D01*
X38702540D01*
X38819400Y25590500D01*
X41021000D01*
X41275000Y25336500D01*
X41338500D01*
G01X38608000Y25590500D02*
X38714230Y25696730D01*
X42565770D01*
X42672000Y25590500D01*
X42862500D01*
G01X40018000Y23640000D02*
X39940320Y23562320D01*
Y22543680D01*
X40005000Y22479000D01*
G01X40060400Y24690000D02*
X39866500D01*
X39370000Y24193500D01*
G01X40018000Y23640000D02*
Y23780200D01*
X40365200Y24127400D01*
Y24305200D01*
G01X39814500Y24066500D02*
Y24270150D01*
X39994350Y24450000D01*
X40060400D01*
G01Y24770000D02*
X39629000D01*
X39370000Y24511000D01*
G01Y24828500D02*
X39497000D01*
X39518500Y24850000D01*
X40060400D01*
G01Y24930100D02*
X39560500D01*
Y25146000D01*
X39370000D01*
G01X40205200Y24305200D02*
X40020300D01*
G01X40767000Y22479000D02*
X40702320Y22543680D01*
Y23562320D01*
X40780000Y23640000D01*
G01X40445200Y24305200D02*
Y23974800D01*
X40780000Y23640000D01*
G01X40605200Y24305200D02*
Y24053800D01*
X40554400Y24003000D01*
G01X40894000Y24193500D02*
X41402000Y23685500D01*
G01X42862500Y22606000D02*
X42481500D01*
X42164000Y22923500D01*
Y23495000D01*
X41456600Y24202400D01*
X41075600D01*
G01X42481500Y25463500D02*
Y24770000D01*
X40910000D01*
G01X41338500Y24892000D02*
X41298950Y24852450D01*
X41243030D01*
X41240580Y24850000D01*
X40910000D01*
G01X41465500Y25336500D02*
Y25146000D01*
X41249600Y24930100D01*
X40910000D01*
G01Y25010100D02*
X41075600D01*
G01X41465500Y25336500D02*
X41910000Y24892000D01*
G01X41465500Y25463500D02*
Y25336500D01*
G01X44577000Y23431500D02*
X42354500D01*
X42037000Y23749000D01*
G01X42354500Y23558500D02*
X44767500D01*
G01X42227500Y23749000D02*
X42659000D01*
X42850000Y23940000D01*
G01X42418000Y22987000D02*
X42862500D01*
G01X46900000Y22580000D02*
X47115530D01*
X47212300Y22483230D01*
Y22320300D01*
X47148890Y22256890D01*
X46576890D01*
X46482000Y22162000D01*
Y22161500D01*
X46291500Y21971000D01*
X44958000D01*
X44767500Y22161500D01*
Y22415500D01*
X44577000Y22606000D01*
X43878500D01*
G01Y22987000D02*
X44323000D01*
X44795000Y22515000D01*
X46900000D01*
G01X43878500Y24320500D02*
X44132510D01*
X44155010Y24298000D01*
X44420000D01*
G01Y24552000D02*
X44222000Y24750000D01*
X43866000D01*
G01X44420000Y24806000D02*
X44127040D01*
X43878500Y25054540D01*
Y25146000D01*
G01X44920000Y23860000D02*
X44577000D01*
Y25060000D01*
X44420000D01*
G01X45194000Y22850000D02*
Y22941460D01*
X44920000Y23215460D01*
Y23860000D01*
G01X45021500Y23558500D02*
Y23660700D01*
X45000000Y23682200D01*
Y23860000D01*
G01X45148500Y23558500D02*
X45080000Y23627000D01*
Y23860000D01*
G01X45320000Y24511000D02*
Y24709600D01*
G01X45466000Y24511000D02*
X45402500Y24574500D01*
Y24592900D01*
X45400100Y24595300D01*
Y24709600D01*
G01X45402500Y24892000D02*
X45480100Y24814400D01*
Y24709600D01*
G01X45000000D02*
Y25273000D01*
X45529500D01*
G01X45480100Y23860000D02*
X45520750D01*
G01X45480100Y23753300D02*
Y23860000D01*
G01X45624800Y24004800D02*
X45847000D01*
Y23749000D01*
X46164500D01*
G01X45624800Y24084800D02*
X46164500D01*
Y24511000D01*
G01X45593000Y24892000D02*
Y24796800D01*
X45624800Y24765000D01*
Y24564800D01*
G01X46789600Y22645000D02*
X46900000D01*
G01X46750600Y22606000D02*
X46789600Y22645000D01*
G01X46482000Y22606000D02*
X46750600D01*
G01X46228000Y22161500D02*
X46482000Y22415500D01*
G54D13*
X37338000Y25146000D03*
X38608000Y25590500D03*
X44420000Y25060000D03*
G54D23*
G01X37592000Y22479000D02*
X37675860D01*
G01X37508140D02*
X37592000D01*
G01D02*
Y22562860D01*
G01Y22395140D02*
Y22479000D01*
G01Y23304500D02*
X37675860D01*
G01X37508140D02*
X37592000D01*
G01D02*
Y23388360D01*
G01Y23220640D02*
Y23304500D01*
G01X37338000Y24130000D02*
X37434560D01*
G01X37241440D02*
X37338000D01*
G01D02*
Y24226560D01*
G01Y24033440D02*
Y24130000D01*
G01X37592000Y25590500D02*
X37688560D01*
G01X37495440D02*
X37592000D01*
G01D02*
Y25687060D01*
G01Y25493940D02*
Y25590500D01*
G01X38290500Y22479000D02*
X38374360D01*
G01X38206640D02*
X38290500D01*
G01D02*
Y22562860D01*
G01Y22395140D02*
Y22479000D01*
G01X38989000D02*
X39072860D01*
G01X38905140D02*
X38989000D01*
G01D02*
Y22562860D01*
G01Y22395140D02*
Y22479000D01*
G01X40005000Y22225000D02*
X40088860D01*
G01X39921140D02*
X40005000D01*
G01D02*
Y22308860D01*
G01Y22141140D02*
Y22225000D01*
G01X40767000D02*
X40850860D01*
G01X40683140D02*
X40767000D01*
G01D02*
Y22308860D01*
G01Y22141140D02*
Y22225000D01*
G01X41910000Y22479000D02*
X41993860D01*
G01X41826140D02*
X41910000D01*
G01D02*
Y22562860D01*
G01Y22395140D02*
Y22479000D01*
G01X42291000Y23177500D02*
X43307000D01*
G01X41910000Y23431500D02*
X41993860D01*
G01X41910000D02*
Y23515360D01*
G01Y23347640D02*
Y23431500D01*
G01X43307000Y23177500D02*
X43434000Y23304500D01*
G01X44420000Y24044000D02*
X44516560D01*
G01X44323440D02*
X44420000D01*
G01D02*
Y24140560D01*
G01Y23947440D02*
Y24044000D01*
G01X46926500Y24003000D02*
X47010360D01*
G01X46842640D02*
X46926500D01*
G01D02*
Y24086860D01*
G01Y23919140D02*
Y24003000D01*
G01X46969640Y24765000D02*
X47053500D01*
G01D02*
X47137360D01*
G01X47053500D02*
Y24848860D01*
G01Y24681140D02*
Y24765000D01*
G54D14*
X38989000Y22225000D03*
X40020300Y24305200D03*
X39814500Y24066500D03*
X39886900Y25010100D03*
X39687500Y25209500D03*
X40554400Y24003000D03*
X40894000Y24193500D03*
X40685200Y24429200D03*
X40525200Y24419500D03*
X40767000Y24511000D03*
X40765200Y24957300D03*
X40449500Y25336500D03*
X40765200D03*
X41402000Y23685500D03*
X41075600Y24202400D03*
Y25010100D03*
X41338500Y24892000D03*
X41148000Y25209500D03*
X41226490Y25287980D03*
X41338500Y25336500D03*
X42291000Y23177500D03*
X42354500Y23558500D03*
X42418000Y22987000D03*
X42037000Y23749000D03*
X42227500D03*
X41910000Y24892000D03*
X43434000Y23304500D03*
X44577000Y23431500D03*
X45148500Y23558500D03*
X45021500D03*
X44767500D03*
Y23368000D03*
D03*
X45275500D03*
X45402500Y24193500D03*
Y24320500D03*
X45080000D03*
X45402500Y24892000D03*
X45466000Y24511000D03*
X45320000D03*
X44831000Y25273000D03*
X45593000Y24892000D03*
X46482000Y22606000D03*
Y22415500D03*
X47053500Y22479000D03*
G54D24*
G01X38989000Y22225000D02*
X39116000D01*
X39560500Y22669500D01*
Y23466200D01*
X40285200Y24190900D01*
Y24305200D01*
G01X40060400Y25010100D02*
X40310710D01*
G01X39886900D02*
X40060400D01*
G01X40767000Y24003000D02*
X41338500Y23431500D01*
G01X40767000Y24003000D02*
Y24066500D01*
G01D02*
X40685200D01*
G01D02*
Y24305200D01*
G01Y24429200D02*
Y24305200D01*
G01X40525200D02*
Y24419500D01*
G01X40285200Y24305200D02*
Y24473700D01*
X40421500Y24610000D01*
X40910000D01*
G01X40310710Y25010100D02*
X40365200Y25064590D01*
Y25154800D01*
G01X40765200D02*
Y24957300D01*
G01X40445200Y25154800D02*
Y25075490D01*
X40446510Y25074180D01*
Y25006820D01*
X40445200Y25005510D01*
Y24896310D01*
X40651510Y24690000D01*
X40910000D01*
G01X40449500Y25336500D02*
X40400970Y25287970D01*
G01D02*
Y25280780D01*
G01D02*
X40371550Y25251360D01*
Y25233400D01*
X40365200Y25227050D01*
Y25154800D01*
G01X40765200Y25336500D02*
Y25154800D01*
G01X41826140Y23431500D02*
X41353460D01*
G01X40910000Y24690000D02*
Y24610000D01*
G01X43866000Y23940000D02*
X43676000Y24130000D01*
X42799000D01*
X42319000Y24610000D01*
X40910000D01*
G01X41910000Y23431500D02*
X41826140D01*
G01X45400100Y23860000D02*
Y23683100D01*
X45275500Y23558500D01*
Y23368000D01*
G01X45402500Y24193500D02*
X45480100Y24115900D01*
G01X45240000Y24709600D02*
Y24595300D01*
X45206890Y24562190D01*
Y24099610D01*
X45240000Y24066500D01*
X45400100D01*
Y23860000D01*
G01X45080000Y24709600D02*
Y24320500D01*
G01X45240000Y24709600D02*
Y25019000D01*
X46101000D01*
Y25209500D01*
X47246000D01*
Y25450000D01*
G01X45480100Y24115900D02*
Y23860000D01*
G01X46900000Y22450000D02*
X47024500D01*
X47053500Y22479000D01*
G54D15*
X40060400Y25010100D03*
Y24930100D03*
Y24850000D03*
Y24690000D03*
Y24610000D03*
Y24530000D03*
Y24450000D03*
X40910000Y24530000D03*
Y24610000D03*
Y24690000D03*
Y24770000D03*
Y24850000D03*
Y24930100D03*
Y25010100D03*
X44775200Y24244800D03*
Y24084800D03*
Y24004800D03*
Y24564800D03*
Y24484800D03*
Y24404800D03*
Y24324800D03*
X45624800Y24004800D03*
Y24164800D03*
Y24244800D03*
Y24324800D03*
Y24404800D03*
Y24484800D03*
Y24564800D03*
G54D16*
X40060400Y24770000D03*
X40910000Y24450000D03*
X44775200Y24164800D03*
X45624800Y24084800D03*
G54D17*
X40205200Y24305200D03*
X40285200D03*
X40365200D03*
X40445200D03*
X40525200D03*
X40685200D03*
X40765200D03*
Y25154800D03*
X40605200D03*
X40525200D03*
X40445200D03*
X40365200D03*
X40285200D03*
X40205200D03*
X45000000Y23860000D03*
X45080000D03*
X45160000D03*
X45240000D03*
X45320000D03*
X45400100D03*
Y24709600D03*
X45320000D03*
X45160000D03*
X45080000D03*
X45000000D03*
X44920000D03*
X45480100Y23860000D03*
Y24709600D03*
G54D18*
X40605200Y24305200D03*
X40685200Y25154800D03*
X44920000Y23860000D03*
X45240000Y24709600D03*
G54D19*
X46900000Y22350000D03*
Y22810000D03*
M02*
